<?xml version="1.0" standalone="no"?>
<!DOCTYPE svg PUBLIC "-//W3C//DTD SVG 1.1//EN" "http://www.w3.org/Graphics/SVG/1.1/DTD/svg11.dtd" >
<svg>
<metadata>
Created by FontForge 20090914 at Wed Jun 24 22:12:26 2020
 By www-data
Copyright (c) 2018 by Rajesh Rajput. All rights reserved.
</metadata>
<defs>
<font id="Morganite-ExtraBold" horiz-adv-x="219" >
  <font-face 
    font-family="Morganite"
    font-weight="800"
    font-style="italic"
    font-stretch="normal"
    units-per-em="1000"
    panose-1="0 0 0 0 0 0 0 0 0 0"
    ascent="750"
    descent="-250"
    x-height="495"
    cap-height="699"
    bbox="-44.999 -197.003 626 861.999"
    underline-thickness="52"
    underline-position="-48"
    slope="-15"
    unicode-range="U+000D-U+FB02"
  />
<missing-glyph horiz-adv-x="102" 
 />
    <glyph glyph-name=".notdef" horiz-adv-x="102" 
 />
    <glyph glyph-name="NULL" horiz-adv-x="0" 
 />
    <glyph glyph-name="NULL" horiz-adv-x="0" 
 />
    <glyph glyph-name="nonmarkingreturn" unicode="&#xd;" horiz-adv-x="102" 
 />
    <glyph glyph-name="space" unicode=" " horiz-adv-x="102" 
 />
    <glyph glyph-name="exclam" unicode="!" horiz-adv-x="138" 
d="M101 134h-65l-12 297v268h89v-268zM114 0h-90v104h90v-104z" />
    <glyph glyph-name="quotedbl" unicode="&#x22;" horiz-adv-x="274" 
d="M117 595l-27 -63h-36l15 63h-42v104h90v-104zM250 595l-27 -63h-37l15 63h-42v104h91v-104z" />
    <glyph glyph-name="numbersign" unicode="#" horiz-adv-x="368" 
d="M326 204h-50l-17 -204h-80l17 204h-49l-17 -204h-80l17 204h-53l7 73h53l12 144h-52l7 73h51l18 205h80l-18 -205h49l18 205h80l-18 -205h53l-8 -73h-51l-12 -144h51zM154 277h49l12 144h-49z" />
    <glyph glyph-name="dollar" unicode="$" horiz-adv-x="244" 
d="M93 -4c-21.333 4 -39.999 14.165 -55.999 30.498s-24 40.166 -24 71.499v184h81v-171c0 -15.333 2 -26.333 6 -33s9.66699 -10 17 -10h3c14.667 0 22 14.333 22 43v80c0 22 -3.16699 41.667 -9.5 59s-14.333 33.5 -24 48.5s-20 29.333 -31 43s-21.333 28 -31 43
s-17.667 31.333 -24 49s-9.5 37.834 -9.5 60.501v107c0 32 8 56 24 72s34.667 26 56 30v53h58v-55c19.333 -4.66699 36.166 -15 50.499 -31s21.5 -39 21.5 -69v-183h-81v170c0 15.333 -1.5 26.333 -4.5 33s-7.5 10 -13.5 10h-4c-6 0 -10.5 -3.16699 -13.5 -9.5
s-4.5 -17.5 -4.5 -33.5v-79c0 -22.667 3.16699 -42.667 9.5 -60s14.333 -33.5 24 -48.5s20 -29.333 31 -43s21.333 -28.167 31 -43.5s17.667 -31.666 24 -48.999s9.5 -37.333 9.5 -60v-107c0 -32 -8 -56.167 -24 -72.5s-34.667 -26.166 -56 -29.499v-53h-58v53z" />
    <glyph glyph-name="percent" unicode="%" horiz-adv-x="454" 
d="M308 699l-230 -699h64l230 699h-64zM88 302c-21.333 0 -39 7.5 -53 22.5s-21 35.167 -21 60.5v237c0 25.333 7 45.5 21 60.5s31.667 22.5 53 22.5h16c21.333 0 39.166 -7.5 53.499 -22.5s21.5 -35.167 21.5 -60.5v-237c0 -25.333 -7.16699 -45.5 -21.5 -60.5
s-32.166 -22.5 -53.499 -22.5h-16zM95 650c-10 0 -15 -10.333 -15 -31v-232c0 -20 5 -30 15 -30h4c9.33301 0 14 10 14 30v232c0 20.667 -4.66699 31 -14 31h-4zM349 -6c-21.333 0 -39 7.5 -53 22.5s-21 35.167 -21 60.5v239c0 25.333 7 45.5 21 60.5s31.667 22.5 53 22.5
h15c22 0 40.167 -7.5 54.5 -22.5s21.5 -35.167 21.5 -60.5v-239c0 -25.333 -7.16699 -45.5 -21.5 -60.5s-32.5 -22.5 -54.5 -22.5h-15zM356 344c-10 0 -15 -10.333 -15 -31v-234c0 -20 5 -30 15 -30h4c8.66699 0 13 10 13 30v234c0 20.667 -4.33301 31 -13 31h-4z" />
    <glyph glyph-name="ampersand" unicode="&#x26;" horiz-adv-x="244" 
d="M92 756l58 0.000976562v-53c21.333 -3.33301 40.166 -13.166 56.499 -29.499s24.5 -40.5 24.5 -72.5v-185h-89v172c0 15.333 -1.5 26.333 -4.5 33s-7.5 10 -13.5 10h-4c-6 0 -10.5 -3.16699 -13.5 -9.5s-4.5 -17.5 -4.5 -33.5v-146
c0 -15.333 1.83301 -27.666 5.5 -36.999s10.5 -14 20.5 -14h27v-64h-27c-10 0 -16.833 -4.66699 -20.5 -14s-5.5 -21.666 -5.5 -36.999v-165c0 -16 1.5 -27.167 4.5 -33.5s7.5 -9.5 13.5 -9.5h4c6 0 10.5 3.16699 13.5 9.5s4.5 17.166 4.5 32.499v172h89v-184
c0 -32 -8.16699 -56.167 -24.5 -72.5s-35.166 -26.166 -56.499 -29.499v-53h-58v53c-21.333 4 -39.833 14 -55.5 30s-23.5 40 -23.5 72v176c0 29.333 7 50.166 21 62.499s30.667 20.166 50 23.499c-19.333 4 -36 13.167 -50 27.5s-21 36.166 -21 65.499v148
c0 31.333 7.83301 55.166 23.5 71.499s34.167 26.5 55.5 30.5v53z" />
    <glyph glyph-name="quotesingle" unicode="'" horiz-adv-x="141" 
d="M117 595l-27 -63h-36l15 63h-42v104h90v-104z" />
    <glyph glyph-name="parenleft" unicode="(" horiz-adv-x="221" 
d="M129 -36c-16 0 -31.167 2.16895 -45.5 6.50195s-26.666 11.666 -36.999 21.999s-18.5 24.333 -24.5 42s-9 39.5 -9 65.5v499c0 26 3 47.833 9 65.5s14.167 31.667 24.5 42s22.666 17.666 36.999 21.999s29.5 6.5 45.5 6.5h50v-74h-19c-26 0 -42.167 -8.83301 -48.5 -26.5
s-9.5 -44.5 -9.5 -80.5v-409c0 -35.333 3.16699 -62 9.5 -80s22.5 -27 48.5 -27h19v-74h-50z" />
    <glyph glyph-name="parenright" unicode=")" horiz-adv-x="221" 
d="M42 -36v73.998h19c26 0 42.167 9 48.5 27s9.5 44.667 9.5 80v409c0 36 -3.16699 62.833 -9.5 80.5s-22.5 26.5 -48.5 26.5h-19v74h50c16.667 0 32 -2.16699 46 -6.5s26.167 -11.666 36.5 -21.999s18.5 -24.333 24.5 -42s9 -39.5 9 -65.5v-499c0 -26 -3 -47.833 -9 -65.5
s-14.167 -31.667 -24.5 -42s-22.5 -17.666 -36.5 -21.999s-29.333 -6.5 -46 -6.5h-50z" />
    <glyph glyph-name="asterisk" unicode="*" horiz-adv-x="191" 
d="M67 537l-37 26l32 43l-49 14l15 44l47 -18l-2 53h45l-2 -53l47 18l15 -44l-49 -14l32 -43l-37 -25l-29 46z" />
    <glyph glyph-name="plus" unicode="+" horiz-adv-x="298" 
d="M114 380v118h68v-118h102v-60h-102v-118h-68v118h-100v60h100z" />
    <glyph glyph-name="comma" unicode="," horiz-adv-x="134" 
d="M112 0l-27 -63h-37l15 63h-41v104h90v-104z" />
    <glyph glyph-name="hyphen" unicode="-" horiz-adv-x="250" 
d="M236 380v-60h-222v60h222z" />
    <glyph glyph-name="period" unicode="." horiz-adv-x="138" 
d="M114 0h-90v104h90v-104z" />
    <glyph glyph-name="slash" unicode="/" horiz-adv-x="235" 
d="M158 699h74l-155 -699h-75z" />
    <glyph glyph-name="zero" unicode="0" horiz-adv-x="244" 
d="M113 -6c-12 0 -24 2 -36 6s-22.833 10.167 -32.5 18.5s-17.334 19.166 -23.001 32.499s-8.5 29 -8.5 47v503c0 18 2.83301 33.667 8.5 47s13.334 24.166 23.001 32.499s20.5 14.5 32.5 18.5s24 6 36 6h18c12.667 0 25 -2 37 -6s22.667 -10.167 32 -18.5
s16.833 -19.166 22.5 -32.499s8.5 -29 8.5 -47v-503c0 -18 -2.83301 -33.667 -8.5 -47s-13.167 -24.166 -22.5 -32.499s-20 -14.5 -32 -18.5s-24.333 -6 -37 -6h-18zM120 631c-12 0 -18 -14.333 -18 -43v-477c0 -28.667 6 -43 18 -43h4c12 0 18 14.333 18 43v477
c0 28.667 -6 43 -18 43h-4z" />
    <glyph glyph-name="one" unicode="1" horiz-adv-x="183" 
d="M76 0v564.999c-9.33301 -1.33301 -20.333 -2.66602 -33 -3.99902s-23.667 -2 -33 -2v70c19.333 0 37.333 6.83301 54 20.5s25.667 30.167 27 49.5h74v-699h-89z" />
    <glyph glyph-name="two" unicode="2" horiz-adv-x="244" 
d="M13 418v182.999c0 18 2.83301 33.667 8.5 47s13.167 24.166 22.5 32.499s20 14.5 32 18.5s24 6 36 6h10c12.667 0 25 -2 37 -6s22.667 -10.167 32 -18.5s17 -19.166 23 -32.499s9 -29 9 -47v-107c0 -22.667 -3 -43.5 -9 -62.5s-13.5 -37.833 -22.5 -56.5
s-18.667 -37.667 -29 -57s-20 -40.833 -29 -64.5s-16.5 -50 -22.5 -79s-9 -62.5 -9 -100.5h129v-74h-218v74c0 42.667 3 80 9 112s13.5 60.333 22.5 85s18.667 46.834 29 66.501l29 56.5c9 18 16.5 36 22.5 54s9 38.333 9 61v79c0 16 -1.5 27.167 -4.5 33.5
s-7.5 9.5 -13.5 9.5h-4c-6 0 -10.5 -3.33301 -13.5 -10s-4.5 -17.667 -4.5 -33v-170h-81z" />
    <glyph glyph-name="three" unicode="3" horiz-adv-x="244" 
d="M116 391c10 0 16.833 4.66602 20.5 13.999s5.5 21.666 5.5 36.999v146c0 16 -1.5 27.167 -4.5 33.5s-7.5 9.5 -13.5 9.5h-4c-6 0 -10.5 -3.33301 -13.5 -10s-4.5 -17.667 -4.5 -33v-172h-89v185c0 18 2.83301 33.667 8.5 47s13.334 24.166 23.001 32.499
s20.5 14.5 32.5 18.5s24 6 36 6h18c12.667 0 25 -2 37 -6s22.667 -10.167 32 -18.5s16.833 -19.166 22.5 -32.499s8.5 -29 8.5 -47v-148c0 -30 -7 -52 -21 -66s-30.667 -23 -50 -27c19.333 -3.33301 36 -11.166 50 -23.499s21 -33.166 21 -62.499v-176
c0 -18 -2.83301 -33.667 -8.5 -47s-13.167 -24.166 -22.5 -32.499s-20 -14.5 -32 -18.5s-24.333 -6 -37 -6h-18c-12 0 -24 2 -36 6s-22.833 10.167 -32.5 18.5s-17.334 19.166 -23.001 32.499s-8.5 29 -8.5 47v184h89v-172c0 -15.333 1.5 -26.166 4.5 -32.499
s7.5 -9.5 13.5 -9.5h4c6 0 10.5 3.16699 13.5 9.5s4.5 17.5 4.5 33.5v165c0 15.333 -1.83301 27.666 -5.5 36.999s-10.5 14 -20.5 14h-27v64h27z" />
    <glyph glyph-name="four" unicode="4" horiz-adv-x="274" 
d="M260 169v-74h-36v-95h-76v95h-138v74l109 530h105v-530h36zM148 451h-3l-50 -280v-2h53v282z" />
    <glyph glyph-name="five" unicode="5" horiz-adv-x="244" 
d="M113 -6c-12 0 -23.999 2 -35.999 6s-22.833 10.167 -32.5 18.5s-17.334 19.166 -23.001 32.499s-8.5 29 -8.5 47v192h89v-179c0 -28.667 6 -43 18 -43h4c12 0 18 14.333 18 43v214c0 16 -1.5 27.167 -4.5 33.5s-7.5 9.5 -13.5 9.5h-4c-11.333 0 -17.333 -11.667 -18 -35
v-15h-89v381h217l-8 -74h-120v-217c7.33301 11.333 16 19.833 26 25.5s19.667 8.5 29 8.5h6c17.333 0 33 -8.16699 47 -24.5s21 -42.833 21 -79.5v-240c0 -18 -2.83301 -33.667 -8.5 -47s-13.167 -24.166 -22.5 -32.499s-20 -14.5 -32 -18.5s-24.333 -6 -37 -6h-18z" />
    <glyph glyph-name="six" unicode="6" horiz-adv-x="244" 
d="M113 -6c-12 0 -24 2 -36 6s-22.833 10.167 -32.5 18.5s-17.334 19.166 -23.001 32.499s-8.5 29 -8.5 47v503c0 18 2.83301 33.667 8.5 47s13.334 24.166 23.001 32.499s20.5 14.5 32.5 18.5s24 6 36 6h13c12.667 0 25 -2 37 -6s22.667 -10.167 32 -18.5
s16.833 -19.166 22.5 -32.499s8.5 -29 8.5 -47v-125h-84v112c0 15.333 -1.5 26.333 -4.5 33s-7.5 10 -13.5 10h-4c-6 0 -10.5 -3.16699 -13.5 -9.5s-4.5 -17.5 -4.5 -33.5v-180c7.33301 11.333 16 19.833 26 25.5s19.667 8.5 29 8.5h6c17.333 0 33 -8.16699 47 -24.5
s21 -42.833 21 -79.5v-240c0 -18 -2.83301 -33.667 -8.5 -47s-13.167 -24.166 -22.5 -32.499s-20 -14.5 -32 -18.5s-24.333 -6 -37 -6h-18zM102 111c0 -28.667 6 -43 18 -43h4c12 0 18 14.333 18 43v214c0 16 -1.5 27.167 -4.5 33.5s-7.5 9.5 -13.5 9.5h-4
c-11.333 0 -17.333 -11.667 -18 -35v-222z" />
    <glyph glyph-name="seven" unicode="7" horiz-adv-x="212" 
d="M11 0l98 633h-100v66h189v-66l-98 -633h-89z" />
    <glyph glyph-name="eight" unicode="8" horiz-adv-x="244" 
d="M113 -6c-12 0 -24 2.00098 -36 6.00098s-22.833 10.167 -32.5 18.5s-17.334 19.166 -23.001 32.499s-8.5 29 -8.5 47v172c0 22 4.16699 40.333 12.5 55s19.166 26 32.499 34c-13.333 8 -24.166 19.333 -32.499 34s-12.5 33.334 -12.5 56.001v152
c0 18 2.83301 33.667 8.5 47s13.334 24.166 23.001 32.499s20.5 14.5 32.5 18.5s24 6 36 6h18c12.667 0 25 -2 37 -6s22.667 -10.167 32 -18.5s16.833 -19.166 22.5 -32.499s8.5 -29 8.5 -47v-152c0 -22.667 -4.16699 -41.334 -12.5 -56.001s-19.166 -26 -32.499 -34
c13.333 -7.33301 24.166 -18.333 32.499 -33s12.5 -33.334 12.5 -56.001v-172c0 -18 -2.83301 -33.667 -8.5 -47s-13.167 -24.166 -22.5 -32.499s-20 -14.5 -32 -18.5s-24.333 -6 -37 -6h-18zM120 332.001c-12 0 -18 -14.333 -18 -43v-178c0 -28.667 6 -43 18 -43h4
c12 0 18 14.333 18 43v178c0 28.667 -6 43 -18 43h-4zM120 631.001c-12 0 -18 -14.333 -18 -43v-158c0 -28.667 6 -43 18 -43h4c12 0 18 14.333 18 43v158c0 28.667 -6 43 -18 43h-4z" />
    <glyph glyph-name="nine" unicode="9" horiz-adv-x="244" 
d="M131 705c12.667 0 25 -2.00098 37 -6.00098s22.667 -10.167 32 -18.5s16.833 -19.166 22.5 -32.499s8.5 -29 8.5 -47v-503c0 -18 -2.83301 -33.667 -8.5 -47s-13.167 -24.166 -22.5 -32.499s-20 -14.5 -32 -18.5s-24.333 -6 -37 -6h-13c-12 0 -24 2 -36 6
s-22.833 10.167 -32.5 18.5s-17.334 19.166 -23.001 32.499s-8.5 29 -8.5 47v184h84v-171c0 -15.333 1.5 -26.333 4.5 -33s7.5 -10 13.5 -10h4c6 0 10.5 3.16699 13.5 9.5s4.5 17.5 4.5 33.5v238c-7.33301 -11.333 -16 -19.666 -26 -24.999s-19.667 -8 -29 -8h-6
c-16.667 0 -32.167 8.16699 -46.5 24.5s-21.5 42.833 -21.5 79.5v181c0 18 2.83301 33.667 8.5 47s13.334 24.166 23.001 32.499s20.5 14.5 32.5 18.5s24 6 36 6h18zM142 587.999c0 28.667 -6 43 -18 43h-4c-12 0 -18 -14.333 -18 -43v-155c0 -16 1.5 -27.167 4.5 -33.5
s7.5 -9.5 13.5 -9.5h4c11.333 0 17.333 11.333 18 34v164z" />
    <glyph glyph-name="colon" unicode=":" horiz-adv-x="138" 
d="M114 311h-90v104h90v-104zM114 0h-90v104h90v-104z" />
    <glyph glyph-name="semicolon" unicode=";" horiz-adv-x="143" 
d="M117 311h-90v104h90v-104zM119 0l-27 -63h-37l15 63h-41v104h90v-104z" />
    <glyph glyph-name="less" unicode="&#x3c;" horiz-adv-x="240" 
d="M226 3l-3 -2l-209 224v41l208 226l4 -3v-90l-2 -3l-134 -148v-3l134 -146l2 -3v-93z" />
    <glyph glyph-name="equal" unicode="=" horiz-adv-x="308" 
d="M294 443v-60h-280v60h280zM294 320v-60h-280v60h280z" />
    <glyph glyph-name="greater" unicode="&#x3e;" horiz-adv-x="240" 
d="M15 96l1 3l134 146v3l-134 147l-1 4v90l3 2l208 -225v-41l-209 -224l-3 1z" />
    <glyph glyph-name="question" unicode="?" horiz-adv-x="236" 
d="M13 418v183.001c0 18 2.83301 33.667 8.5 47s13.167 24.166 22.5 32.499s20 14.5 32 18.5s24 6 36 6h10c12.667 0 25 -2 37 -6s22.667 -10.167 32 -18.5s17 -19.166 23 -32.499s9 -29 9 -47v-107c0 -23.333 -2.66699 -44 -8 -62s-11.666 -35.333 -18.999 -52
s-15.166 -33.167 -23.499 -49.5s-15.5 -34 -21.5 -53s-10 -40 -12 -63s-0.333008 -49.833 5 -80.5h-89c-5.33301 35.333 -7 66 -5 92s6 49.167 12 69.5s13.167 38.666 21.5 54.999s16.166 32.5 23.499 48.5s13.666 32.667 18.999 50s8 37.333 8 60v79
c0 16 -1.5 27.167 -4.5 33.5s-7.5 9.5 -13.5 9.5h-4c-6 0 -10.5 -3.33301 -13.5 -10s-4.5 -17.667 -4.5 -33v-170h-81zM146 0.000976562h-91v104h91v-104z" />
    <glyph glyph-name="at" unicode="@" horiz-adv-x="443" 
d="M201 -6c-34 0 -63 4.8291 -87 14.4961s-43.5 22.334 -58.5 38.001s-25.833 33 -32.5 52s-10 37.5 -10 55.5v281c0 18 3.33301 36.5 10 55.5s17.5 36.333 32.5 52s34.5 28.334 58.5 38.001s53 14.5 87 14.5h41c34 0 63 -4.83301 87 -14.5s43.333 -22.334 58 -38.001
s25.334 -33 32.001 -52s10 -37.5 10 -55.5v-263c0 -18.667 -7.5 -33.167 -22.5 -43.5s-32.5 -16.833 -52.5 -19.5s-39.833 -1.16699 -59.5 4.5s-34.167 15.167 -43.5 28.5c-9.33301 -10.667 -19 -19 -29 -25s-20 -9 -30 -9h-2c-26 0 -43.167 9 -51.5 27
s-12.5 42.333 -12.5 73v171c0 30.667 4.5 55 13.5 73s26.5 27 52.5 27h3c9.33301 0 18.333 -2.5 27 -7.5s17 -11.5 25 -19.5l11 27h58v-271c0 -8.66699 1.66699 -15.167 5 -19.5s7.16602 -6.33301 11.499 -6s8.16602 2.66602 11.499 6.99902s5 10.5 5 18.5v222
c0 8 -0.833008 17.5 -2.5 28.5s-6 21.833 -13 32.5s-17.667 19.667 -32 27s-34.166 11 -59.499 11h-42c-25.333 0 -45 -3.66699 -59 -11s-24.5 -16.166 -31.5 -26.499s-11.333 -21.166 -13 -32.499s-2.5 -21 -2.5 -29v-271c0 -7.33301 0.833008 -16.666 2.5 -27.999
s6 -22.333 13 -33s17.5 -19.667 31.5 -27s33.667 -11 59 -11h42c26 0 45.833 3.83301 59.5 11.5s23.5 15.5 29.5 23.5l60 -44c-12 -13.333 -29.667 -26.166 -53 -38.499s-55.333 -18.5 -96 -18.5h-41zM225 176.996c11.333 0 17 11.667 17 35v163
c0 23.333 -5.66699 35 -17 35h-2c-9.33301 0 -14 -11 -14 -33v-167c0 -22 4.66699 -33 14 -33h2z" />
    <glyph glyph-name="A" unicode="A" horiz-adv-x="243" 
d="M141 180h-48l-14 -180h-77l61 699h113l65 -699h-85zM99 247h37l-17 209h-3z" />
    <glyph glyph-name="B" unicode="B" horiz-adv-x="244" 
d="M232 427c0 -21.333 -3.33301 -37.1699 -10 -47.5029s-15 -17.166 -25 -20.499c10 -2.66699 18.333 -9.16699 25 -19.5s10 -26.166 10 -47.499v-191c0 -18 -2.83301 -33.333 -8.5 -46s-13.167 -23 -22.5 -31s-20 -14 -32 -18s-24.333 -6 -37 -6h-118v699h118
c12.667 0 25 -2 37 -6s22.667 -10.167 32 -18.5s16.833 -19.166 22.5 -32.499s8.5 -29 8.5 -47v-168zM143 284.996c0 27.333 -5.66699 41 -17 41h-23v-252h21c12.667 0 19 13.667 19 41v170zM127 391.996c10.667 0 16 13.333 16 40v150c0 28.667 -6 43 -18 43h-22v-233h24z
" />
    <glyph glyph-name="C" unicode="C" horiz-adv-x="244" 
d="M113 -6c-12 0 -24 2 -36 6s-22.833 10.167 -32.5 18.5s-17.334 19.166 -23.001 32.499s-8.5 29 -8.5 47v503c0 18 2.83301 33.667 8.5 47s13.334 24.166 23.001 32.499s20.5 14.5 32.5 18.5s24 6 36 6h18c12.667 0 25 -2 37 -6s22.667 -10.167 32 -18.5
s16.833 -19.166 22.5 -32.499s8.5 -29 8.5 -47v-183h-89v170c0 15.333 -1.5 26.333 -4.5 33s-7.5 10 -13.5 10h-4c-6 0 -10.5 -3.16699 -13.5 -9.5s-4.5 -17.5 -4.5 -33.5v-477c0 -28.667 6 -43 18 -43h4c12 0 18 14.333 18 43v172h89v-185c0 -18 -2.83301 -33.667 -8.5 -47
s-13.167 -24.166 -22.5 -32.499s-20 -14.5 -32 -18.5s-24.333 -6 -37 -6h-18z" />
    <glyph glyph-name="D" unicode="D" horiz-adv-x="245" 
d="M14 0v699h118c12 0 24 -2 36 -6s22.833 -10.167 32.5 -18.5s17.334 -19 23.001 -32s8.5 -28.5 8.5 -46.5v-493c0 -18 -2.83301 -33.5 -8.5 -46.5s-13.334 -23.667 -23.001 -32s-20.5 -14.5 -32.5 -18.5s-24 -6 -36 -6h-118zM103 625v-550.998h22
c6 0 10.5 3.16699 13.5 9.5s4.5 17.166 4.5 32.499v467c0 15.333 -1.5 26.166 -4.5 32.499s-7.5 9.5 -13.5 9.5h-22z" />
    <glyph glyph-name="E" unicode="E" horiz-adv-x="202" 
d="M103 625v-243h67v-66h-67v-242h92v-74h-181v699h174v-74h-85z" />
    <glyph glyph-name="F" unicode="F" horiz-adv-x="195" 
d="M103 625v-243h67v-66h-67v-316h-89v699h174v-74h-85z" />
    <glyph glyph-name="G" unicode="G" horiz-adv-x="244" 
d="M113 -6c-12 0 -23.999 2.00098 -35.999 6.00098s-22.833 10.167 -32.5 18.5s-17.334 19.166 -23.001 32.499s-8.5 29 -8.5 47v503c0 18 2.83301 33.667 8.5 47s13.334 24.166 23.001 32.499s20.5 14.5 32.5 18.5s24 6 36 6h18c12.667 0 25 -2 37 -6
s22.667 -10.167 32 -18.5s16.833 -19.166 22.5 -32.499s8.5 -29 8.5 -47v-183h-89v170c0 15.333 -1.5 26.333 -4.5 33s-7.5 10 -13.5 10h-4c-6 0 -10.5 -3.16699 -13.5 -9.5s-4.5 -17.5 -4.5 -33.5v-477c0 -28.667 6 -43 18 -43h4c12 0 18 14.333 18 43v98h-23v74h112v-154
v-6v-123h-43l-10 23c-10 -9.33301 -20.333 -16.5 -31 -21.5s-20.334 -7.5 -29.001 -7.5h-5z" />
    <glyph glyph-name="H" unicode="H" horiz-adv-x="244" 
d="M230 699v-699h-89v316h-38v-316h-89v699h89v-317h38v317h89z" />
    <glyph glyph-name="I" unicode="I" horiz-adv-x="117" 
d="M103 699v-699h-89v699h89z" />
    <glyph glyph-name="J" unicode="J" horiz-adv-x="244" 
d="M113 -6c-12 0 -23.999 2 -35.999 6s-22.833 10.167 -32.5 18.5s-17.334 19.166 -23.001 32.499s-8.5 29 -8.5 47v183h89v-170c0 -28.667 6 -43 18 -43h4c12 0 18 14.333 18 43v588h89v-601c0 -18 -2.83301 -33.667 -8.5 -47s-13.167 -24.166 -22.5 -32.499
s-20 -14.5 -32 -18.5s-24.333 -6 -37 -6h-18z" />
    <glyph glyph-name="K" unicode="K" horiz-adv-x="245" 
d="M166 361l75 -361h-81l-56 243h-1v-243h-89v699h89v-255h1l58 255h81z" />
    <glyph glyph-name="L" unicode="L" horiz-adv-x="187" 
d="M103 699v-633h82v-66h-171v699h89z" />
    <glyph glyph-name="M" unicode="M" horiz-adv-x="331" 
d="M317 699v-699h-73v423h-2l-45 -423h-64l-44 423h-1v-423h-75v699h115l36 -357h2l38 357h113z" />
    <glyph glyph-name="N" unicode="N" horiz-adv-x="277" 
d="M166 0l-77 422h-1v-422h-75v699h99l70 -412h1v412h81v-699h-98z" />
    <glyph glyph-name="O" unicode="O" horiz-adv-x="244" 
d="M113 -6c-12 0 -24 2 -36 6s-22.833 10.167 -32.5 18.5s-17.334 19.166 -23.001 32.499s-8.5 29 -8.5 47v503c0 18 2.83301 33.667 8.5 47s13.334 24.166 23.001 32.499s20.5 14.5 32.5 18.5s24 6 36 6h18c12.667 0 25 -2 37 -6s22.667 -10.167 32 -18.5
s16.833 -19.166 22.5 -32.499s8.5 -29 8.5 -47v-503c0 -18 -2.83301 -33.667 -8.5 -47s-13.167 -24.166 -22.5 -32.499s-20 -14.5 -32 -18.5s-24.333 -6 -37 -6h-18zM120 631c-12 0 -18 -14.333 -18 -43v-477c0 -28.667 6 -43 18 -43h4c12 0 18 14.333 18 43v477
c0 28.667 -6 43 -18 43h-4z" />
    <glyph glyph-name="P" unicode="P" horiz-adv-x="245" 
d="M133 699c28 0 51.5 -9 70.5 -27s28.5 -43.333 28.5 -76v-228c0 -32 -9.16699 -54.333 -27.5 -67s-41.5 -19 -69.5 -19h-32v-282h-89v699h119zM143 582c0 28.667 -6.33301 43 -19 43h-21v-269h23c11.333 0 17 13.333 17 40v186z" />
    <glyph glyph-name="Q" unicode="Q" horiz-adv-x="246" 
d="M113 -6c-12 0 -24 2.00098 -36 6.00098s-22.833 10.167 -32.5 18.5s-17.334 19.166 -23.001 32.499s-8.5 29 -8.5 47v503c0 18 2.83301 33.667 8.5 47s13.334 24.166 23.001 32.499s20.5 14.5 32.5 18.5s24 6 36 6h18c12.667 0 25 -2 37 -6s22.667 -10.167 32 -18.5
s16.833 -19.166 22.5 -32.499s8.5 -29 8.5 -47v-503c0 -18.667 -2.83301 -34.5 -8.5 -47.5s-13.167 -23.833 -22.5 -32.5l31 -30l-44 -44l-50 50h-6h-18zM120 631.001c-12 0 -18 -14.333 -18 -43v-477c0 -28.667 6 -43 18 -43h4c12 0 18 14.333 18 43v477
c0 28.667 -6 43 -18 43h-4z" />
    <glyph glyph-name="R" unicode="R" horiz-adv-x="252" 
d="M232 417c0 -21.333 -3.33301 -37.1689 -10 -47.502s-15 -17.166 -25 -20.499c10 -2.66699 18.333 -9.16699 25 -19.5s10 -26.166 10 -47.499v-151c0 -48 1.83301 -81.5 5.5 -100.5s6.16699 -29.167 7.5 -30.5h-89c-5.33301 8 -8.83301 22.333 -10.5 43s-2.5 50 -2.5 88
v143c0 28 -5.66699 42 -17 42h-23v-316h-89v699h119c28 0 51.5 -9 70.5 -27s28.5 -43.333 28.5 -76v-179zM126 381.997c11.333 0 17 13.333 17 40v160c0 28.667 -6.33301 43 -19 43h-21v-243h23z" />
    <glyph glyph-name="S" unicode="S" horiz-adv-x="244" 
d="M142 418l-0.000976562 169.998c0 15.333 -1.5 26.333 -4.5 33s-7.5 10 -13.5 10h-4c-6 0 -10.5 -3.16699 -13.5 -9.5s-4.5 -17.5 -4.5 -33.5v-79c0 -22.667 3.16699 -42.667 9.5 -60s14.333 -33.5 24 -48.5s20 -29.333 31 -43s21.333 -28.167 31 -43.5
s17.667 -31.666 24 -48.999s9.5 -37.333 9.5 -60v-107c0 -18 -2.83301 -33.667 -8.5 -47s-13.167 -24.166 -22.5 -32.499s-20 -14.5 -32 -18.5s-24.333 -6 -37 -6h-16c-12 0 -24.167 2 -36.5 6s-23.333 10.167 -33 18.5s-17.5 19.166 -23.5 32.499s-9 29 -9 47v184h81v-171
c0 -15.333 2 -26.333 6 -33s9.66699 -10 17 -10h3c14.667 0 22 14.333 22 43v80c0 22 -3.16699 41.667 -9.5 59s-14.333 33.5 -24 48.5s-20 29.333 -31 43s-21.333 28 -31 43s-17.667 31.333 -24 49s-9.5 37.834 -9.5 60.501v107c0 18 2.83301 33.667 8.5 47
s13.334 24.166 23.001 32.499s20.5 14.5 32.5 18.5s24.333 6 37 6h10c12 0 24 -2 36 -6s22.667 -10.167 32 -18.5s16.833 -19.166 22.5 -32.499s8.5 -29 8.5 -47v-183h-81z" />
    <glyph glyph-name="T" unicode="T" horiz-adv-x="231" 
d="M229 625h-69v-625h-89v625h-69v74h227v-74z" />
    <glyph glyph-name="U" unicode="U" horiz-adv-x="245" 
d="M114 -6c-12 0 -23.999 2 -35.999 6s-22.833 10.167 -32.5 18.5s-17.334 19.166 -23.001 32.499s-8.5 29 -8.5 47v601h89v-588c0 -28.667 6 -43 18 -43h4c12 0 18 14.333 18 43v588h89v-601c0 -18 -2.83301 -33.667 -8.5 -47s-13.167 -24.166 -22.5 -32.499
s-20 -14.5 -32 -18.5s-24.333 -6 -37 -6h-18z" />
    <glyph glyph-name="V" unicode="V" horiz-adv-x="243" 
d="M165 699h76l-61 -699h-113l-65 699h85l37 -456h4z" />
    <glyph glyph-name="W" unicode="W" horiz-adv-x="369" 
d="M55 0l-51 699h84l26 -389h3l34 389h70l38 -389h2l26 389h78l-52 -699h-86l-40 344h-1l-34 -344h-97z" />
    <glyph glyph-name="X" unicode="X" horiz-adv-x="245" 
d="M169 346l73 -346h-90l-34 166l-31 -166h-85l73 372l-73 327h88l33 -145l28 145h89z" />
    <glyph glyph-name="Y" unicode="Y" horiz-adv-x="246" 
d="M168 254l-1 -254h-88v254l-77 445h89l30 -243h4l30 243h89z" />
    <glyph glyph-name="Z" unicode="Z" horiz-adv-x="233" 
d="M226 0h-219v66l120 567h-101v66h190v-66l-120 -567h130v-66z" />
    <glyph glyph-name="bracketleft" unicode="[" horiz-adv-x="209" 
d="M13 -56v811h154v-74h-65v-663h65v-74h-154z" />
    <glyph glyph-name="backslash" unicode="\" horiz-adv-x="235" 
d="M232 0h-74l-156 699h75z" />
    <glyph glyph-name="bracketright" unicode="]" horiz-adv-x="209" 
d="M42 -56v74h65v663h-65v74h154v-811h-154z" />
    <glyph glyph-name="asciicircum" unicode="^" horiz-adv-x="278" 
d="M184 414l-4 2l-40 147h-3l-40 -147l-3 -2h-78l-2 3l76 282h97l77 -282l-2 -3h-78z" />
    <glyph glyph-name="underscore" unicode="_" horiz-adv-x="329" 
d="M315 0h-301v60h301v-60z" />
    <glyph glyph-name="grave" unicode="`" horiz-adv-x="162" 
d="M84 583l-60 86h78l36 -86h-54z" />
    <glyph glyph-name="a" unicode="a" 
d="M69 -3c-13.333 0 -23.668 2.33301 -31.001 7s-13 11.334 -17 20.001s-6.5 19.167 -7.5 31.5s-1.5 26.166 -1.5 41.499v80c0 30.667 4 55 12 73s25 27 51 27h2c16.667 0 33.334 -6.33301 50.001 -19v138c0 22 -5.33301 33 -16 33h-2c-10 0 -15 -11 -15 -33v-105h-82v107
c0 31.333 8.5 55.833 25.5 73.5s38.5 26.5 64.5 26.5h18c26 0 47.333 -8.83301 64 -26.5s25 -42.5 25 -74.5v-397h-82v17c-9.33301 -6 -18.5 -10.833 -27.5 -14.5s-17.833 -5.5 -26.5 -5.5h-4zM108.998 216c-10 0 -15 -11 -15 -33v-92c0 -22 5 -33 15 -33h1
c10.667 0 16.334 8.66699 17.001 26v121c-0.666992 3.33301 -2.33398 6 -5.00098 8s-4.66699 3 -6 3h-7z" />
    <glyph glyph-name="b" unicode="b" 
d="M141 -3c-18.667 0 -37 9.66699 -55 29l-8 -26h-66v699h82v-225c16 16 32.667 24 50 24h2c26.667 0 44 -9 52 -27s12 -42.333 12 -73v-301c0 -30.667 -4.5 -55 -13.5 -73s-26.5 -27 -52.5 -27h-3zM110 429c-9.33301 0 -14.667 -9.66699 -16 -29v-299
c0 -23.333 5.66699 -35 17 -35h2c9.33301 0 14 11 14 33v297c0 22 -5 33 -15 33h-2z" />
    <glyph glyph-name="c" unicode="c" 
d="M127 291v105c0 22 -5 33 -15 33h-2c-10.667 0 -16 -11 -16 -33v-297c0 -22 5 -33 15 -33h3c10 0 15 11 15 33v107h82v-108c0 -32 -8.5 -56.833 -25.5 -74.5s-38.5 -26.5 -64.5 -26.5h-19c-25.333 0 -46.333 9 -63 27s-25 42.667 -25 74v299c0 32 8.33301 56.833 25 74.5
s38 26.5 64 26.5h18c26 0 47.5 -8.83301 64.5 -26.5s25.5 -42.167 25.5 -73.5v-107h-82z" />
    <glyph glyph-name="d" unicode="d" horiz-adv-x="221" 
d="M77 -3c-26 0 -43.333 9 -52 27s-13 42.333 -13 73v301c0 30.667 4 55 12 73s25 27 51 27h2c16 0 32.667 -8 50 -24v225h82v-699h-66l-9 25c-8 -8.66699 -16.5 -15.5 -25.5 -20.5s-18.167 -7.5 -27.5 -7.5h-4zM109 429c-10 0 -15.001 -11 -15.001 -33v-297
c0 -22 5 -33 15 -33h1c11.333 0 17 11.667 17 35v299c-1.33301 19.333 -6.66602 29 -15.999 29h-2z" />
    <glyph glyph-name="e" unicode="e" 
d="M109 66h3c10 0 15 11 15 33v107h82v-108c0 -32 -8.5 -56.833 -25.5 -74.5s-38.5 -26.5 -64.5 -26.5h-19c-25.333 0 -46.333 9 -63 27s-25 42.667 -25 74v299c0 32 8.33301 56.833 25 74.5s38 26.5 64 26.5h18c26 0 47.5 -8.83301 64.5 -26.5s25.5 -42.167 25.5 -73.5
v-171h-115v-128c0 -22 5 -33 15 -33zM127 284v112c0 22 -5 33 -15 33h-2c-10.667 0 -16 -11 -16 -33v-112h33z" />
    <glyph glyph-name="f" unicode="f" horiz-adv-x="181" 
d="M35 0v425.999h-23v69h23v111c0 15.333 2.83301 29.833 8.5 43.5s14.5 25.167 26.5 34.5s27 15.833 45 19.5s39.333 2.83398 64 -2.49902v-66c-5.33301 0.666992 -11.5 0.666992 -18.5 0s-13.667 -2.16699 -20 -4.5s-11.833 -6 -16.5 -11s-7 -11.833 -7 -20.5v-104h62v-69
h-62v-426h-82z" />
    <glyph glyph-name="g" unicode="g" horiz-adv-x="220" 
d="M209 495l0.00195312 -559c0 -31.333 -8.33301 -56 -25 -74s-37.667 -27 -63 -27h-19c-26 0 -47.5 8.83301 -64.5 26.5s-25.5 42.5 -25.5 74.5v35h82v-34c0 -22 5 -33 15 -33h3c10 0 15 11 15 33v82c-16.667 -14.667 -33.334 -22 -50.001 -22h-2c-26 0 -43 9 -51 27
s-12 42.333 -12 73v301c0 30.667 4.33301 55 13 73s26 27 52 27h4c17.333 0 34.666 -8.66699 51.999 -26l10 23h66zM110.002 66c11.333 0 17 11.667 17 35v299c-1.33301 19.333 -7 29 -17 29h-1c-10 0 -15 -11 -15 -33v-297c0 -22 5 -33 15 -33h1z" />
    <glyph glyph-name="h" unicode="h" horiz-adv-x="223" 
d="M115 429c-11.333 0 -17.666 -10 -18.999 -30v-399h-82v699h82v-227c17.333 17.333 34.666 26 51.999 26h2c26 0 43 -9 51 -27s12 -42.333 12 -73v-398h-82v396c0 22 -5 33 -15 33h-1z" />
    <glyph glyph-name="i" unicode="i" horiz-adv-x="107" 
d="M96 495v-495h-82v495h82zM96 625v-96h-82v96h82z" />
    <glyph glyph-name="j" unicode="j" horiz-adv-x="144" 
d="M132 626v-97h-82v97h82zM132 495v-560c0 -30.667 -9 -55 -27 -73s-49 -27 -93 -27v69c11.333 0 20.5 2.5 27.5 7.5s10.5 12.833 10.5 23.5v560h82z" />
    <glyph glyph-name="k" unicode="k" horiz-adv-x="231" 
d="M146 258l83 -258h-83l-50 162v-162h-82v699h82v-358l53 154h79z" />
    <glyph glyph-name="l" unicode="l" horiz-adv-x="106" 
d="M14 699h82v-699h-82v699z" />
    <glyph glyph-name="m" unicode="m" horiz-adv-x="339" 
d="M113 429c-11.333 0 -17.6689 -10 -19.002 -30v-399h-82v495h82v-23c17.333 17.333 34.666 26 51.999 26h2c14.667 0 26.334 -3 35.001 -9s15.334 -14.333 20.001 -25c9.33301 10 19 18.167 29 24.5s20.333 9.5 31 9.5h2c26 0 43.167 -9 51.5 -27s12.5 -42.333 12.5 -73
v-398h-83v396c0 22 -4.66699 33 -14 33h-2c-5.33301 0 -9.66602 -2.5 -12.999 -7.5s-5 -12.833 -5 -23.5v-398h-83v396c0 22 -4.66699 33 -14 33h-2z" />
    <glyph glyph-name="n" unicode="n" horiz-adv-x="222" 
d="M113 429c-11.333 0 -17.666 -10 -18.999 -30v-399h-82v495h82v-23c17.333 17.333 34.666 26 51.999 26h2c26 0 43.167 -9 51.5 -27s12.5 -42.333 12.5 -73v-398h-83v396c0 22 -4.66699 33 -14 33h-2z" />
    <glyph glyph-name="o" unicode="o" 
d="M101 -3c-26 0 -47.333 9 -64 27s-25 42.333 -25 73v301c0 30.667 8.33301 55 25 73s38 27 64 27h18c26 0 47.5 -9 64.5 -27s25.5 -42.333 25.5 -73v-301c0 -30.667 -8.5 -55 -25.5 -73s-38.5 -27 -64.5 -27h-18zM110 429c-10.667 0 -16 -11 -16 -33v-297
c0 -22 5.33301 -33 16 -33h2c10 0 15 11 15 33v297c0 22 -5 33 -15 33h-2z" />
    <glyph glyph-name="p" unicode="p" horiz-adv-x="221" 
d="M146 498c26 0 43.501 -8.99902 52.501 -26.999s13.5 -42.333 13.5 -73v-301c0 -30.667 -4 -55 -12 -73s-25.333 -27 -52 -27h-2c-17.333 0 -34 8 -50 24v-186h-82v660h66l8 -27c8.66699 9.33301 17.667 16.666 27 21.999s18.666 8 27.999 8h3zM115.001 66.001
c9.33301 0 14 11 14 33v297c0 22 -4.66699 33 -14 33h-2c-10 0 -15.667 -9.66699 -17 -29v-306c1.33301 -18.667 7 -28 17 -28h2z" />
    <glyph glyph-name="q" unicode="q" horiz-adv-x="221" 
d="M81 498c18 0 35.667 -9.66699 53 -29l9 26h66v-660h-82v185c-8 -7.33301 -16.167 -13 -24.5 -17s-16.833 -6 -25.5 -6h-2c-26 0 -43 9 -51 27s-12 42.333 -12 73v301c0 30.667 4.33301 55 13 73s26 27 52 27h4zM110 66c11.333 0 17 11.667 17 35v299
c-1.33301 19.333 -7 29 -17 29h-1c-10 0 -15 -11 -15 -33v-297c0 -22 5 -33 15 -33h1z" />
    <glyph glyph-name="r" unicode="r" horiz-adv-x="221" 
d="M113 429c-11.333 0 -17.6641 -10.001 -18.9971 -30.001v-399h-82v495h82v-23c17.333 17.333 34.666 26 51.999 26h2c27.333 0 45.666 -11.333 54.999 -34c3.33301 -8 5.66602 -17.667 6.99902 -29s2 -23.666 2 -36.999v-107h-83v105c0 22 -4.66699 33 -14 33h-2z" />
    <glyph glyph-name="s" unicode="s" 
d="M127 300l-0.00195312 96c0 9.33301 -1.33301 17.166 -4 23.499s-6.66699 9.5 -12 9.5h-2c-5.33301 0 -9.16602 -3.16699 -11.499 -9.5s-3.5 -14.166 -3.5 -23.499v-43c0 -21.333 6 -39 18 -53s25.167 -28 39.5 -42s27.5 -29.333 39.5 -46s18 -38 18 -64v-51
c0 -30.667 -8.5 -55 -25.5 -73s-38.5 -27 -64.5 -27h-17c-26.667 0 -48.334 9 -65.001 27s-25 42.333 -25 73v98h74v-96c0 -22 6.33301 -33 19 -33h3c12.667 0 19 11 19 33v43c0 20.667 -6 38.167 -18 52.5s-25.167 28.5 -39.5 42.5s-27.5 29.333 -39.5 46s-18 38 -18 64v51
c0 30 8.33301 54.167 25 72.5s38.334 27.5 65.001 27.5h9c26.667 0 48.334 -9 65.001 -27s25 -42.333 25 -73v-98h-74z" />
    <glyph glyph-name="t" unicode="t" horiz-adv-x="159" 
d="M114 657l-0.00195312 -161.999h37v-69h-37v-329c0 -12.667 3.33301 -22 10 -28s15.667 -7.33301 27 -4v-66c-22 -3.33301 -40.667 -2.83301 -56 1.5s-27.666 11 -36.999 20s-16.166 20.167 -20.499 33.5s-6.5 27.666 -6.5 42.999v329h-23v69h23v154z" />
    <glyph glyph-name="u" unicode="u" horiz-adv-x="221" 
d="M109 66c5.33301 0 9.66699 3 13 9s5 14.667 5 26v394h83v-495h-83v22c-16.667 -16.667 -33.667 -25 -51 -25h-3c-26 0 -43 9 -51 27s-12 42.333 -12 73v398h82v-396c0 -22 5 -33 15 -33h2z" />
    <glyph glyph-name="v" unicode="v" horiz-adv-x="203" 
d="M132 495h69l-48 -495h-101l-50 495h76l25 -323h4z" />
    <glyph glyph-name="w" unicode="w" horiz-adv-x="345" 
d="M53 0l-51 495h77l25 -275h2l34 275h71l35 -275h2l26 275h69l-51 -495h-89l-34 312h-2l-26 -312h-88z" />
    <glyph glyph-name="x" unicode="x" horiz-adv-x="235" 
d="M154 260l79 -260h-82l-37 133l-38 -133h-74l74 251l-72 244h80l33 -114l33 114h74z" />
    <glyph glyph-name="y" unicode="y" horiz-adv-x="204" 
d="M135 495h67l-62 -660h-81l19 165l-76 495h75l28 -268h3z" />
    <glyph glyph-name="z" unicode="z" horiz-adv-x="201" 
d="M197 0h-195v67l115 362h-105v66h186v-66l-115 -362h114v-67z" />
    <glyph glyph-name="braceleft" unicode="{" horiz-adv-x="237" 
d="M21 391c18 0 29.5 6 34.5 18s7.5 25.667 7.5 41v198c0 21.333 2.83301 39.333 8.5 54s13.167 26.667 22.5 36s20 16.166 32 20.499s24.333 6.5 37 6.5h34v-74h-3c-9.33301 0 -16.833 -1.66699 -22.5 -5s-10 -7.83301 -13 -13.5s-4.83301 -12 -5.5 -19
s-1 -14.167 -1 -21.5v-179c0 -17.333 -2.66699 -32 -8 -44s-12.166 -21.833 -20.499 -29.5s-18.166 -13.167 -29.499 -16.5s-23 -5.33301 -35 -6c12 -0.666992 23.667 -2.83398 35 -6.50098s21.166 -9.16699 29.499 -16.5s15.166 -17 20.499 -29s8 -26.667 8 -44v-179
c0 -7.33301 0.333008 -14.666 1 -21.999s2.5 -13.666 5.5 -18.999s7.33301 -9.66602 13 -12.999s13.167 -5 22.5 -5h3v-74h-34c-12.667 0 -25 2.16699 -37 6.5s-22.667 11.166 -32 20.499s-16.833 21.333 -22.5 36s-8.5 32.667 -8.5 54v198c0 15.333 -2.5 29 -7.5 41
s-16.5 18 -34.5 18h-11v68h11z" />
    <glyph glyph-name="bar" unicode="|" horiz-adv-x="126" 
d="M22 729h82v-759h-82v759z" />
    <glyph glyph-name="braceright" unicode="}" horiz-adv-x="237" 
d="M227 391l-0.000976562 -68.0029h-11c-18 0 -29.5 -6 -34.5 -18s-7.5 -25.667 -7.5 -41v-198c0 -21.333 -2.83301 -39.333 -8.5 -54s-13.167 -26.667 -22.5 -36s-20 -16.166 -32 -20.499s-24.333 -6.5 -37 -6.5h-34v74h3c18.667 0 30.334 6 35.001 18s7 25.667 7 41v179
c0 17.333 2.66699 32 8 44s12.333 21.667 21 29s18.5 12.833 29.5 16.5s22.167 5.83398 33.5 6.50098c-11.333 0.666992 -22.5 2.66699 -33.5 6s-20.833 8.83301 -29.5 16.5s-15.667 17.5 -21 29.5s-8 26.667 -8 44v179c0 7.33301 -0.333008 14.5 -1 21.5
s-2.5 13.333 -5.5 19s-7.33301 10.167 -13 13.5s-13.167 5 -22.5 5h-3v74h34c12.667 0 25 -2.16699 37 -6.5s22.667 -11.166 32 -20.499s16.833 -21.333 22.5 -36s8.5 -32.667 8.5 -54v-198c0 -15.333 2.5 -29 7.5 -41s16.5 -18 34.5 -18h11z" />
    <glyph glyph-name="asciitilde" unicode="~" horiz-adv-x="308" 
d="M14 234c13.333 23.333 26.002 39.667 38.002 49s25.333 14 40 14c9.33301 0 18.166 -1.66699 26.499 -5s16.5 -6.83301 24.5 -10.5l24 -10.5c8 -3.33301 16.667 -5 26 -5c8 0 15 2.16699 21 6.5s14.333 13.166 25 26.499l55 -43
c-12.667 -25.333 -25.334 -42.166 -38.001 -50.499s-27.667 -12.5 -45 -12.5c-9.33301 0 -18.333 1.66699 -27 5l-26 10.5l-24.5 10.5c-7.66699 3.33301 -15.167 5 -22.5 5c-8.66699 0 -16.167 -2 -22.5 -6s-14.5 -12.667 -24.5 -26z" />
    <glyph glyph-name="uni00A0" unicode="&#xa0;" horiz-adv-x="0" 
 />
    <glyph glyph-name="exclamdown" unicode="&#xa1;" horiz-adv-x="138" 
d="M114 595h-90v104h90v-104zM113 268v-268h-89v268l12 297h65z" />
    <glyph glyph-name="cent" unicode="&#xa2;" 
d="M127 291v105.002c0 22 -5 33 -15 33h-2c-10.667 0 -16 -11 -16 -33v-297c0 -22 5 -33 15 -33h3c10 0 15 11 15 33v107h82v-108c0 -27.333 -6.33301 -49.333 -19 -66s-29 -27.334 -49 -32.001v-62h-59v61c-21.333 3.33301 -38.333 13.666 -51 30.999s-19 40 -19 68v299
c0 28 6.5 50.5 19.5 67.5s30.167 27.5 51.5 31.5v61h59v-62c20 -4.66699 36.167 -15.5 48.5 -32.5s18.5 -38.5 18.5 -64.5v-107h-82z" />
    <glyph glyph-name="sterling" unicode="&#xa3;" horiz-adv-x="299" 
d="M13 318l55 -0.000976562v283c0 18 2.83301 33.5 8.5 46.5s13.167 23.833 22.5 32.5s20 15 32 19s24 6 36 6h19c12 0 24 -2 36 -6s22.667 -10.167 32 -18.5s16.833 -19.166 22.5 -32.499s8.5 -29 8.5 -47v-183h-88v170c0 15.333 -1.5 26.333 -4.5 33s-7.83301 10 -14.5 10
h-3c-6.66699 0 -11.5 -3.16699 -14.5 -9.5s-4.5 -17.5 -4.5 -33.5v-270h129v-76h-129v-42c0 -36.667 -1.83301 -64.5 -5.5 -83.5s-8.16699 -32.5 -13.5 -40.5h148v-76h-237v76h1c6 7.33301 10.667 20 14 38s5 46.333 5 85v43h-55v76z" />
    <glyph glyph-name="currency" unicode="&#xa4;" horiz-adv-x="359" 
d="M261 223c-25.333 -16.667 -52.667 -24.998 -82 -24.998c-30 0 -57.333 8.33301 -82 25l-40 -40l-44 44l40 40c-16 25.333 -24 52.666 -24 81.999s8.33301 56.666 25 81.999l-41 40l44 44l41 -40c11.333 7.33301 23.833 13.333 37.5 18s28.167 7 43.5 7
s29.833 -2.33301 43.5 -7s26.5 -10.667 38.5 -18l40 40l44 -44l-40 -40c7.33301 -12 13.333 -24.833 18 -38.5s7 -28.167 7 -43.5s-2.33301 -29.833 -7 -43.5s-10.667 -26.5 -18 -38.5l40 -40l-44 -44zM94.999 349.002c0 -24.667 8 -45 24 -61s36 -24 60 -24
c24.667 0 44.834 8 60.501 24s23.5 36.333 23.5 61c0 24 -7.83301 44 -23.5 60s-35.834 24 -60.501 24c-24 0 -44 -8 -60 -24s-24 -36 -24 -60z" />
    <glyph glyph-name="yen" unicode="&#xa5;" horiz-adv-x="247" 
d="M79 195v39h-68v60h61l-69 405h89l30 -243h3l30 243h89l-69 -405h56v-60h-62v-39h62v-60h-63v-135h-89v135h-68v60h68z" />
    <glyph glyph-name="brokenbar" unicode="&#xa6;" horiz-adv-x="126" 
d="M22 293h82v-323h-82v323zM22 729h82v-321h-82v321z" />
    <glyph glyph-name="section" unicode="&#xa7;" 
d="M127 456l-0.00488281 147c0 9.33301 -1.33301 17.166 -4 23.499s-6.66699 9.5 -12 9.5h-2c-5.33301 0 -9.16602 -3.16699 -11.499 -9.5s-3.5 -14.166 -3.5 -23.499v-94c0 -21.333 6 -39.166 18 -53.499s25.167 -28.5 39.5 -42.5s27.5 -29.333 39.5 -46s18 -38 18 -64v-56
c0 -23.333 -5.16699 -43.333 -15.5 -60s-24.166 -28.334 -41.499 -35.001c14 -14 27 -29.333 39 -46s18 -37.667 18 -63v-114c0 -30.667 -8.5 -55 -25.5 -73s-38.5 -27 -64.5 -27h-17c-26.667 0 -48.334 9 -65.001 27s-25 42.333 -25 73v162h74v-160
c0 -22 6.33301 -33 19 -33h3c12.667 0 19 11 19 33v107c0 20.667 -6 38 -18 52s-25.167 28 -39.5 42s-27.5 29.5 -39.5 46.5s-18 38.5 -18 64.5v59c0 22.667 4.83301 42 14.5 58s22.834 27.667 39.501 35c-13.333 13.333 -25.666 28.333 -36.999 45s-17 37.667 -17 63v102
c0 30 8.33301 54.167 25 72.5s38.334 27.5 65.001 27.5h9c26.667 0 48.334 -9 65.001 -27s25 -42.333 25 -73v-149h-74zM126.995 300c0 8.66699 -1.66797 17.332 -5.00098 25.999c-3.33301 4.66699 -7 7 -11 7h-2c-5.33301 0 -9.16602 -3.16699 -11.499 -9.5
s-3.5 -14.166 -3.5 -23.499v-51c0 -12 2 -23 6 -33h5h3c12.667 0 19 11 19 33v51z" />
    <glyph glyph-name="dieresis" unicode="&#xa8;" horiz-adv-x="199" 
d="M82 592h-58v71h58v-71zM175 592h-58v71h58v-71z" />
    <glyph glyph-name="copyright" unicode="&#xa9;" horiz-adv-x="499" 
d="M12 348c0 48 3.66699 93.333 11 136s20.166 79.834 38.499 111.501s43.333 56.667 75 75s71.5 27.5 119.5 27.5s87.333 -9.16699 118 -27.5s54.5 -43.333 71.5 -75s28.667 -68.834 35 -111.501s9.5 -88 9.5 -136s-3.16699 -93.333 -9.5 -136s-18 -79.834 -35 -111.501
s-40.833 -56.667 -71.5 -75s-70 -27.5 -118 -27.5s-87.833 9.16699 -119.5 27.5s-56.667 43.333 -75 75s-31.166 68.834 -38.499 111.501s-11 88 -11 136zM65 348c0 -40 2.33301 -77.833 7 -113.5s13.834 -66.834 27.501 -93.501s33 -47.667 58 -63s57.5 -23 97.5 -23
s72 7.66699 96 23s42.333 36.333 55 63s21 57.834 25 93.501s6 73.5 6 113.5s-2 77.833 -6 113.5s-12.333 66.834 -25 93.501s-31 47.667 -55 63s-56 23 -96 23s-72.5 -7.66699 -97.5 -23s-44.333 -36.333 -58 -63s-22.834 -57.834 -27.501 -93.501s-7 -73.5 -7 -113.5z
M272 394v65c0 22 -5 33 -15 33h-2c-10.667 0 -16 -11 -16 -33v-217c0 -22 5 -33 15 -33h3c10 0 15 11 15 33v67h82v-68c0 -32 -8.5 -56.833 -25.5 -74.5s-38.5 -26.5 -64.5 -26.5h-19c-25.333 0 -46.333 9 -63 27s-25 42.667 -25 74v219c0 32 8.33301 56.833 25 74.5
s38 26.5 64 26.5h18c26 0 47.5 -8.83301 64.5 -26.5s25.5 -42.167 25.5 -73.5v-67h-82z" />
    <glyph glyph-name="ordfeminine" unicode="&#xaa;" horiz-adv-x="146" 
d="M48 392c-16.667 0 -26.833 5.50098 -30.5 16.501s-5.5 26.167 -5.5 45.5v51c0 19.333 2.33301 34.666 7 45.999s15.667 17 33 17h1c8.66699 0 18.667 -4 30 -12v85c0 14.667 -3.33301 22 -10 22h-1c-5.33301 0 -8 -7.33301 -8 -22v-66h-52v68
c0 19.333 5.16699 34.5 15.5 45.5s24.166 16.5 41.499 16.5h10c16.667 0 30.334 -5.66699 41.001 -17s16 -27 16 -47v-246h-53v8c-11.333 -7.33301 -22.333 -11 -33 -11h-2zM72.001 529.001c-5.33301 0 -8.00195 -7 -8.00195 -21v-57c0 -14 2.66699 -21 8 -21
c6.66699 0 10.334 5.33301 11.001 16v76c-0.666992 2.66699 -1.66699 4.5 -3 5.5s-2.66602 1.5 -3.99902 1.5h-4z" />
    <glyph glyph-name="guillemotleft" unicode="&#xab;" horiz-adv-x="272" 
d="M62 39l-48 203l46 201h77l-46 -202l49 -202h-78zM180 39l-48 203l46 201h77l-46 -202l49 -202h-78z" />
    <glyph glyph-name="logicalnot" unicode="&#xac;" horiz-adv-x="330" 
d="M316 220h-65v100h-237v60h302v-160z" />
    <glyph glyph-name="registered" unicode="&#xae;" horiz-adv-x="314" 
d="M14 526c0 24.667 3 47.834 9 69.501s15 40.667 27 57s27 29.166 45 38.499s39.333 14 64 14s45.834 -4.66699 63.501 -14s32.334 -22.166 44.001 -38.499s20.167 -35.333 25.5 -57s8 -44.834 8 -69.501s-2.66699 -47.834 -8 -69.501s-13.833 -40.667 -25.5 -57
s-26.334 -29.166 -44.001 -38.499s-38.834 -14 -63.501 -14s-46 4.66699 -64 14s-33 22.166 -45 38.499s-21 35.333 -27 57s-9 44.834 -9 69.501zM51 526c0 -20 1.83301 -39 5.5 -57s9.66699 -33.667 18 -47s19.5 -24 33.5 -32s31 -12 51 -12s36.667 4 50 12
s24 18.667 32 32s13.5 29 16.5 47s4.5 37 4.5 57s-1.5 39 -4.5 57s-8.5 33.667 -16.5 47s-18.667 24 -32 32s-30 12 -50 12s-37 -4 -51 -12s-25.167 -18.667 -33.5 -32s-14.333 -29 -18 -47s-5.5 -37 -5.5 -57zM211 551c0 -16 -5.33301 -27 -16 -33
c5.33301 -1.33301 9.33301 -5 12 -11s4 -12.667 4 -20v-55h-39v43c0 14 -3.66699 21 -11 21h-9v-64h-41v199h61c14 0 24 -5.33301 30 -16s9 -24.667 9 -42v-22zM162 537c6.66699 0 10 7.33301 10 22v11c0 14 -3.66699 21 -11 21h-9v-54h10z" />
    <glyph glyph-name="macron" unicode="&#xaf;" horiz-adv-x="211" 
d="M175 597h-145v61h145v-61z" />
    <glyph glyph-name="degree" unicode="&#xb0;" horiz-adv-x="118" 
d="M58 605c-12.667 0 -23.5 4.5 -32.5 13.5s-13.5 19.833 -13.5 32.5c0 13.333 4.5 24.666 13.5 33.999s19.833 14 32.5 14c13.333 0 24.666 -4.66699 33.999 -14s14 -20.666 14 -33.999c0 -12.667 -4.66699 -23.5 -14 -32.5s-20.666 -13.5 -33.999 -13.5zM58 680
c-7.33301 0 -13.666 -2.83301 -18.999 -8.5s-8 -12.5 -8 -20.5c0 -7.33301 2.66699 -13.666 8 -18.999s11.666 -8 18.999 -8c8 0 14.833 2.66699 20.5 8s8.5 11.666 8.5 18.999c0 8 -2.83301 14.833 -8.5 20.5s-12.5 8.5 -20.5 8.5z" />
    <glyph glyph-name="plusminus" unicode="&#xb1;" horiz-adv-x="298" 
d="M114 464v118h68v-118h102v-60h-102v-118h-68v118h-100v60h100zM251 48h-204v60h204v-60z" />
    <glyph glyph-name="twosuperior" unicode="&#xb2;" horiz-adv-x="121" 
d="M12 577v82.001c0 16 4.33301 27.667 13 35s18.667 11 30 11h6c10.667 0 20.667 -3.66699 30 -11s14 -19 14 -35v-48c0 -15.333 -2.83301 -28.833 -8.5 -40.5l-18 -37.5c-6.33301 -13.333 -12.333 -28.333 -18 -45s-8.5 -37.334 -8.5 -62.001h56v-34h-96v33
c0 28 2.83301 51 8.5 69s11.667 33.667 18 47l18 37c5.66699 11.333 8.5 24.333 8.5 39v36c0 7.33301 -0.666992 12.333 -2 15s-3.33301 4 -6 4h-1c-5.33301 0 -8 -6.33301 -8 -19v-76h-36z" />
    <glyph glyph-name="threesuperior" unicode="&#xb3;" horiz-adv-x="120" 
d="M57 567c7.33301 0 11 7.33398 11 22.001v64c0 7.33301 -0.666992 12.166 -2 14.499s-3.33301 3.5 -6 3.5h-1c-3.33301 0 -5.5 -1 -6.5 -3s-1.5 -6.66699 -1.5 -14v-76h-39v82c0 15.333 4.5 26.666 13.5 33.999s18.833 11 29.5 11h8c11.333 0 21.666 -3.66699 30.999 -11
s14 -18.666 14 -33.999v-66c0 -13.333 -3.16699 -23.166 -9.5 -29.499s-13.833 -10.166 -22.5 -11.499c8.66699 -1.33301 16.167 -4.83301 22.5 -10.5s9.5 -14.834 9.5 -27.501v-78c0 -15.333 -4.66699 -26.666 -14 -33.999s-19.666 -11 -30.999 -11h-8
c-10.667 0 -20.5 3.66699 -29.5 11s-13.5 18.666 -13.5 33.999v82h39v-76c0 -7.33301 0.5 -12 1.5 -14s3.16699 -3 6.5 -3h1c3.33301 0 5.5 1.16699 6.5 3.5s1.5 7.16602 1.5 14.499v73c0 14.667 -3.66699 22 -11 22h-12v28h12z" />
    <glyph glyph-name="acute" unicode="&#xb4;" horiz-adv-x="162" 
d="M24 583l36 86h78l-60 -86h-54z" />
    <glyph glyph-name="mu" unicode="&#xb5;" horiz-adv-x="221" 
d="M210 0h-82.999v22c-12 -12 -23.667 -19.333 -35 -22v-164h-82v659h82v-396c0 -22 5 -33 15 -33h2c5.33301 0 9.66602 3 12.999 9s5 14.667 5 26v394h83v-495z" />
    <glyph glyph-name="paragraph" unicode="&#xb6;" horiz-adv-x="329" 
d="M248 633l-54 -0.00195312v-798h-66v554c-18.667 0 -35.167 4.66699 -49.5 14s-26.333 21.333 -36 36s-17 31.167 -22 49.5s-7.5 36.833 -7.5 55.5s2.5 37.334 7.5 56.001s12.333 35.334 22 50.001s21.667 26.5 36 35.5s30.833 13.5 49.5 13.5h187v-864h-67v798z" />
    <glyph glyph-name="periodcentered" unicode="&#xb7;" horiz-adv-x="138" 
d="M114 196h-90v103h90v-103z" />
    <glyph glyph-name="cedilla" unicode="&#xb8;" horiz-adv-x="181" 
d="M24 -104l8.00098 40c6 -4 13 -6.83301 21 -8.5s15.5 -2 22.5 -1s12.667 3.16699 17 6.5s6.16602 8 5.49902 14c-1.33301 7.33301 -6 11.833 -14 13.5s-15.667 -0.166016 -23 -5.49902l-17 7l20 38h49l-9 -22c12.667 5.33301 24.667 5.33301 36 0s17 -15 17 -29
c0 -18.667 -5.5 -33.167 -16.5 -43.5s-23.833 -17.333 -38.5 -21s-29.5 -4.33398 -44.5 -2.00098s-26.167 6.83301 -33.5 13.5z" />
    <glyph glyph-name="onesuperior" unicode="&#xb9;" horiz-adv-x="93" 
d="M39 392v248.001c-4 -0.666992 -8.83301 -1.33398 -14.5 -2.00098s-10.5 -1 -14.5 -1v30c8.66699 0 16.667 3.16699 24 9.5s11.333 13.833 12 22.5h33v-307h-40z" />
    <glyph glyph-name="ordmasculine" unicode="&#xba;" horiz-adv-x="123" 
d="M58 392c-11.333 0 -21.666 3.66699 -30.999 11s-14 19 -14 35v221c0 16 4.66699 27.667 14 35s19.666 11 30.999 11h7c11.333 0 21.5 -3.66699 30.5 -11s13.5 -19 13.5 -35v-221c0 -16 -4.5 -27.667 -13.5 -35s-19.167 -11 -30.5 -11h-7zM61 671c-5.33301 0 -8 -6 -8 -18
v-209c0 -12 2.66699 -18 8 -18h1c4.66699 0 7 6 7 18v209c0 12 -2.33301 18 -7 18h-1z" />
    <glyph glyph-name="guillemotright" unicode="&#xbb;" horiz-adv-x="272" 
d="M14 39l49 202l-46 202h77l46 -201l-48 -203h-78zM132 39l49 202l-46 202h77l46 -201l-48 -203h-78z" />
    <glyph glyph-name="onequarter" unicode="&#xbc;" horiz-adv-x="283" 
d="M223 699h42l-201 -699h-43zM260 74v-33h-15v-41h-34v41h-60l-1 33l47 231h47l1 -231h15zM49 392v248.001c-4 -0.666992 -8.66699 -1.33398 -14 -2.00098s-10.333 -1 -15 -1v30c8.66699 0 16.667 3.16699 24 9.5s11.333 13.833 12 22.5h33v-307h-40zM211 197.001h-1
l-22 -122v-1h23v123z" />
    <glyph glyph-name="onehalf" unicode="&#xbd;" horiz-adv-x="293" 
d="M223 699h42l-201 -699h-43zM49 392v248.001c-4 -0.666992 -8.66699 -1.33398 -14 -2.00098s-10.333 -1 -15 -1v30c8.66699 0 16.667 3.16699 24 9.5s11.333 13.833 12 22.5h33v-307h-40zM179 185.001l0.00195312 82.001c0 16 4.5 27.667 13.5 35s18.833 11 29.5 11h6
c11.333 0 21.666 -3.66699 30.999 -11s14 -19 14 -35v-48c0 -15.333 -2.83301 -28.833 -8.5 -40.5l-18.5 -37.5c-6.66699 -13.333 -12.834 -28.333 -18.501 -45s-8.5 -37.334 -8.5 -62.001h57v-34h-97v33c0 28 2.83301 51 8.5 69s11.667 33.667 18 47l18 37
c5.66699 11.333 8.5 24.333 8.5 39v36c0 7.33301 -0.5 12.333 -1.5 15s-3.16699 4 -6.5 4h-1c-5.33301 0 -8 -6.33301 -8 -19v-76h-36z" />
    <glyph glyph-name="threequarters" unicode="&#xbe;" horiz-adv-x="291" 
d="M223 699h42l-201 -699h-43zM223 171c7.33301 0 11 7.66699 11 23v66c0 7.33301 -0.666992 12.166 -2 14.499s-3.33301 3.5 -6 3.5h-2c-4.66699 0 -7 -5.66699 -7 -17v-79h-40v84c0 16 4.5 27.667 13.5 35s19.167 11 30.5 11h8c11.333 0 21.666 -3.66699 30.999 -11
s14 -19 14 -35v-67c0 -13.333 -3.16699 -23.333 -9.5 -30s-13.833 -10.667 -22.5 -12c8.66699 -1.33301 16.167 -4.66602 22.5 -9.99902s9.5 -14.666 9.5 -27.999v-80c0 -15.333 -4.66699 -26.666 -14 -33.999s-19.666 -11 -30.999 -11h-8c-11.333 0 -21.5 3.66699 -30.5 11
s-13.5 18.666 -13.5 33.999v84h40v-78c0 -7.33301 0.5 -12 1.5 -14s3.16699 -3 6.5 -3h1c2.66699 0 4.66699 1.16699 6 3.5s2 7.16602 2 14.499v75c0 14.667 -3.66699 22 -11 22h-12v28h12zM49 392v248.001c-4 -0.666992 -8.66699 -1.33398 -14 -2.00098s-10.333 -1 -15 -1
v30c8.66699 0 16.667 3.16699 24 9.5s11.333 13.833 12 22.5h33v-307h-40z" />
    <glyph glyph-name="questiondown" unicode="&#xbf;" horiz-adv-x="236" 
d="M223 116l0.000976562 -183.001c0 -18 -2.83301 -33.667 -8.5 -47s-13.167 -24.166 -22.5 -32.499s-20 -14.5 -32 -18.5s-24 -6 -36 -6h-10c-12.667 0 -25 2 -37 6s-22.833 10.167 -32.5 18.5s-17.334 19.166 -23.001 32.499s-8.5 29 -8.5 47v107
c0 22.667 2.66699 43.167 8 61.5s11.666 35.833 18.999 52.5s15.166 33 23.499 49s15.5 33.5 21.5 52.5s9.83301 40.167 11.5 63.5s0.166992 50.333 -4.5 81h89c4.66699 -35.333 6.16699 -66 4.5 -92s-5.5 -49.167 -11.5 -69.5s-13.167 -38.666 -21.5 -54.999
s-16.166 -32.5 -23.499 -48.5s-13.666 -32.667 -18.999 -50s-8 -37.333 -8 -60v-79c0 -16 1.5 -27.167 4.5 -33.5s7.5 -9.5 13.5 -9.5h4c6 0 10.5 3.33301 13.5 10s4.5 17.667 4.5 33v170h81zM90.001 533.999h91v-104h-91v104z" />
    <glyph glyph-name="Agrave" unicode="&#xc0;" horiz-adv-x="243" 
d="M156 0h85l-65 699h-113l-61 -699h77l14 180h48zM95 737l-60 86h78l36 -86h-54zM116 456h3l17 -209h-37z" />
    <glyph glyph-name="Aacute" unicode="&#xc1;" horiz-adv-x="243" 
d="M141 180h-48l-14 -180h-77l61 699h113l65 -699h-85zM93 737l36 86h77l-60 -86h-53zM99 247h37l-17 209h-3z" />
    <glyph glyph-name="Acircumflex" unicode="&#xc2;" horiz-adv-x="243" 
d="M141 180h-48l-14 -180h-77l61 699h113l65 -699h-85zM161 823l60 -86h-78l-22 43l-22 -43h-78l60 86h80zM99 247h37l-17 209h-3z" />
    <glyph glyph-name="Atilde" unicode="&#xc3;" horiz-adv-x="243" 
d="M156 0h85l-65 699h-113l-61 -699h77l14 180h48zM30 776c7.33301 14.667 15.502 24.999 24.502 30.999s17.5 9 25.5 9c12 0 23.167 -3 33.5 -9s21.5 -9 33.5 -9c4.66699 0 8.66699 1 12 3s7.66602 5.66699 12.999 11l40 -25c-8 -15.333 -16.667 -25.666 -26 -30.999
s-18.333 -8 -27 -8c-12.667 0 -23.834 2.83301 -33.501 8.5s-19.5 8.5 -29.5 8.5c-4.66699 0 -9.5 -0.833008 -14.5 -2.5s-10.167 -5.5 -15.5 -11.5zM116.002 455.999h3l17 -209h-37z" />
    <glyph glyph-name="Adieresis" unicode="&#xc4;" horiz-adv-x="243" 
d="M156 0h85l-65 699h-113l-61 -699h77l14 180h48zM104 746h-59v71h59v-71zM116 456h3l17 -209h-37zM196 746h-58v71h58v-71z" />
    <glyph glyph-name="Aring" unicode="&#xc5;" horiz-adv-x="243" 
d="M156 0h85l-65 699h-113l-61 -699h77l14 180h48zM120 726c-8 0 -16.002 1.83203 -24.002 5.49902s-15.167 8.5 -21.5 14.5s-11.333 13 -15 21s-5.5 16.333 -5.5 25c0 9.33301 1.83301 18.166 5.5 26.499s8.5 15.833 14.5 22.5s13 11.834 21 15.501s16.333 5.5 25 5.5
c18.667 0 34.834 -6.83301 48.501 -20.5s20.5 -30.167 20.5 -49.5c0 -17.333 -6.66699 -32.666 -20 -45.999s-29.666 -20 -48.999 -20zM115.998 455.999h3l17 -209h-37zM119.998 815.999c-5.33301 0 -10.333 -2.33301 -15 -7s-7 -10 -7 -16
c0 -5.33301 2.33301 -10.333 7 -15s9.66699 -7 15 -7c6 0 11.333 2.33301 16 7s7 9.66699 7 15c0 6 -2.33301 11.333 -7 16s-10 7 -16 7z" />
    <glyph glyph-name="AE" unicode="&#xc6;" horiz-adv-x="340" 
d="M241 625v-243h67v-66h-67v-242h92v-74h-181v180h-61l-12 -180h-77l61 699h263v-74h-85zM95 247h57v378h-32z" />
    <glyph glyph-name="Ccedilla" unicode="&#xc7;" horiz-adv-x="244" 
d="M59 -110l7.99805 40c6 -4 13 -6.83301 21 -8.5s15.5 -2 22.5 -1s12.5 3.16699 16.5 6.5s5.66699 8 5 14c-1.33301 7.33301 -6 11.833 -14 13.5s-15.333 -0.166016 -22 -5.49902l-18 7l20 38h7c-11.333 0.666992 -22.5 3.16699 -33.5 7.5s-20.833 10.833 -29.5 19.5
s-15.667 19.334 -21 32.001s-8 27.667 -8 45v503c0 18 2.83301 33.667 8.5 47s13.334 24.166 23.001 32.499s20.5 14.5 32.5 18.5s24 6 36 6h18c12.667 0 25 -2 37 -6s22.667 -10.167 32 -18.5s16.833 -19.166 22.5 -32.499s8.5 -29 8.5 -47v-183h-89v170
c0 15.333 -1.5 26.333 -4.5 33s-7.5 10 -13.5 10h-4c-6 0 -10.5 -3.16699 -13.5 -9.5s-4.5 -17.5 -4.5 -33.5v-477c0 -28.667 6 -43 18 -43h4c12 0 18 14.333 18 43v172h89v-185c0 -17.333 -2.66699 -32.333 -8 -45s-12.166 -23.334 -20.499 -32.001
s-18.166 -15.167 -29.499 -19.5s-23 -6.83301 -35 -7.5h9l-8 -22c12.667 5.33301 24.5 5.33301 35.5 0s16.5 -15 16.5 -29c0 -18.667 -5.5 -33.167 -16.5 -43.5s-23.833 -17.333 -38.5 -21s-29.334 -4.33398 -44.001 -2.00098s-25.667 6.83301 -33 13.5z" />
    <glyph glyph-name="Egrave" unicode="&#xc8;" horiz-adv-x="202" 
d="M188 625v74h-174v-699h181v74h-92v242h67v66h-67v243h85zM79 737l-60 86h78l36 -86h-54z" />
    <glyph glyph-name="Eacute" unicode="&#xc9;" horiz-adv-x="202" 
d="M103 625v-243h67v-66h-67v-242h92v-74h-181v699h174v-74h-85zM77 737l36 86h77l-60 -86h-53z" />
    <glyph glyph-name="Ecircumflex" unicode="&#xca;" horiz-adv-x="202" 
d="M103 625v-243h67v-66h-67v-242h92v-74h-181v699h174v-74h-85zM145 823l60 -86h-78l-22 43l-22 -43h-78l60 86h80z" />
    <glyph glyph-name="Edieresis" unicode="&#xcb;" horiz-adv-x="202" 
d="M188 625v74h-174v-699h181v74h-92v242h67v66h-67v243h85zM88 746h-59v71h59v-71zM180 746h-58v71h58v-71z" />
    <glyph glyph-name="Igrave" unicode="&#xcc;" horiz-adv-x="117" 
d="M14 699v-699h89v699h-89zM33 740l-60 86h78l36 -86h-54z" />
    <glyph glyph-name="Iacute" unicode="&#xcd;" horiz-adv-x="117" 
d="M103 699v-699h-89v699h89zM31 740l36 86h77l-60 -86h-53z" />
    <glyph glyph-name="Icircumflex" unicode="&#xce;" horiz-adv-x="117" 
d="M103 699v-699h-89v699h89zM99 826l60 -86h-78l-22 43l-22 -43h-78l60 86h80z" />
    <glyph glyph-name="Idieresis" unicode="&#xcf;" horiz-adv-x="117" 
d="M14 699v-699h89v699h-89zM42 748h-59v72h59v-72zM134 748h-58v72h58v-72z" />
    <glyph glyph-name="Eth" unicode="&#xd0;" horiz-adv-x="245" 
d="M14 0v319h-19v62h19v318h118c12 0 24 -2 36 -6s22.833 -10.167 32.5 -18.5s17.334 -19 23.001 -32s8.5 -28.5 8.5 -46.5v-493c0 -18 -2.83301 -33.5 -8.5 -46.5s-13.334 -23.667 -23.001 -32s-20.5 -14.5 -32.5 -18.5s-24 -6 -36 -6h-118zM103 625v-243.998h16v-62h-16
v-245h22c6 0 10.5 3.16699 13.5 9.5s4.5 17.166 4.5 32.499v467c0 15.333 -1.5 26.166 -4.5 32.499s-7.5 9.5 -13.5 9.5h-22z" />
    <glyph glyph-name="Ntilde" unicode="&#xd1;" horiz-adv-x="276" 
d="M165 0l-76 422h-2v-422h-74v699h99l70 -412h1v412h80v-699h-98zM48 776c7.33301 14.667 15.502 24.999 24.502 30.999s17.5 9 25.5 9c12 0 23.167 -3 33.5 -9s21.5 -9 33.5 -9c4.66699 0 8.66699 1 12 3s7.66602 5.66699 12.999 11l40 -25
c-8 -15.333 -16.667 -25.666 -26 -30.999s-18.333 -8 -27 -8c-12.667 0 -23.834 2.83301 -33.501 8.5s-19.5 8.5 -29.5 8.5c-4.66699 0 -9.5 -0.833008 -14.5 -2.5s-10.167 -5.5 -15.5 -11.5z" />
    <glyph glyph-name="Ograve" unicode="&#xd2;" horiz-adv-x="244" 
d="M113 -6c-12 0 -24 2 -36 6s-22.833 10.167 -32.5 18.5s-17.334 19.166 -23.001 32.499s-8.5 29 -8.5 47v503c0 18 2.83301 33.667 8.5 47s13.334 24.166 23.001 32.499s20.5 14.5 32.5 18.5s24 6 36 6h18c12.667 0 25 -2 37 -6s22.667 -10.167 32 -18.5
s16.833 -19.166 22.5 -32.499s8.5 -29 8.5 -47v-503c0 -18 -2.83301 -33.667 -8.5 -47s-13.167 -24.166 -22.5 -32.499s-20 -14.5 -32 -18.5s-24.333 -6 -37 -6h-18zM120 631c-12 0 -18 -14.333 -18 -43v-477c0 -28.667 6 -43 18 -43h4c12 0 18 14.333 18 43v477
c0 28.667 -6 43 -18 43h-4zM97 737l-60 86h77l36 -86h-53z" />
    <glyph glyph-name="Oacute" unicode="&#xd3;" horiz-adv-x="244" 
d="M113 -6c-12 0 -24 2 -36 6s-22.833 10.167 -32.5 18.5s-17.334 19.166 -23.001 32.499s-8.5 29 -8.5 47v503c0 18 2.83301 33.667 8.5 47s13.334 24.166 23.001 32.499s20.5 14.5 32.5 18.5s24 6 36 6h18c12.667 0 25 -2 37 -6s22.667 -10.167 32 -18.5
s16.833 -19.166 22.5 -32.499s8.5 -29 8.5 -47v-503c0 -18 -2.83301 -33.667 -8.5 -47s-13.167 -24.166 -22.5 -32.499s-20 -14.5 -32 -18.5s-24.333 -6 -37 -6h-18zM120 631c-12 0 -18 -14.333 -18 -43v-477c0 -28.667 6 -43 18 -43h4c12 0 18 14.333 18 43v477
c0 28.667 -6 43 -18 43h-4zM94 737l36 86h78l-60 -86h-54z" />
    <glyph glyph-name="Ocircumflex" unicode="&#xd4;" horiz-adv-x="244" 
d="M113 -6c-12 0 -24 2 -36 6s-22.833 10.167 -32.5 18.5s-17.334 19.166 -23.001 32.499s-8.5 29 -8.5 47v503c0 18 2.83301 33.667 8.5 47s13.334 24.166 23.001 32.499s20.5 14.5 32.5 18.5s24 6 36 6h18c12.667 0 25 -2 37 -6s22.667 -10.167 32 -18.5
s16.833 -19.166 22.5 -32.499s8.5 -29 8.5 -47v-503c0 -18 -2.83301 -33.667 -8.5 -47s-13.167 -24.166 -22.5 -32.499s-20 -14.5 -32 -18.5s-24.333 -6 -37 -6h-18zM120 631c-12 0 -18 -14.333 -18 -43v-477c0 -28.667 6 -43 18 -43h4c12 0 18 14.333 18 43v477
c0 28.667 -6 43 -18 43h-4zM163 823l60 -86h-78l-23 44l-22 -44h-78l60 86h81z" />
    <glyph glyph-name="Otilde" unicode="&#xd5;" horiz-adv-x="244" 
d="M113 -6c-12 0 -24 2 -36 6s-22.833 10.167 -32.5 18.5s-17.334 19.166 -23.001 32.499s-8.5 29 -8.5 47v503c0 18 2.83301 33.667 8.5 47s13.334 24.166 23.001 32.499s20.5 14.5 32.5 18.5s24 6 36 6h18c12.667 0 25 -2 37 -6s22.667 -10.167 32 -18.5
s16.833 -19.166 22.5 -32.499s8.5 -29 8.5 -47v-503c0 -18 -2.83301 -33.667 -8.5 -47s-13.167 -24.166 -22.5 -32.499s-20 -14.5 -32 -18.5s-24.333 -6 -37 -6h-18zM120 631c-12 0 -18 -14.333 -18 -43v-477c0 -28.667 6 -43 18 -43h4c12 0 18 14.333 18 43v477
c0 28.667 -6 43 -18 43h-4zM32 776c7.33301 14.667 15.5 24.999 24.5 30.999s17.5 9 25.5 9c12 0 23 -3 33 -9s21 -9 33 -9c4.66699 0 8.83398 1 12.501 3s8.16699 5.66699 13.5 11l40 -25c-8.66699 -15.333 -17.5 -25.666 -26.5 -30.999s-18.167 -8 -27.5 -8
c-12.667 0 -23.834 2.83301 -33.501 8.5s-19.167 8.5 -28.5 8.5c-5.33301 0 -10.333 -0.833008 -15 -2.5s-9.66699 -5.5 -15 -11.5z" />
    <glyph glyph-name="Odieresis" unicode="&#xd6;" horiz-adv-x="244" 
d="M113 -6c-12 0 -24 2 -36 6s-22.833 10.167 -32.5 18.5s-17.334 19.166 -23.001 32.499s-8.5 29 -8.5 47v503c0 18 2.83301 33.667 8.5 47s13.334 24.166 23.001 32.499s20.5 14.5 32.5 18.5s24 6 36 6h18c12.667 0 25 -2 37 -6s22.667 -10.167 32 -18.5
s16.833 -19.166 22.5 -32.499s8.5 -29 8.5 -47v-503c0 -18 -2.83301 -33.667 -8.5 -47s-13.167 -24.166 -22.5 -32.499s-20 -14.5 -32 -18.5s-24.333 -6 -37 -6h-18zM120 631c-12 0 -18 -14.333 -18 -43v-477c0 -28.667 6 -43 18 -43h4c12 0 18 14.333 18 43v477
c0 28.667 -6 43 -18 43h-4zM105 746h-58v71h58v-71zM198 746h-59v71h59v-71z" />
    <glyph glyph-name="multiply" unicode="&#xd7;" horiz-adv-x="262" 
d="M83 350l-81 81l48 47l80 -81l81 81l48 -47l-81 -81l81 -81l-48 -47l-81 80l-80 -80l-48 47z" />
    <glyph glyph-name="Oslash" unicode="&#xd8;" horiz-adv-x="323" 
d="M152 -6c-14 0 -27.668 2.49902 -41.001 7.49902s-25 13.167 -35 24.5l-12 -36h-50l38 111v500c0 18 2.83301 33.667 8.5 47s13.334 24.166 23.001 32.499s20.5 14.5 32.5 18.5s24 6 36 6h18c14 0 27.833 -2.66699 41.5 -8s25.167 -13.666 34.5 -24.999l13 37h50l-39 -115
v-496c0 -18 -2.83301 -33.667 -8.5 -47s-13.167 -24.166 -22.5 -32.499s-20 -14.5 -32 -18.5s-24.333 -6 -37 -6h-18zM158.999 630.999c-12 0 -18 -14.333 -18 -43v-226l40 118v108c0 28.667 -6 43 -18 43h-4zM158.999 67.999h4c12 0 18 14.333 18 43v222l-40 -118v-104
c0 -28.667 6 -43 18 -43z" />
    <glyph glyph-name="Ugrave" unicode="&#xd9;" horiz-adv-x="245" 
d="M114 -6c-12 0 -23.999 2 -35.999 6s-22.833 10.167 -32.5 18.5s-17.334 19.166 -23.001 32.499s-8.5 29 -8.5 47v601h89v-588c0 -28.667 6 -43 18 -43h4c12 0 18 14.333 18 43v588h89v-601c0 -18 -2.83301 -33.667 -8.5 -47s-13.167 -24.166 -22.5 -32.499
s-20 -14.5 -32 -18.5s-24.333 -6 -37 -6h-18zM97.001 737l-60 86h78l36 -86h-54z" />
    <glyph glyph-name="Uacute" unicode="&#xda;" horiz-adv-x="245" 
d="M114 -6c-12 0 -23.999 2 -35.999 6s-22.833 10.167 -32.5 18.5s-17.334 19.166 -23.001 32.499s-8.5 29 -8.5 47v601h89v-588c0 -28.667 6 -43 18 -43h4c12 0 18 14.333 18 43v588h89v-601c0 -18 -2.83301 -33.667 -8.5 -47s-13.167 -24.166 -22.5 -32.499
s-20 -14.5 -32 -18.5s-24.333 -6 -37 -6h-18zM95.001 737l36 86h78l-60 -86h-54z" />
    <glyph glyph-name="Ucircumflex" unicode="&#xdb;" horiz-adv-x="245" 
d="M114 -6c-12 0 -23.999 2 -35.999 6s-22.833 10.167 -32.5 18.5s-17.334 19.166 -23.001 32.499s-8.5 29 -8.5 47v601h89v-588c0 -28.667 6 -43 18 -43h4c12 0 18 14.333 18 43v588h89v-601c0 -18 -2.83301 -33.667 -8.5 -47s-13.167 -24.166 -22.5 -32.499
s-20 -14.5 -32 -18.5s-24.333 -6 -37 -6h-18zM163.001 823l60 -86h-77l-23 44l-22 -44h-78l60 86h80z" />
    <glyph glyph-name="Udieresis" unicode="&#xdc;" horiz-adv-x="245" 
d="M114 -6c-12 0 -23.999 2 -35.999 6s-22.833 10.167 -32.5 18.5s-17.334 19.166 -23.001 32.499s-8.5 29 -8.5 47v601h89v-588c0 -28.667 6 -43 18 -43h4c12 0 18 14.333 18 43v588h89v-601c0 -18 -2.83301 -33.667 -8.5 -47s-13.167 -24.166 -22.5 -32.499
s-20 -14.5 -32 -18.5s-24.333 -6 -37 -6h-18zM106.001 746h-58v71h58v-71zM199.001 746h-59v71h59v-71z" />
    <glyph glyph-name="Yacute" unicode="&#xdd;" horiz-adv-x="246" 
d="M168 254l-1 -254h-88v254l-77 445h89l30 -243h4l30 243h89zM95 737l36 86h78l-60 -86h-54z" />
    <glyph glyph-name="Thorn" unicode="&#xde;" horiz-adv-x="235" 
d="M103 699v-101h28c26 0 47.5 -9 64.5 -27s25.5 -42.333 25.5 -73v-301c0 -30.667 -8.5 -55 -25.5 -73s-38.5 -27 -64.5 -27h-28v-97h-89v699h89zM103 529v-363h20c9.33301 0 14 11 14 33v297c0 22 -4.66699 33 -14 33h-20z" />
    <glyph glyph-name="germandbls" unicode="&#xdf;" horiz-adv-x="269" 
d="M141 391c10 0 16.833 4.66504 20.5 13.998s5.5 21.666 5.5 36.999v146c0 16 -2.83301 27.167 -8.5 33.5s-11.5 9.5 -17.5 9.5h-12c-6 0 -11.833 -3.33301 -17.5 -10s-8.5 -17.667 -8.5 -33v-588h-89v601c0 18 3.33301 33.667 10 47s15.167 24.166 25.5 32.499
s21.833 14.5 34.5 18.5s25.334 6 38.001 6h26c12 0 24.5 -2 37.5 -6s24.667 -10.167 35 -18.5s18.833 -19.166 25.5 -32.499s10 -29 10 -47v-148c0 -29.333 -7.16699 -51.166 -21.5 -65.499s-30.833 -23.5 -49.5 -27.5c19.333 -3.33301 36 -11.166 50 -23.499
s21 -33.166 21 -62.499v-170c0 -18 -2.83301 -33.667 -8.5 -47s-13.334 -24.166 -23.001 -32.499s-20.5 -14.5 -32.5 -18.5s-24 -6 -36 -6h-33v74h18c6 0 11.833 3.16699 17.5 9.5s8.5 17.5 8.5 33.5v159c0 15.333 -1.83301 27.666 -5.5 36.999s-10.5 14 -20.5 14h-18v64h18
z" />
    <glyph glyph-name="agrave" unicode="&#xe0;" 
d="M69 -3c-13.333 0 -23.668 2.33301 -31.001 7s-13 11.334 -17 20.001s-6.5 19.167 -7.5 31.5s-1.5 26.166 -1.5 41.499v80c0 30.667 4 55 12 73s25 27 51 27h2c16.667 0 33.334 -6.33301 50.001 -19v138c0 22 -5.33301 33 -16 33h-2c-10 0 -15 -11 -15 -33v-105h-82v107
c0 31.333 8.5 55.833 25.5 73.5s38.5 26.5 64.5 26.5h18c26 0 47.333 -8.83301 64 -26.5s25 -42.5 25 -74.5v-397h-82v17c-9.33301 -6 -18.5 -10.833 -27.5 -14.5s-17.833 -5.5 -26.5 -5.5h-4zM85.998 535l-60 86h78l36 -86h-54zM108.998 216c-10 0 -15 -11 -15 -33v-92
c0 -22 5 -33 15 -33h1c11.333 0 17 11 17 33v112c0 4.66699 -1.33301 8 -4 10s-5 3 -7 3h-7z" />
    <glyph glyph-name="aacute" unicode="&#xe1;" 
d="M69 -3c-13.333 0 -23.668 2.33301 -31.001 7s-13 11.334 -17 20.001s-6.5 19.167 -7.5 31.5s-1.5 26.166 -1.5 41.499v80c0 30.667 4 55 12 73s25 27 51 27h2c16.667 0 33.334 -6.33301 50.001 -19v138c0 22 -5.33301 33 -16 33h-2c-10 0 -15 -11 -15 -33v-105h-82v107
c0 31.333 8.5 55.833 25.5 73.5s38.5 26.5 64.5 26.5h18c26 0 47.333 -8.83301 64 -26.5s25 -42.5 25 -74.5v-397h-82v17c-9.33301 -6 -18.5 -10.833 -27.5 -14.5s-17.833 -5.5 -26.5 -5.5h-4zM82.998 535l36 86h78l-60 -86h-54zM108.998 216c-10 0 -15 -11 -15 -33v-92
c0 -22 5 -33 15 -33h1c11.333 0 17 11 17 33v112c0 4.66699 -1.33301 8 -4 10s-5 3 -7 3h-7z" />
    <glyph glyph-name="acircumflex" unicode="&#xe2;" 
d="M69 -3c-13.333 0 -23.668 2.33301 -31.001 7s-13 11.334 -17 20.001s-6.5 19.167 -7.5 31.5s-1.5 26.166 -1.5 41.499v80c0 30.667 4 55 12 73s25 27 51 27h2c16.667 0 33.334 -6.33301 50.001 -19v138c0 22 -5.33301 33 -16 33h-2c-10 0 -15 -11 -15 -33v-105h-82v107
c0 31.333 8.5 55.833 25.5 73.5s38.5 26.5 64.5 26.5h18c26 0 47.333 -8.83301 64 -26.5s25 -42.5 25 -74.5v-397h-82v17c-9.33301 -6 -18.5 -10.833 -27.5 -14.5s-17.833 -5.5 -26.5 -5.5h-4zM151.998 621l60 -86h-78l-23 44l-22 -44h-77l60 86h80zM108.998 216
c-10 0 -15 -11 -15 -33v-92c0 -22 5 -33 15 -33h1c10.667 0 16.334 8.66699 17.001 26v121c-0.666992 3.33301 -2.33398 6 -5.00098 8s-4.66699 3 -6 3h-7z" />
    <glyph glyph-name="atilde" unicode="&#xe3;" 
d="M69 -3c-13.333 0 -23.668 2.33301 -31.001 7s-13 11.334 -17 20.001s-6.5 19.167 -7.5 31.5s-1.5 26.166 -1.5 41.499v80c0 30.667 4 55 12 73s25 27 51 27h2c16.667 0 33.334 -6.33301 50.001 -19v138c0 22 -5.33301 33 -16 33h-2c-10 0 -15 -11 -15 -33v-105h-82v107
c0 31.333 8.5 55.833 25.5 73.5s38.5 26.5 64.5 26.5h18c26 0 47.333 -8.83301 64 -26.5s25 -42.5 25 -74.5v-397h-82v17c-9.33301 -6 -18.5 -10.833 -27.5 -14.5s-17.833 -5.5 -26.5 -5.5h-4zM20.998 574c7.33301 14.667 15.5 24.832 24.5 30.499s17.5 8.5 25.5 8.5
c12 0 23.167 -2.83301 33.5 -8.5s21.5 -8.5 33.5 -8.5c4 0 7.83301 1 11.5 3s8.16699 5.66699 13.5 11l40 -26c-8.66699 -15.333 -17.5 -25.666 -26.5 -30.999s-17.833 -8 -26.5 -8c-12.667 0 -24 2.83301 -34 8.5s-19.667 8.5 -29 8.5
c-5.33301 0 -10.333 -0.833008 -15 -2.5s-9.66699 -5.16699 -15 -10.5zM108.998 215.998c-10 0 -15 -11 -15 -33v-92c0 -22 5 -33 15 -33h1c11.333 0 17 11 17 33v112c0 4.66699 -1.33301 8 -4 10s-5 3 -7 3h-7z" />
    <glyph glyph-name="adieresis" unicode="&#xe4;" 
d="M69 -3c-13.333 0 -23.668 2.33301 -31.001 7s-13 11.334 -17 20.001s-6.5 19.167 -7.5 31.5s-1.5 26.166 -1.5 41.499v80c0 30.667 4 55 12 73s25 27 51 27h2c16.667 0 33.334 -6.33301 50.001 -19v138c0 22 -5.33301 33 -16 33h-2c-10 0 -15 -11 -15 -33v-105h-82v107
c0 31.333 8.5 55.833 25.5 73.5s38.5 26.5 64.5 26.5h18c26 0 47.333 -8.83301 64 -26.5s25 -42.5 25 -74.5v-397h-82v17c-9.33301 -6 -18.5 -10.833 -27.5 -14.5s-17.833 -5.5 -26.5 -5.5h-4zM108.998 216c-10 0 -15.001 -11 -15.001 -33v-92c0 -22 5 -33 15 -33h1
c10.667 0 16.334 8.66699 17.001 26v119c0 4.66699 -1.33301 8 -4 10s-5 3 -7 3h-7zM93.9971 543h-58v72h58v-72zM186.997 543h-58v72h58v-72z" />
    <glyph glyph-name="aring" unicode="&#xe5;" 
d="M69 -3c-13.333 0 -23.668 2.33301 -31.001 7s-13 11.334 -17 20.001s-6.5 19.167 -7.5 31.5s-1.5 26.166 -1.5 41.499v80c0 30.667 4 55 12 73s25 27 51 27h2c16.667 0 33.334 -6.33301 50.001 -19v138c0 22 -5.33301 33 -16 33h-2c-10 0 -15 -11 -15 -33v-105h-82v107
c0 31.333 8.5 55.833 25.5 73.5s38.5 26.5 64.5 26.5h18c26 0 47.333 -8.83301 64 -26.5s25 -42.5 25 -74.5v-397h-82v17c-9.33301 -6 -18.5 -10.833 -27.5 -14.5s-17.833 -5.5 -26.5 -5.5h-4zM110.998 524c-8 0 -16 1.83203 -24 5.49902s-15.167 8.5 -21.5 14.5
s-11.5 13 -15.5 21s-6 16.333 -6 25c0 18.667 6.66699 34.834 20 48.501s28.666 20.5 45.999 20.5c19.333 0 35.833 -6.83301 49.5 -20.5s20.5 -29.834 20.5 -48.501c0 -17.333 -6.66699 -32.666 -20 -45.999s-29.666 -20 -48.999 -20zM108.998 215.999
c-10 0 -15 -11 -15 -33v-92c0 -22 5 -33 15 -33h1c10.667 0 16.334 8.66699 17.001 26v121c-0.666992 3.33301 -2.33398 6 -5.00098 8s-4.66699 3 -6 3h-7zM110.998 612.999c-5.33301 0 -10.333 -2.16699 -15 -6.5s-7 -9.5 -7 -15.5c0 -5.33301 2.33301 -10.5 7 -15.5
s9.66699 -7.5 15 -7.5c6 0 11.333 2.5 16 7.5s7 10.167 7 15.5c0 6 -2.33301 11.167 -7 15.5s-10 6.5 -16 6.5z" />
    <glyph glyph-name="ae" unicode="&#xe6;" horiz-adv-x="334" 
d="M69 -3c-13.333 0 -23.668 2.33301 -31.001 7s-13 11.334 -17 20.001s-6.5 19.167 -7.5 31.5s-1.5 26.166 -1.5 41.499v80c0 30.667 4 55 12 73s25 27 51 27h2c16.667 0 33.334 -6.33301 50.001 -19v139v4c-0.666992 18.667 -6 28 -16 28h-2c-10 0 -15 -11 -15 -33v-105
h-82v107c0 31.333 8.5 55.833 25.5 73.5s38.5 26.5 64.5 26.5h18c17.333 0 33.333 -4.66699 48 -14c13.333 9.33301 29.333 14 48 14h18c26 0 47.667 -8.83301 65 -26.5s26 -42.167 26 -73.5v-171h-116v-128c0 -22 5 -33 15 -33h4c9.33301 0 14 11 14 33v107h83v-108
c0 -32 -8.66699 -56.833 -26 -74.5s-39 -26.5 -65 -26.5h-19c-30.667 0 -53.667 11.667 -69 35c-11.333 -10.667 -23.5 -19.167 -36.5 -25.5s-25.167 -9.5 -36.5 -9.5h-4zM108.998 216c-10 0 -14.999 -11 -14.999 -33v-92c0 -22 5 -33 15 -33h1c11.333 0 17 11 17 33v114
c-0.666992 3.33301 -2.33398 6 -5.00098 8s-4.66699 3 -6 3h-7zM208.999 284h33v112c0 22 -4.66699 33 -14 33h-3c-10.667 0 -16 -10.667 -16 -32v-113z" />
    <glyph glyph-name="ccedilla" unicode="&#xe7;" 
d="M46 -107l8.00098 40c6 -4 13 -6.83301 21 -8.5s15.5 -2 22.5 -1s12.667 3.16699 17 6.5s6.16602 8 5.49902 14c-1.33301 7.33301 -6 11.833 -14 13.5s-15.667 -0.166016 -23 -5.49902l-17 7l20 39c-22 3.33301 -39.833 13.666 -53.5 30.999s-20.5 40.333 -20.5 69v299
c0 32 8.33301 56.833 25 74.5s38 26.5 64 26.5h18c26 0 47.5 -8.83301 64.5 -26.5s25.5 -42.167 25.5 -73.5v-107h-82v105c0 22 -5 33 -15 33h-2c-10.667 0 -16 -11 -16 -33v-297c0 -22 5 -33 15 -33h3c10 0 15 11 15 33v107h82v-108c0 -28.667 -7 -51.667 -21 -69
s-32 -27.666 -54 -30.999l-8 -23c12.667 5.33301 24.667 5.33301 36 0s17 -15 17 -29c0 -18.667 -5.5 -33.167 -16.5 -43.5s-23.833 -17.333 -38.5 -21s-29.5 -4.33398 -44.5 -2.00098s-26.167 6.83301 -33.5 13.5z" />
    <glyph glyph-name="egrave" unicode="&#xe8;" 
d="M109 66h3c10 0 15 11 15 33v107h82v-108c0 -32 -8.5 -56.833 -25.5 -74.5s-38.5 -26.5 -64.5 -26.5h-19c-25.333 0 -46.333 9 -63 27s-25 42.667 -25 74v299c0 32 8.33301 56.833 25 74.5s38 26.5 64 26.5h18c26 0 47.5 -8.83301 64.5 -26.5s25.5 -42.167 25.5 -73.5
v-171h-115v-128c0 -22 5 -33 15 -33zM84 535l-60 86h78l36 -86h-54zM127 284v112c0 22 -5 33 -15 33h-2c-10.667 0 -16 -11 -16 -33v-112h33z" />
    <glyph glyph-name="eacute" unicode="&#xe9;" 
d="M109 66h3c10 0 15 11 15 33v107h82v-108c0 -32 -8.5 -56.833 -25.5 -74.5s-38.5 -26.5 -64.5 -26.5h-19c-25.333 0 -46.333 9 -63 27s-25 42.667 -25 74v299c0 32 8.33301 56.833 25 74.5s38 26.5 64 26.5h18c26 0 47.5 -8.83301 64.5 -26.5s25.5 -42.167 25.5 -73.5
v-171h-115v-128c0 -22 5 -33 15 -33zM82 535l36 86h78l-60 -86h-54zM127 284v112c0 22 -5 33 -15 33h-2c-10.667 0 -16 -11 -16 -33v-112h33z" />
    <glyph glyph-name="ecircumflex" unicode="&#xea;" 
d="M109 66h3c10 0 15 11 15 33v107h82v-108c0 -32 -8.5 -56.833 -25.5 -74.5s-38.5 -26.5 -64.5 -26.5h-19c-25.333 0 -46.333 9 -63 27s-25 42.667 -25 74v299c0 32 8.33301 56.833 25 74.5s38 26.5 64 26.5h18c26 0 47.5 -8.83301 64.5 -26.5s25.5 -42.167 25.5 -73.5
v-171h-115v-128c0 -22 5 -33 15 -33zM150 621l60 -86h-78l-22 43l-22 -43h-78l60 86h80zM127 284v112c0 22 -5 33 -15 33h-2c-10.667 0 -16 -11 -16 -33v-112h33z" />
    <glyph glyph-name="edieresis" unicode="&#xeb;" 
d="M109 66h3c10 0 15 11 15 33v107h82v-108c0 -32 -8.5 -56.833 -25.5 -74.5s-38.5 -26.5 -64.5 -26.5h-19c-25.333 0 -46.333 9 -63 27s-25 42.667 -25 74v299c0 32 8.33301 56.833 25 74.5s38 26.5 64 26.5h18c26 0 47.5 -8.83301 64.5 -26.5s25.5 -42.167 25.5 -73.5
v-171h-115v-128c0 -22 5 -33 15 -33zM127 284v112c0 22 -5 33 -15 33h-2c-10.667 0 -16 -11 -16 -33v-112h33zM93 543h-59v72h59v-72zM185 543h-58v72h58v-72z" />
    <glyph glyph-name="igrave" unicode="&#xec;" horiz-adv-x="107" 
d="M14 495v-495h82v495h-82zM30 533l-60 86h78l36 -86h-54z" />
    <glyph glyph-name="iacute" unicode="&#xed;" horiz-adv-x="107" 
d="M96 495v-495h-82v495h82zM27 533l36 86h78l-60 -86h-54z" />
    <glyph glyph-name="icircumflex" unicode="&#xee;" horiz-adv-x="107" 
d="M96 495v-495h-82v495h82zM96 619l60 -86h-78l-23 44l-22 -44h-77l60 86h80z" />
    <glyph glyph-name="idieresis" unicode="&#xef;" horiz-adv-x="107" 
d="M14 495v-495h82v495h-82zM38 542h-58v71h58v-71zM131 542h-58v71h58v-71z" />
    <glyph glyph-name="eth" unicode="&#xf0;" horiz-adv-x="253" 
d="M209 0h-66l-9 25c-8 -8.66699 -16.5 -15.5 -25.5 -20.5s-18.167 -7.5 -27.5 -7.5h-4c-26 0 -43.333 9 -52 27s-13 42.333 -13 73v301c0 30.667 4 55 12 73s25 27 51 27h2c16 0 32.667 -8 50 -24v111h-36v60h36v54h82v-54h39v-60h-39v-585zM109 429c-10 0 -15 -11 -15 -33
v-297c0 -22 5 -33 15 -33h1c10 0 15.667 9.33301 17 28v300c0 23.333 -5.33301 35 -16 35h-2z" />
    <glyph glyph-name="ntilde" unicode="&#xf1;" horiz-adv-x="222" 
d="M115 429c9.33301 0 13.999 -11 13.999 -33v-396h83v398c0 30.667 -4.16699 55 -12.5 73s-25.5 27 -51.5 27h-2c-17.333 0 -34.666 -8.66699 -51.999 -26v23h-82v-495h82v394c0 11.333 1.83301 20 5.5 26s8.16699 9 13.5 9h2zM56.999 574
c7.33301 14.667 15.5 24.832 24.5 30.499s17.5 8.5 25.5 8.5c12 0 23 -2.83301 33 -8.5s21 -8.5 33 -8.5c4.66699 0 8.83398 1 12.501 3s8.16699 5.66699 13.5 11l40 -26c-8.66699 -15.333 -17.5 -25.666 -26.5 -30.999s-18.167 -8 -27.5 -8
c-12.667 0 -23.834 2.83301 -33.501 8.5s-19.167 8.5 -28.5 8.5c-5.33301 0 -10.333 -0.833008 -15 -2.5s-9.66699 -5.16699 -15 -10.5z" />
    <glyph glyph-name="ograve" unicode="&#xf2;" 
d="M101 -3c-26 0 -47.333 9 -64 27s-25 42.333 -25 73v301c0 30.667 8.33301 55 25 73s38 27 64 27h18c26 0 47.5 -9 64.5 -27s25.5 -42.333 25.5 -73v-301c0 -30.667 -8.5 -55 -25.5 -73s-38.5 -27 -64.5 -27h-18zM110 429c-10.667 0 -16 -11 -16 -33v-297
c0 -22 5.33301 -33 16 -33h2c10 0 15 11 15 33v297c0 22 -5 33 -15 33h-2zM85 535l-60 86h77l36 -86h-53z" />
    <glyph glyph-name="oacute" unicode="&#xf3;" 
d="M101 -3c-26 0 -47.333 9 -64 27s-25 42.333 -25 73v301c0 30.667 8.33301 55 25 73s38 27 64 27h18c26 0 47.5 -9 64.5 -27s25.5 -42.333 25.5 -73v-301c0 -30.667 -8.5 -55 -25.5 -73s-38.5 -27 -64.5 -27h-18zM110 429c-10.667 0 -16 -11 -16 -33v-297
c0 -22 5.33301 -33 16 -33h2c10 0 15 11 15 33v297c0 22 -5 33 -15 33h-2zM82 535l36 86h78l-60 -86h-54z" />
    <glyph glyph-name="ocircumflex" unicode="&#xf4;" 
d="M101 -3c-26 0 -47.333 9 -64 27s-25 42.333 -25 73v301c0 30.667 8.33301 55 25 73s38 27 64 27h18c26 0 47.5 -9 64.5 -27s25.5 -42.333 25.5 -73v-301c0 -30.667 -8.5 -55 -25.5 -73s-38.5 -27 -64.5 -27h-18zM110 429c-10.667 0 -16 -11 -16 -33v-297
c0 -22 5.33301 -33 16 -33h2c10 0 15 11 15 33v297c0 22 -5 33 -15 33h-2zM151 621l60 -86h-78l-23 44l-22 -44h-78l60 86h81z" />
    <glyph glyph-name="otilde" unicode="&#xf5;" 
d="M101 -3c-26 0 -47.333 9 -64 27s-25 42.333 -25 73v301c0 30.667 8.33301 55 25 73s38 27 64 27h18c26 0 47.5 -9 64.5 -27s25.5 -42.333 25.5 -73v-301c0 -30.667 -8.5 -55 -25.5 -73s-38.5 -27 -64.5 -27h-18zM110 429c-10.667 0 -16 -11 -16 -33v-297
c0 -22 5.33301 -33 16 -33h2c10 0 15 11 15 33v297c0 22 -5 33 -15 33h-2zM20 574c7.33301 14.667 15.5 24.832 24.5 30.499s17.5 8.5 25.5 8.5c12 0 23 -2.83301 33 -8.5s21 -8.5 33 -8.5c4.66699 0 8.83398 1 12.501 3s8.16699 5.66699 13.5 11l40 -26
c-8.66699 -15.333 -17.5 -25.666 -26.5 -30.999s-18.167 -8 -27.5 -8c-12.667 0 -23.834 2.83301 -33.501 8.5s-19.167 8.5 -28.5 8.5c-5.33301 0 -10.333 -0.833008 -15 -2.5s-9.66699 -5.16699 -15 -10.5z" />
    <glyph glyph-name="odieresis" unicode="&#xf6;" 
d="M101 -3c-26 0 -47.333 9 -64 27s-25 42.333 -25 73v301c0 30.667 8.33301 55 25 73s38 27 64 27h18c26 0 47.5 -9 64.5 -27s25.5 -42.333 25.5 -73v-301c0 -30.667 -8.5 -55 -25.5 -73s-38.5 -27 -64.5 -27h-18zM110 429c-10.667 0 -16 -11 -16 -33v-297
c0 -22 5.33301 -33 16 -33h2c10 0 15 11 15 33v297c0 22 -5 33 -15 33h-2zM93 545h-58v72h58v-72zM186 545h-59v72h59v-72z" />
    <glyph glyph-name="divide" unicode="&#xf7;" horiz-adv-x="354" 
d="M342 319h-330v61h330v-61zM222 411h-90v104h90v-104zM222 183h-90v104h90v-104z" />
    <glyph glyph-name="oslash" unicode="&#xf8;" horiz-adv-x="264" 
d="M125 -3c-20.667 0 -38.334 5.66699 -53.001 17l-10 -27h-50l28 77c-2.66699 8.66699 -4 19.667 -4 33v301c0 30.667 8.33301 55 25 73s38 27 64 27h18c18.667 0 35.334 -4.66699 50.001 -14l9 24h51l-26 -70c2 -6 3.66699 -12.333 5 -19s2 -13.667 2 -21v-301
c0 -30.667 -8.5 -55 -25.5 -73s-38.833 -27 -65.5 -27h-18zM134 66h3c10 0 15 11 15 33v133l-33 -90v-43c0 -22 5 -33 15 -33zM134 429c-10 0 -15 -11 -15 -33v-115l33 90v25c0 22 -5 33 -15 33h-3z" />
    <glyph glyph-name="ugrave" unicode="&#xf9;" horiz-adv-x="221" 
d="M107 66c-10 0 -15 11 -15 33v396h-82v-398c0 -30.667 4 -55 12 -73s25 -27 51 -27h3c17.333 0 34.333 8.33301 51 25v-22h83v495h-83v-401c-2 -18.667 -8 -28 -18 -28h-2zM84 533l-60 86h78l36 -86h-54z" />
    <glyph glyph-name="uacute" unicode="&#xfa;" horiz-adv-x="221" 
d="M109 66c5.33301 0 9.66699 3 13 9s5 14.667 5 26v394h83v-495h-83v22c-16.667 -16.667 -33.667 -25 -51 -25h-3c-26 0 -43 9 -51 27s-12 42.333 -12 73v398h82v-396c0 -22 5 -33 15 -33h2zM82.001 533l36 86h78l-60 -86h-54z" />
    <glyph glyph-name="ucircumflex" unicode="&#xfb;" horiz-adv-x="221" 
d="M109 66c10 0 16 9.33301 18 28v401h83v-495h-83v22c-16.667 -16.667 -33.667 -25 -51 -25h-3c-26 0 -43 9 -51 27s-12 42.333 -12 73v398h82v-396c0 -22 5 -33 15 -33h2zM150 619l60 -86h-77l-23 44l-22 -44h-78l60 86h80z" />
    <glyph glyph-name="udieresis" unicode="&#xfc;" horiz-adv-x="221" 
d="M107 66c-10 0 -15.001 11 -15.001 33v396h-82v-398c0 -30.667 4 -55 12 -73s25 -27 51 -27h3c17.333 0 34.333 8.33301 51 25v-22h83v495h-83v-394c0 -11.333 -1.66699 -20 -5 -26s-7.66602 -9 -12.999 -9h-2zM185.999 542h-59v71h59v-71zM92.999 542h-58v71h58v-71z" />
    <glyph glyph-name="yacute" unicode="&#xfd;" horiz-adv-x="204" 
d="M135 495h67l-62 -660h-81l19 165l-76 495h75l28 -268h3zM75 535l36 86h78l-60 -86h-54z" />
    <glyph glyph-name="thorn" unicode="&#xfe;" horiz-adv-x="231" 
d="M103 699v-201h28c26 0 47.5 -9 64.5 -27s25.5 -42.333 25.5 -73v-301c0 -30.667 -8.5 -55 -25.5 -73s-38.5 -27 -64.5 -27h-28v-162h-89v864h89zM103 429v-363h20c9.33301 0 14 11 14 33v297c0 22 -4.66699 33 -14 33h-20z" />
    <glyph glyph-name="ydieresis" unicode="&#xff;" horiz-adv-x="204" 
d="M108 227h-3l-28 268h-75l76 -495l-19 -165h81l62 660h-67zM85 546h-59v71h59v-71zM177 546h-58v71h58v-71z" />
    <glyph glyph-name="Amacron" unicode="&#x100;" horiz-adv-x="243" 
d="M141 180h-48l-14 -180h-77l61 699h113l65 -699h-85zM193 751h-145v61h145v-61zM99 247h37l-17 209h-3z" />
    <glyph glyph-name="amacron" unicode="&#x101;" 
d="M69 -3c-13.333 0 -23.668 2.33301 -31.001 7s-13 11.334 -17 20.001s-6.5 19.167 -7.5 31.5s-1.5 26.166 -1.5 41.499v80c0 30.667 4 55 12 73s25 27 51 27h2c16.667 0 33.334 -6.33301 50.001 -19v138c0 22 -5.33301 33 -16 33h-2c-10 0 -15 -11 -15 -33v-105h-82v107
c0 31.333 8.5 55.833 25.5 73.5s38.5 26.5 64.5 26.5h18c26 0 47.333 -8.83301 64 -26.5s25 -42.5 25 -74.5v-397h-82v17c-9.33301 -6 -18.5 -10.833 -27.5 -14.5s-17.833 -5.5 -26.5 -5.5h-4zM183.998 549h-145v61h145v-61zM108.998 216c-10 0 -15.001 -11 -15.001 -33v-92
c0 -22 5 -33 15 -33h1c10.667 0 16.334 8.66699 17.001 26v119c0 4.66699 -1.33301 8 -4 10s-5 3 -7 3h-7z" />
    <glyph glyph-name="Abreve" unicode="&#x102;" horiz-adv-x="243" 
d="M156 0h85l-65 699h-113l-61 -699h77l14 180h48zM99 819c0 -6 2.16797 -11.333 6.50098 -16s9.5 -7 15.5 -7s11.333 2.33301 16 7s7 10 7 16h52c0 -20 -7.33301 -37.333 -22 -52s-32.667 -22 -54 -22c-18.667 0 -35.334 7.33301 -50.001 22s-22 32 -22 52h51zM116.001 456
h3l17 -209h-37z" />
    <glyph glyph-name="abreve" unicode="&#x103;" 
d="M69 -3c-13.333 0 -23.668 2.33301 -31.001 7s-13 11.334 -17 20.001s-6.5 19.167 -7.5 31.5s-1.5 26.166 -1.5 41.499v80c0 30.667 4 55 12 73s25 27 51 27h2c16.667 0 33.334 -6.33301 50.001 -19v138c0 22 -5.33301 33 -16 33h-2c-10 0 -15 -11 -15 -33v-105h-82v107
c0 31.333 8.5 55.833 25.5 73.5s38.5 26.5 64.5 26.5h18c26 0 47.333 -8.83301 64 -26.5s25 -42.5 25 -74.5v-397h-82v17c-9.33301 -6 -18.5 -10.833 -27.5 -14.5s-17.833 -5.5 -26.5 -5.5h-4zM89.998 616c0 -5.33301 2.16797 -10.5 6.50098 -15.5s9.5 -7.5 15.5 -7.5
s11.333 2.5 16 7.5s7 10.167 7 15.5h52c0 -10 -2 -19.333 -6 -28s-9.5 -16.5 -16.5 -23.5s-15 -12.5 -24 -16.5s-18.833 -6 -29.5 -6c-9.33301 0 -18.333 2 -27 6s-16.334 9.5 -23.001 16.5s-12 14.833 -16 23.5s-6 18 -6 28h51zM108.999 216c-10 0 -15 -11 -15 -33v-92
c0 -22 5 -33 15 -33h1c10.667 0 16.334 8.66699 17.001 26v121c-0.666992 3.33301 -2.33398 6 -5.00098 8s-4.66699 3 -6 3h-7z" />
    <glyph glyph-name="Aogonek" unicode="&#x104;" horiz-adv-x="243" 
d="M255 -68c-6.66699 -12.667 -15.999 -21.666 -27.999 -26.999s-24 -7.16602 -36 -5.49902s-22.5 6.66699 -31.5 15s-13.5 19.5 -13.5 33.5c0 20.667 9 38 27 52h-17l-15 180h-48l-14 -180h-77l61 699h113l65 -699h-4c-12.667 -3.33301 -23 -9.33301 -31 -18
s-11.667 -16.667 -11 -24c0 -8.66699 3.66699 -13.834 11 -15.501s13.666 1.16602 18.999 8.49902zM99.001 247.001h37l-17 209h-3z" />
    <glyph glyph-name="aogonek" unicode="&#x105;" 
d="M69 -3c-13.333 0 -23.668 2.33301 -31.001 7s-13 11.334 -17 20.001s-6.5 19.167 -7.5 31.5s-1.5 26.166 -1.5 41.499v80c0 30.667 4 55 12 73s25 27 51 27h2c16.667 0 33.334 -6.33301 50.001 -19v138c0 22 -5.33301 33 -16 33h-2c-10 0 -15 -11 -15 -33v-105h-82v107
c0 31.333 8.5 55.833 25.5 73.5s38.5 26.5 64.5 26.5h18c26 0 47.333 -8.83301 64 -26.5s25 -42.5 25 -74.5v-397h-82v17c-9.33301 -6 -18.5 -10.833 -27.5 -14.5s-17.833 -5.5 -26.5 -5.5h-4zM195.998 -49c-5.33301 -7.33301 -11.5 -10.167 -18.5 -8.5
s-10.833 6.83398 -11.5 15.501c-0.666992 7.33301 3 15.333 11 24s18.333 14.667 31 18h-64c-18 -14.667 -27 -32 -27 -52c0 -14 4.5 -25.167 13.5 -33.5s19.5 -13.333 31.5 -15s24 0.166016 36 5.49902s21.333 14.333 28 27zM108.998 215.999c-10 0 -15 -11 -15 -33v-92
c0 -22 5 -33 15 -33h1c10.667 0 16.334 8.66699 17.001 26v121c-0.666992 3.33301 -2.33398 6 -5.00098 8s-4.66699 3 -6 3h-7z" />
    <glyph glyph-name="Cacute" unicode="&#x106;" horiz-adv-x="244" 
d="M113 -6c-12 0 -24 2 -36 6s-22.833 10.167 -32.5 18.5s-17.334 19.166 -23.001 32.499s-8.5 29 -8.5 47v503c0 18 2.83301 33.667 8.5 47s13.334 24.166 23.001 32.499s20.5 14.5 32.5 18.5s24 6 36 6h18c12.667 0 25 -2 37 -6s22.667 -10.167 32 -18.5
s16.833 -19.166 22.5 -32.499s8.5 -29 8.5 -47v-183h-89v170c0 15.333 -1.5 26.333 -4.5 33s-7.5 10 -13.5 10h-4c-6 0 -10.5 -3.16699 -13.5 -9.5s-4.5 -17.5 -4.5 -33.5v-477c0 -28.667 6 -43 18 -43h4c12 0 18 14.333 18 43v172h89v-185c0 -18 -2.83301 -33.667 -8.5 -47
s-13.167 -24.166 -22.5 -32.499s-20 -14.5 -32 -18.5s-24.333 -6 -37 -6h-18zM94 739l36 86h78l-60 -86h-54z" />
    <glyph glyph-name="cacute" unicode="&#x107;" 
d="M127 291v105c0 22 -5 33 -15 33h-2c-10.667 0 -16 -11 -16 -33v-297c0 -22 5 -33 15 -33h3c10 0 15 11 15 33v107h82v-108c0 -32 -8.5 -56.833 -25.5 -74.5s-38.5 -26.5 -64.5 -26.5h-19c-25.333 0 -46.333 9 -63 27s-25 42.667 -25 74v299c0 32 8.33301 56.833 25 74.5
s38 26.5 64 26.5h18c26 0 47.5 -8.83301 64.5 -26.5s25.5 -42.167 25.5 -73.5v-107h-82zM82 535l36 86h78l-60 -86h-54z" />
    <glyph glyph-name="Ccircumflex" unicode="&#x108;" horiz-adv-x="244" 
d="M113 -6c-12 0 -24 2 -36 6s-22.833 10.167 -32.5 18.5s-17.334 19.166 -23.001 32.499s-8.5 29 -8.5 47v503c0 18 2.83301 33.667 8.5 47s13.334 24.166 23.001 32.499s20.5 14.5 32.5 18.5s24 6 36 6h18c12.667 0 25 -2 37 -6s22.667 -10.167 32 -18.5
s16.833 -19.166 22.5 -32.499s8.5 -29 8.5 -47v-183h-89v170c0 15.333 -1.5 26.333 -4.5 33s-7.5 10 -13.5 10h-4c-6 0 -10.5 -3.16699 -13.5 -9.5s-4.5 -17.5 -4.5 -33.5v-477c0 -28.667 6 -43 18 -43h4c12 0 18 14.333 18 43v172h89v-185c0 -18 -2.83301 -33.667 -8.5 -47
s-13.167 -24.166 -22.5 -32.499s-20 -14.5 -32 -18.5s-24.333 -6 -37 -6h-18zM163 825l60 -86h-78l-23 44l-22 -44h-78l60 86h81z" />
    <glyph glyph-name="ccircumflex" unicode="&#x109;" 
d="M127 291v105c0 22 -5 33 -15 33h-2c-10.667 0 -16 -11 -16 -33v-297c0 -22 5 -33 15 -33h3c10 0 15 11 15 33v107h82v-108c0 -32 -8.5 -56.833 -25.5 -74.5s-38.5 -26.5 -64.5 -26.5h-19c-25.333 0 -46.333 9 -63 27s-25 42.667 -25 74v299c0 32 8.33301 56.833 25 74.5
s38 26.5 64 26.5h18c26 0 47.5 -8.83301 64.5 -26.5s25.5 -42.167 25.5 -73.5v-107h-82zM150 621l60 -86h-77l-23 44l-22 -44h-78l60 86h80z" />
    <glyph glyph-name="Cdotaccent" unicode="&#x10a;" horiz-adv-x="244" 
d="M113 -6c-12 0 -24 2 -36 6s-22.833 10.167 -32.5 18.5s-17.334 19.166 -23.001 32.499s-8.5 29 -8.5 47v503c0 18 2.83301 33.667 8.5 47s13.334 24.166 23.001 32.499s20.5 14.5 32.5 18.5s24 6 36 6h18c12.667 0 25 -2 37 -6s22.667 -10.167 32 -18.5
s16.833 -19.166 22.5 -32.499s8.5 -29 8.5 -47v-183h-89v170c0 15.333 -1.5 26.333 -4.5 33s-7.5 10 -13.5 10h-4c-6 0 -10.5 -3.16699 -13.5 -9.5s-4.5 -17.5 -4.5 -33.5v-477c0 -28.667 6 -43 18 -43h4c12 0 18 14.333 18 43v172h89v-185c0 -18 -2.83301 -33.667 -8.5 -47
s-13.167 -24.166 -22.5 -32.499s-20 -14.5 -32 -18.5s-24.333 -6 -37 -6h-18zM150 748h-59v71h59v-71z" />
    <glyph glyph-name="cdotaccent" unicode="&#x10b;" 
d="M127 291v105c0 22 -5 33 -15 33h-2c-10.667 0 -16 -11 -16 -33v-297c0 -22 5 -33 15 -33h3c10 0 15 11 15 33v107h82v-108c0 -32 -8.5 -56.833 -25.5 -74.5s-38.5 -26.5 -64.5 -26.5h-19c-25.333 0 -46.333 9 -63 27s-25 42.667 -25 74v299c0 32 8.33301 56.833 25 74.5
s38 26.5 64 26.5h18c26 0 47.5 -8.83301 64.5 -26.5s25.5 -42.167 25.5 -73.5v-107h-82zM137 544h-58v72h58v-72z" />
    <glyph glyph-name="Ccaron" unicode="&#x10c;" horiz-adv-x="244" 
d="M113 -6c-12 0 -24 2 -36 6s-22.833 10.167 -32.5 18.5s-17.334 19.166 -23.001 32.499s-8.5 29 -8.5 47v503c0 18 2.83301 33.667 8.5 47s13.334 24.166 23.001 32.499s20.5 14.5 32.5 18.5s24 6 36 6h18c12.667 0 25 -2 37 -6s22.667 -10.167 32 -18.5
s16.833 -19.166 22.5 -32.499s8.5 -29 8.5 -47v-183h-89v170c0 15.333 -1.5 26.333 -4.5 33s-7.5 10 -13.5 10h-4c-6 0 -10.5 -3.16699 -13.5 -9.5s-4.5 -17.5 -4.5 -33.5v-477c0 -28.667 6 -43 18 -43h4c12 0 18 14.333 18 43v172h89v-185c0 -18 -2.83301 -33.667 -8.5 -47
s-13.167 -24.166 -22.5 -32.499s-20 -14.5 -32 -18.5s-24.333 -6 -37 -6h-18zM81 739l-60 86h78l22 -44l23 44h78l-60 -86h-81z" />
    <glyph glyph-name="ccaron" unicode="&#x10d;" 
d="M127 291v105c0 22 -5 33 -15 33h-2c-10.667 0 -16 -11 -16 -33v-297c0 -22 5 -33 15 -33h3c10 0 15 11 15 33v107h82v-108c0 -32 -8.5 -56.833 -25.5 -74.5s-38.5 -26.5 -64.5 -26.5h-19c-25.333 0 -46.333 9 -63 27s-25 42.667 -25 74v299c0 32 8.33301 56.833 25 74.5
s38 26.5 64 26.5h18c26 0 47.5 -8.83301 64.5 -26.5s25.5 -42.167 25.5 -73.5v-107h-82zM69 536l-60 86h78l22 -44l23 44h77l-60 -86h-80z" />
    <glyph glyph-name="Dcaron" unicode="&#x10e;" horiz-adv-x="245" 
d="M14 0v699h118c12 0 24 -2 36 -6s22.833 -10.167 32.5 -18.5s17.334 -19 23.001 -32s8.5 -28.5 8.5 -46.5v-493c0 -18 -2.83301 -33.5 -8.5 -46.5s-13.334 -23.667 -23.001 -32s-20.5 -14.5 -32.5 -18.5s-24 -6 -36 -6h-118zM103 625v-550.998h22
c6 0 10.5 3.16699 13.5 9.5s4.5 17.166 4.5 32.499v467c0 15.333 -1.5 26.166 -4.5 32.499s-7.5 9.5 -13.5 9.5h-22zM82 738.002l-60 86h78l22 -44l23 44h77l-60 -86h-80z" />
    <glyph glyph-name="dcaron" unicode="&#x10f;" horiz-adv-x="337" 
d="M77 -3c-26 0 -43.333 9 -52 27s-13 42.333 -13 73v301c0 30.667 4 55 12 73s25 27 51 27h2c16 0 32.667 -8 50 -24v225h82v-699h-66l-9 25c-8 -8.66699 -16.5 -15.5 -25.5 -20.5s-18.167 -7.5 -27.5 -7.5h-4zM333 595l-27 -63h-37l15 63h-41v104h90v-104zM109 429
c-10 0 -15.001 -11 -15.001 -33v-297c0 -22 5 -33 15 -33h1c10 0 15.667 9.33301 17 28v306c-1.33301 19.333 -6.66602 29 -15.999 29h-2z" />
    <glyph glyph-name="Dcroat" unicode="&#x110;" horiz-adv-x="262" 
d="M31 0v319h-17v62h17v318h118c12.667 0 25 -2 37 -6s22.667 -10.167 32 -18.5s16.833 -19 22.5 -32s8.5 -28.5 8.5 -46.5v-493c0 -18 -2.83301 -33.5 -8.5 -46.5s-13.167 -23.667 -22.5 -32s-20 -14.5 -32 -18.5s-24.333 -6 -37 -6h-118zM120 625v-243.998h18v-62h-18
v-245h22c6 0 10.5 3.16699 13.5 9.5s4.5 17.166 4.5 32.499v467c0 15.333 -1.5 26.166 -4.5 32.499s-7.5 9.5 -13.5 9.5h-22z" />
    <glyph glyph-name="dcroat" unicode="&#x111;" horiz-adv-x="256" 
d="M209 0h-66l-9 25c-8 -8.66699 -16.5 -15.5 -25.5 -20.5s-18.167 -7.5 -27.5 -7.5h-4c-26 0 -43.333 9 -52 27s-13 42.333 -13 73v301c0 30.667 4 55 12 73s25 27 51 27h2c16 0 32.667 -8 50 -24v111h-36v60h36v54h82v-54h39v-60h-39v-585zM109 429c-10 0 -15 -11 -15 -33
v-297c0 -22 5 -33 15 -33h1c10 0 15.667 9.33301 17 28v300c0 23.333 -5.33301 35 -16 35h-2z" />
    <glyph glyph-name="Emacron" unicode="&#x112;" horiz-adv-x="202" 
d="M103 625v-243h67v-66h-67v-242h92v-74h-181v699h174v-74h-85zM177 751h-145v61h145v-61z" />
    <glyph glyph-name="emacron" unicode="&#x113;" 
d="M109 66h3c10 0 15 11 15 33v107h82v-108c0 -32 -8.5 -56.833 -25.5 -74.5s-38.5 -26.5 -64.5 -26.5h-19c-25.333 0 -46.333 9 -63 27s-25 42.667 -25 74v299c0 32 8.33301 56.833 25 74.5s38 26.5 64 26.5h18c26 0 47.5 -8.83301 64.5 -26.5s25.5 -42.167 25.5 -73.5
v-171h-115v-128c0 -22 5 -33 15 -33zM182 549h-145v61h145v-61zM127 284v112c0 22 -5 33 -15 33h-2c-10.667 0 -16 -11 -16 -33v-112h33z" />
    <glyph glyph-name="Ebreve" unicode="&#x114;" horiz-adv-x="202" 
d="M188 625v74h-174v-699h181v74h-92v242h67v66h-67v243h85zM83 819c0 -6 2.16797 -11.333 6.50098 -16s9.5 -7 15.5 -7s11.333 2.33301 16 7s7 10 7 16h52c0 -20 -7.33301 -37.333 -22 -52s-32.667 -22 -54 -22c-18.667 0 -35.334 7.33301 -50.001 22s-22 32 -22 52h51z
" />
    <glyph glyph-name="ebreve" unicode="&#x115;" 
d="M109 66h3c10 0 15 11 15 33v107h82v-108c0 -32 -8.5 -56.833 -25.5 -74.5s-38.5 -26.5 -64.5 -26.5h-19c-25.333 0 -46.333 9 -63 27s-25 42.667 -25 74v299c0 32 8.33301 56.833 25 74.5s38 26.5 64 26.5h18c26 0 47.5 -8.83301 64.5 -26.5s25.5 -42.167 25.5 -73.5
v-171h-115v-128c0 -22 5 -33 15 -33zM88 616c0 -5.33301 2.16699 -10.5 6.5 -15.5s9.5 -7.5 15.5 -7.5s11.333 2.5 16 7.5s7 10.167 7 15.5h53c0 -10 -2 -19.333 -6 -28s-9.5 -16.5 -16.5 -23.5s-15.167 -12.5 -24.5 -16.5s-19 -6 -29 -6c-9.33301 0 -18.5 2 -27.5 6
s-16.833 9.5 -23.5 16.5s-12 14.833 -16 23.5s-6 18 -6 28h51zM127 284v112c0 22 -5 33 -15 33h-2c-10.667 0 -16 -11 -16 -33v-112h33z" />
    <glyph glyph-name="Edotaccent" unicode="&#x116;" horiz-adv-x="202" 
d="M188 625v74h-174v-699h181v74h-92v242h67v66h-67v243h85zM132 747h-58v71h58v-71z" />
    <glyph glyph-name="edotaccent" unicode="&#x117;" 
d="M109 66h3c10 0 15 11 15 33v107h82v-108c0 -32 -8.5 -56.833 -25.5 -74.5s-38.5 -26.5 -64.5 -26.5h-19c-25.333 0 -46.333 9 -63 27s-25 42.667 -25 74v299c0 32 8.33301 56.833 25 74.5s38 26.5 64 26.5h18c26 0 47.5 -8.83301 64.5 -26.5s25.5 -42.167 25.5 -73.5
v-171h-115v-128c0 -22 5 -33 15 -33zM127 284v112c0 22 -5 33 -15 33h-2c-10.667 0 -16 -11 -16 -33v-112h33zM137 544h-58v72h58v-72z" />
    <glyph glyph-name="Eogonek" unicode="&#x118;" horiz-adv-x="202" 
d="M162 -68c-6 -12.667 -15.167 -21.666 -27.5 -26.999s-24.5 -7.16602 -36.5 -5.49902s-22.5 6.66699 -31.5 15s-13.5 19.5 -13.5 33.5c0 20 9.33301 37.333 28 52h-67v699h174v-74h-85v-243h67v-66h-67v-242h92v-74h-51c-12.667 -3.33301 -23 -9.33301 -31 -18
s-11.667 -16.667 -11 -24c0.666992 -8.66699 4.5 -13.834 11.5 -15.501s13.5 1.16602 19.5 8.49902z" />
    <glyph glyph-name="eogonek" unicode="&#x119;" 
d="M167 -71c-6 -12.667 -15.167 -21.6641 -27.5 -26.9971s-24.5 -7.16602 -36.5 -5.49902s-22.5 6.66699 -31.5 15s-13.5 19.5 -13.5 33.5c0 10.667 2.5 20.334 7.5 29.001s11.833 16.667 20.5 24c-22 3.33301 -39.833 13.666 -53.5 30.999s-20.5 40.333 -20.5 69v299
c0 32 8.33301 56.833 25 74.5s38 26.5 64 26.5h18c26 0 47.5 -8.83301 64.5 -26.5s25.5 -42.167 25.5 -73.5v-171h-115v-128c0 -22 5 -33 15 -33h3c10 0 15 11 15 33v107h82v-108c0 -25.333 -5.66699 -46.5 -17 -63.5s-26.333 -28.167 -45 -33.5
c-11.333 -6.66699 -21 -14.334 -29 -23.001s-11.667 -16.334 -11 -23.001c0.666992 -8.66699 4.5 -13.834 11.5 -15.501s13.5 1.16602 19.5 8.49902zM127 284.003v112c0 22 -5 33 -15 33h-2c-10.667 0 -16 -11 -16 -33v-112h33z" />
    <glyph glyph-name="Ecaron" unicode="&#x11a;" horiz-adv-x="202" 
d="M188 625v74h-174v-699h181v74h-92v242h67v66h-67v243h85zM64 738l-60 86h78l22 -43l22 43h78l-60 -86h-80z" />
    <glyph glyph-name="ecaron" unicode="&#x11b;" 
d="M109 66h3c10 0 15 11 15 33v107h82v-108c0 -32 -8.5 -56.833 -25.5 -74.5s-38.5 -26.5 -64.5 -26.5h-19c-25.333 0 -46.333 9 -63 27s-25 42.667 -25 74v299c0 32 8.33301 56.833 25 74.5s38 26.5 64 26.5h18c26 0 47.5 -8.83301 64.5 -26.5s25.5 -42.167 25.5 -73.5
v-171h-115v-128c0 -22 5 -33 15 -33zM69 536l-60 86h78l22 -43l22 43h78l-60 -86h-80zM127 284v112c0 22 -5 33 -15 33h-2c-10.667 0 -16 -11 -16 -33v-112h33z" />
    <glyph glyph-name="Gcircumflex" unicode="&#x11c;" horiz-adv-x="244" 
d="M113 -6c-12 0 -23.999 2.00098 -35.999 6.00098s-22.833 10.167 -32.5 18.5s-17.334 19.166 -23.001 32.499s-8.5 29 -8.5 47v503c0 18 2.83301 33.667 8.5 47s13.334 24.166 23.001 32.499s20.5 14.5 32.5 18.5s24 6 36 6h18c12.667 0 25 -2 37 -6
s22.667 -10.167 32 -18.5s16.833 -19.166 22.5 -32.499s8.5 -29 8.5 -47v-183h-89v170c0 15.333 -1.5 26.333 -4.5 33s-7.5 10 -13.5 10h-4c-6 0 -10.5 -3.16699 -13.5 -9.5s-4.5 -17.5 -4.5 -33.5v-477c0 -28.667 6 -43 18 -43h4c12 0 18 14.333 18 43v98h-23v74h112v-154
v-6v-123h-43l-10 23c-10 -9.33301 -20.333 -16.5 -31 -21.5s-20.334 -7.5 -29.001 -7.5h-5zM163.001 823.001l60 -86h-78l-23 44l-22 -44h-78l60 86h81z" />
    <glyph glyph-name="gcircumflex" unicode="&#x11d;" horiz-adv-x="220" 
d="M209 495l0.00195312 -559c0 -31.333 -8.33301 -56 -25 -74s-37.667 -27 -63 -27h-19c-26 0 -47.5 8.83301 -64.5 26.5s-25.5 42.5 -25.5 74.5v35h82v-34c0 -22 5 -33 15 -33h3c10 0 15 11 15 33v82c-16.667 -14.667 -33.334 -22 -50.001 -22h-2c-26 0 -43 9 -51 27
s-12 42.333 -12 73v301c0 30.667 4.33301 55 13 73s26 27 52 27h4c17.333 0 34.666 -8.66699 51.999 -26l10 23h66zM110.002 66c10 0 15.667 9.33301 17 28v306c-1.33301 19.333 -7 29 -17 29h-1c-10 0 -15 -11 -15 -33v-297c0 -22 5 -33 15 -33h1zM150.002 621l60 -86h-77
l-23 44l-22 -44h-78l60 86h80z" />
    <glyph glyph-name="Gbreve" unicode="&#x11e;" horiz-adv-x="244" 
d="M113 -6c-12 0 -23.999 2.00098 -35.999 6.00098s-22.833 10.167 -32.5 18.5s-17.334 19.166 -23.001 32.499s-8.5 29 -8.5 47v503c0 18 2.83301 33.667 8.5 47s13.334 24.166 23.001 32.499s20.5 14.5 32.5 18.5s24 6 36 6h18c12.667 0 25 -2 37 -6
s22.667 -10.167 32 -18.5s16.833 -19.166 22.5 -32.499s8.5 -29 8.5 -47v-183h-89v170c0 15.333 -1.5 26.333 -4.5 33s-7.5 10 -13.5 10h-4c-6 0 -10.5 -3.16699 -13.5 -9.5s-4.5 -17.5 -4.5 -33.5v-477c0 -28.667 6 -43 18 -43h4c12 0 18 14.333 18 43v98h-23v74h112v-283
h-43l-10 23c-10 -9.33301 -20.333 -16.5 -31 -21.5s-20.334 -7.5 -29.001 -7.5h-5zM101.001 819.001c0 -6 1.99902 -11.333 5.99902 -16s9.33301 -7 16 -7c6 0 11.167 2.33301 15.5 7s6.5 10 6.5 16h53c0 -20 -7.33301 -37.333 -22 -52s-32.667 -22 -54 -22
c-19.333 0 -36.166 7.33301 -50.499 22s-21.5 32 -21.5 52h51z" />
    <glyph glyph-name="gbreve" unicode="&#x11f;" horiz-adv-x="220" 
d="M143 495l-10.002 -23c-17.333 17.333 -34.666 26 -51.999 26h-4c-26 0 -43.333 -9 -52 -27s-13 -42.333 -13 -73v-301c0 -30.667 4 -55 12 -73s25 -27 51 -27h2c16.667 0 33.334 7.33301 50.001 22v-82c0 -22 -5 -33 -15 -33h-3c-10 0 -15 11 -15 33v34h-82v-35
c0 -32 8.5 -56.833 25.5 -74.5s38.5 -26.5 64.5 -26.5h19c25.333 0 46.333 9 63 27s25 42.667 25 74v559h-66zM108.998 66c-10 0 -15 11 -15 33v297c0 22 5 33 15 33h1c10 0 15.667 -9.66699 17 -29v-299c0 -23.333 -5.66699 -35 -17 -35h-1zM87.998 616
c0 -5.33301 2.16699 -10.5 6.5 -15.5s9.83301 -7.5 16.5 -7.5c6 0 11.167 2.5 15.5 7.5s6.5 10.167 6.5 15.5h53c0 -10 -2 -19.333 -6 -28s-9.5 -16.5 -16.5 -23.5s-15.167 -12.5 -24.5 -16.5s-19 -6 -29 -6c-9.33301 0 -18.5 2 -27.5 6s-16.833 9.5 -23.5 16.5
s-12 14.833 -16 23.5s-6 18 -6 28h51z" />
    <glyph glyph-name="Gdotaccent" unicode="&#x120;" horiz-adv-x="244" 
d="M113 -6c-12 0 -23.999 2.00098 -35.999 6.00098s-22.833 10.167 -32.5 18.5s-17.334 19.166 -23.001 32.499s-8.5 29 -8.5 47v503c0 18 2.83301 33.667 8.5 47s13.334 24.166 23.001 32.499s20.5 14.5 32.5 18.5s24 6 36 6h18c12.667 0 25 -2 37 -6
s22.667 -10.167 32 -18.5s16.833 -19.166 22.5 -32.499s8.5 -29 8.5 -47v-183h-89v170c0 15.333 -1.5 26.333 -4.5 33s-7.5 10 -13.5 10h-4c-6 0 -10.5 -3.16699 -13.5 -9.5s-4.5 -17.5 -4.5 -33.5v-477c0 -28.667 6 -43 18 -43h4c12 0 18 14.333 18 43v98h-23v74h112v-283
h-43l-10 23c-10 -9.33301 -20.333 -16.5 -31 -21.5s-20.334 -7.5 -29.001 -7.5h-5zM150.001 747.001h-59v71h59v-71z" />
    <glyph glyph-name="gdotaccent" unicode="&#x121;" horiz-adv-x="220" 
d="M143 495l-10.002 -23c-17.333 17.333 -34.666 26 -51.999 26h-4c-26 0 -43.333 -9 -52 -27s-13 -42.333 -13 -73v-301c0 -30.667 4 -55 12 -73s25 -27 51 -27h2c16.667 0 33.334 7.33301 50.001 22v-82c0 -22 -5 -33 -15 -33h-3c-10 0 -15 11 -15 33v34h-82v-35
c0 -32 8.5 -56.833 25.5 -74.5s38.5 -26.5 64.5 -26.5h19c25.333 0 46.333 9 63 27s25 42.667 25 74v559h-66zM108.998 66c-10 0 -15 11 -15 33v297c0 22 5 33 15 33h1c10 0 15.667 -9.66699 17 -29v-299c0 -23.333 -5.66699 -35 -17 -35h-1zM136.998 544h-58v72h58v-72z
" />
    <glyph glyph-name="uni0122" unicode="&#x122;" horiz-adv-x="244" 
d="M119 283l112.001 0.000976562v-283h-43l-10 23c-10 -9.33301 -20.333 -16.5 -31 -21.5s-20.334 -7.5 -29.001 -7.5h-5c-12 0 -24 2 -36 6s-22.833 10.167 -32.5 18.5s-17.334 19.166 -23.001 32.499s-8.5 29 -8.5 47v503c0 18 2.83301 33.667 8.5 47
s13.334 24.166 23.001 32.499s20.5 14.5 32.5 18.5s24 6 36 6h18c12.667 0 25 -2 37 -6s22.667 -10.167 32 -18.5s16.833 -19.166 22.5 -32.499s8.5 -29 8.5 -47v-183h-89v170c0 15.333 -1.5 26.333 -4.5 33s-7.5 10 -13.5 10h-4c-6 0 -10.5 -3.16699 -13.5 -9.5
s-4.5 -17.5 -4.5 -33.5v-477c0 -28.667 6 -43 18 -43h4c12 0 18 14.333 18 43v98h-23v74zM161.001 -133.999l-27 -63h-37l15 63h-42v104h91v-104z" />
    <glyph glyph-name="uni0123" unicode="&#x123;" horiz-adv-x="220" 
d="M143 495l-10.002 -23c-17.333 17.333 -34.666 26 -51.999 26h-4c-26 0 -43.333 -9 -52 -27s-13 -42.333 -13 -73v-301c0 -30.667 4 -55 12 -73s25 -27 51 -27h2c16.667 0 33.334 7.33301 50.001 22v-82c0 -22 -5 -33 -15 -33h-3c-10 0 -15 11 -15 33v34h-82v-35
c0 -32 8.5 -56.833 25.5 -74.5s38.5 -26.5 64.5 -26.5h19c25.333 0 46.333 9 63 27s25 42.667 25 74v559h-66zM108.998 66c-10 0 -15 11 -15 33v297c0 22 5 33 15 33h1c10 0 15.667 -9.66699 17 -29v-299c0 -23.333 -5.66699 -35 -17 -35h-1zM75.998 610l19 46h34l-11 -46
h22v-76h-64v76z" />
    <glyph glyph-name="Hcircumflex" unicode="&#x124;" horiz-adv-x="244" 
d="M230 699v-699h-89v316h-38v-316h-89v699h89v-317h38v317h89zM163 823l60 -86h-78l-23 44l-22 -44h-78l60 86h81z" />
    <glyph glyph-name="hcircumflex" unicode="&#x125;" horiz-adv-x="223" 
d="M115 429c-5.33301 0 -9.83203 -3 -13.499 -9s-5.5 -14.667 -5.5 -26v-394h-82v699h82v-227c17.333 17.333 34.666 26 51.999 26h2c26 0 43 -9 51 -27s12 -42.333 12 -73v-398h-82v396c0 22 -5 33 -15 33h-1zM95.001 823l60 -86h-78l-22 43l-22 -43h-78l60 86h80z" />
    <glyph glyph-name="LATIN CAPITAL LETTER H WITH STROKE" unicode="&#x126;" horiz-adv-x="244" 
d="M14 526v173h89v-173h38v173h89v-173h18v-60h-18v-466h-89v316h-38v-316h-89v466h-18v60h18zM141 382v84h-38v-84h38z" />
    <glyph glyph-name="LATIN SMALL LETTER H WITH STROKE" unicode="&#x127;" horiz-adv-x="223" 
d="M115 429c-11.333 0 -17.666 -10 -18.999 -30v-399h-82v585h-25v60h25v54h82v-54h50v-60h-50v-113c17.333 17.333 34.666 26 51.999 26h2c26 0 43 -9 51 -27s12 -42.333 12 -73v-398h-82v396c0 22 -5 33 -15 33h-1z" />
    <glyph glyph-name="Itilde" unicode="&#x128;" horiz-adv-x="117" 
d="M14 699v-699h89v699h-89zM-32 779c7.33301 14.667 15.502 24.832 24.502 30.499s17.5 8.5 25.5 8.5c12 0 23.167 -2.83301 33.5 -8.5s21.5 -8.5 33.5 -8.5c4.66699 0 8.66699 1 12 3s7.66602 5.66699 12.999 11l40 -26c-8 -15.333 -16.667 -25.666 -26 -30.999
s-18.333 -8 -27 -8c-12.667 0 -23.834 2.83301 -33.501 8.5s-19.5 8.5 -29.5 8.5c-4.66699 0 -9.5 -0.833008 -14.5 -2.5s-10.167 -5.16699 -15.5 -10.5z" />
    <glyph glyph-name="itilde" unicode="&#x129;" horiz-adv-x="107" 
d="M14 495v-495h82v495h-82zM-35 572c7.33301 14.667 15.5 24.999 24.5 30.999s17.5 9 25.5 9c12 0 23.167 -3 33.5 -9s21.5 -9 33.5 -9c4 0 7.83301 1 11.5 3s8.16699 5.66699 13.5 11l40 -25c-8.66699 -15.333 -17.5 -25.666 -26.5 -30.999s-17.833 -8 -26.5 -8
c-12.667 0 -24 2.83301 -34 8.5s-19.667 8.5 -29 8.5c-5.33301 0 -10.333 -0.833008 -15 -2.5s-9.66699 -5.5 -15 -11.5z" />
    <glyph glyph-name="Imacron" unicode="&#x12a;" horiz-adv-x="117" 
d="M103 699v-699h-89v699h89zM131 754h-145v61h145v-61z" />
    <glyph glyph-name="imacron" unicode="&#x12b;" horiz-adv-x="107" 
d="M96 495v-495h-82v495h82zM128 547h-145v61h145v-61z" />
    <glyph glyph-name="Ibreve" unicode="&#x12c;" horiz-adv-x="117" 
d="M14 699v-699h89v699h-89zM37 821c0 -5.33301 2.16797 -10.5 6.50098 -15.5s9.5 -7.5 15.5 -7.5s11.333 2.5 16 7.5s7 10.167 7 15.5h52c0 -10 -2 -19.333 -6 -28s-9.5 -16.5 -16.5 -23.5s-15 -12.5 -24 -16.5s-18.833 -6 -29.5 -6c-9.33301 0 -18.333 2 -27 6
s-16.334 9.5 -23.001 16.5s-12 14.833 -16 23.5s-6 18 -6 28h51z" />
    <glyph glyph-name="ibreve" unicode="&#x12d;" horiz-adv-x="107" 
d="M14 495v-495h82v495h-82zM34 615c0 -6 2.16797 -11.333 6.50098 -16s9.5 -7 15.5 -7s11.333 2.33301 16 7s7 10 7 16h52c0 -20 -7.33301 -37.333 -22 -52s-32.667 -22 -54 -22c-18.667 0 -35.334 7.33301 -50.001 22s-22 32 -22 52h51z" />
    <glyph glyph-name="Iogonek" unicode="&#x12e;" horiz-adv-x="117" 
d="M116 -68c-6 -12.667 -15.167 -21.666 -27.5 -26.999s-24.5 -7.16602 -36.5 -5.49902s-22.5 6.66699 -31.5 15s-13.5 19.5 -13.5 33.5c0 20 9.33301 37.333 28 52h-21v699h89v-699h-5c-12.667 -3.33301 -23 -9.33301 -31 -18s-11.667 -16.667 -11 -24
c0.666992 -8.66699 4.5 -13.834 11.5 -15.501s13.5 1.16602 19.5 8.49902z" />
    <glyph glyph-name="iogonek" unicode="&#x12f;" horiz-adv-x="107" 
d="M110 -68c-6 -12.667 -15 -21.666 -27 -26.999s-24 -7.16602 -36 -5.49902s-22.5 6.66699 -31.5 15s-13.5 19.5 -13.5 33.5c0 20.667 9 38 27 52h-15v495h82v-495h-3c-13.333 -3.33301 -23.833 -9.33301 -31.5 -18s-11.5 -16.667 -11.5 -24
c0.666992 -8.66699 4.5 -13.834 11.5 -15.501s13.5 1.16602 19.5 8.49902zM96 625.001v-96h-82v96h82z" />
    <glyph glyph-name="Idotaccent" unicode="&#x130;" horiz-adv-x="117" 
d="M14 699v-699h89v699h-89zM86 749h-58v72h58v-72z" />
    <glyph glyph-name="dotlessi" unicode="&#x131;" horiz-adv-x="107" 
d="M96 495v-495h-82v495h82z" />
    <glyph glyph-name="IJ" unicode="&#x132;" horiz-adv-x="364" 
d="M103 699v-699h-89v699h89zM231 -6c-12 0 -23.8301 2 -35.4971 6s-22.334 10.167 -32.001 18.5s-17.334 19.166 -23.001 32.499s-8.5 29 -8.5 47v183h88v-170c0 -28.667 6.33301 -43 19 -43h3c12.667 0 19 14.333 19 43v588h88v-601c0 -18 -2.83301 -33.667 -8.5 -47
s-13.167 -24.166 -22.5 -32.499s-19.833 -14.5 -31.5 -18.5s-23.834 -6 -36.501 -6h-19z" />
    <glyph glyph-name="ij" unicode="&#x133;" horiz-adv-x="243" 
d="M96 495v-495h-82v495h82zM96 625v-96h-82v96h82zM228 626v-97h-82v97h82zM228 495v-560c0 -30.667 -9 -55 -27 -73s-49 -27 -93 -27v69c25.333 0 38 10.333 38 31v560h82z" />
    <glyph glyph-name="Jcircumflex" unicode="&#x134;" horiz-adv-x="244" 
d="M113 -6c-12 0 -23.999 2 -35.999 6s-22.833 10.167 -32.5 18.5s-17.334 19.166 -23.001 32.499s-8.5 29 -8.5 47v183h89v-170c0 -28.667 6 -43 18 -43h4c12 0 18 14.333 18 43v588h89v-601c0 -18 -2.83301 -33.667 -8.5 -47s-13.167 -24.166 -22.5 -32.499
s-20 -14.5 -32 -18.5s-24.333 -6 -37 -6h-18zM227.001 823l60 -86h-78l-22 43l-22 -43h-78l60 86h80z" />
    <glyph glyph-name="jcircumflex" unicode="&#x135;" horiz-adv-x="144" 
d="M132 495v-560c0 -30.667 -9 -55 -27 -73s-49 -27 -93 -27v69c11.333 0 20.5 2.5 27.5 7.5s10.5 12.833 10.5 23.5v560h82zM133 616l60 -86h-78l-23 44l-22 -44h-77l60 86h80z" />
    <glyph glyph-name="uni0136" unicode="&#x136;" horiz-adv-x="245" 
d="M166 361l75 -361h-81l-56 243h-1v-243h-89v699h89v-255h1l58 255h81zM173 -128l-27 -63h-37l15 63h-41v104h90v-104z" />
    <glyph glyph-name="uni0137" unicode="&#x137;" horiz-adv-x="231" 
d="M146 258l83 -258h-83l-50 162v-162h-82v699h82v-358l53 154h79zM164 -123l-27 -63h-36l15 63h-42v104h90v-104z" />
    <glyph glyph-name=".001" unicode="&#x138;" horiz-adv-x="231" 
d="M146 258l83 -258h-83l-50 162v-162h-82v495h82v-154l53 154h79z" />
    <glyph glyph-name="Lacute" unicode="&#x139;" horiz-adv-x="187" 
d="M103 699v-633h82v-66h-171v699h89zM31 737l36 86h78l-60 -86h-54z" />
    <glyph glyph-name="lacute" unicode="&#x13a;" horiz-adv-x="106" 
d="M14 699h82v-699h-82v699zM29 737l36 86h78l-60 -86h-54z" />
    <glyph glyph-name="uni013B" unicode="&#x13b;" horiz-adv-x="187" 
d="M103 699v-633h82v-66h-171v699h89zM140 -134l-27 -63h-37l15 63h-41v104h90v-104z" />
    <glyph glyph-name="lquotesinglbase" unicode="&#x13c;" horiz-adv-x="106" 
d="M14 699h82v-699h-82v699zM100 -124l-27 -63h-37l15 63h-42v104h91v-104z" />
    <glyph glyph-name="Lcaron" unicode="&#x13d;" horiz-adv-x="247" 
d="M14 699v-699h171v66h-82v633h-89zM230 596l-27 -63h-37l15 63h-42v104h91v-104z" />
    <glyph glyph-name="LATIN SMALL LETTER L WITH CARON" unicode="&#x13e;" horiz-adv-x="216" 
d="M14 699h82v-699h-82v699zM205 595l-27 -63h-37l15 63h-41v104h90v-104z" />
    <glyph glyph-name="Ldot" unicode="&#x13f;" horiz-adv-x="238" 
d="M103 699v-633h82v-66h-171v699h89zM228 236h-91v103h91v-103z" />
    <glyph glyph-name="lperiodcentered" unicode="&#x140;" horiz-adv-x="221" 
d="M14 699h82v-699h-82v699zM209 276h-90v104h90v-104z" />
    <glyph glyph-name="Lslash" unicode="&#x141;" horiz-adv-x="256" 
d="M162 699v-254l57 41l31 -53l-88 -64v-303h82v-66h-171v305l-38 -27l-33 54l71 50v317h89z" />
    <glyph glyph-name="lslash" unicode="&#x142;" horiz-adv-x="233" 
d="M64 269l-29 -21l-33 54l62 44v353h82v-294l53 38l31 -53l-84 -61v-329h-82v269z" />
    <glyph glyph-name="Nacute" unicode="&#x143;" horiz-adv-x="276" 
d="M165 0l-76 422h-2v-422h-74v699h99l70 -412h1v412h80v-699h-98zM111 737l36 86h77l-60 -86h-53z" />
    <glyph glyph-name="nacute" unicode="&#x144;" horiz-adv-x="222" 
d="M113 429c-11.333 0 -17.666 -10 -18.999 -30v-399h-82v495h82v-23c17.333 17.333 34.666 26 51.999 26h2c26 0 43.167 -9 51.5 -27s12.5 -42.333 12.5 -73v-398h-83v396c0 22 -4.66699 33 -14 33h-2zM69 535l36 86h78l-60 -86h-54z" />
    <glyph glyph-name="uni0145" unicode="&#x145;" horiz-adv-x="276" 
d="M165 0l-76 422h-2v-422h-74v699h99l70 -412h1v412h80v-699h-98zM168 -128l-27 -63h-37l15 63h-42v104h91v-104z" />
    <glyph glyph-name="uni0146" unicode="&#x146;" horiz-adv-x="222" 
d="M113 429c-11.333 0 -17.666 -10 -18.999 -30v-399h-82v495h82v-23c17.333 17.333 34.666 26 51.999 26h2c26 0 43.167 -9 51.5 -27s12.5 -42.333 12.5 -73v-398h-83v396c0 22 -4.66699 33 -14 33h-2zM158 -123l-27 -63h-37l15 63h-42v104h91v-104z" />
    <glyph glyph-name="Ncaron" unicode="&#x147;" horiz-adv-x="276" 
d="M165 0l-76 422h-2v-422h-74v699h99l70 -412h1v412h80v-699h-98zM98 738l-60 86h78l22 -43l22 43h78l-60 -86h-80z" />
    <glyph glyph-name="ncaron" unicode="&#x148;" horiz-adv-x="222" 
d="M115 429c9.33301 0 14 -11 14 -33v-396h83v398c0 30.667 -4.16699 55 -12.5 73s-25.5 27 -51.5 27h-2c-17.333 0 -34.666 -8.66699 -51.999 -26v23h-82v-495h82v399c1.33301 20 7.66602 30 18.999 30h2zM72 536l-60 86h78l22 -43l22 43h78l-60 -86h-80z" />
    <glyph glyph-name="napostrophe" unicode="&#x149;" horiz-adv-x="319" 
d="M212 429c10 0 15.002 -11 15.002 -33v-396h82v398c0 30.667 -4 55 -12 73s-25 27 -51 27h-3c-8.66699 0 -17.334 -2.33301 -26.001 -7s-17 -10.667 -25 -18v22h-82v-495h82v400c1.33301 19.333 7.66602 29 18.999 29h1zM102.002 576l-27 -63h-37l15 63h-41v103h90v-103z
" />
    <glyph glyph-name="Eng" unicode="&#x14a;" horiz-adv-x="275" 
d="M84 429v-429h-71v699h99l72 -419h1v419h77v-764c0 -30.667 -11.667 -55 -35 -73s-57 -27 -101 -27v69c24.667 0 37 10.333 37 31v69l-78 425h-1z" />
    <glyph glyph-name="eng" unicode="&#x14b;" horiz-adv-x="222" 
d="M113 429c-11.333 0 -17.666 -10 -18.999 -30v-399h-82v495h82v-23c17.333 17.333 34.666 26 51.999 26h2c26 0 43.167 -9 51.5 -27s12.5 -42.333 12.5 -73v-463c0 -30.667 -9.16699 -55 -27.5 -73s-49.5 -27 -93.5 -27v69c25.333 0 38 10.333 38 31v461
c0 22 -4.66699 33 -14 33h-2z" />
    <glyph glyph-name="Omacron" unicode="&#x14c;" horiz-adv-x="244" 
d="M113 -6c-12 0 -24 2 -36 6s-22.833 10.167 -32.5 18.5s-17.334 19.166 -23.001 32.499s-8.5 29 -8.5 47v503c0 18 2.83301 33.667 8.5 47s13.334 24.166 23.001 32.499s20.5 14.5 32.5 18.5s24 6 36 6h18c12.667 0 25 -2 37 -6s22.667 -10.167 32 -18.5
s16.833 -19.166 22.5 -32.499s8.5 -29 8.5 -47v-503c0 -18 -2.83301 -33.667 -8.5 -47s-13.167 -24.166 -22.5 -32.499s-20 -14.5 -32 -18.5s-24.333 -6 -37 -6h-18zM120 631c-12 0 -18 -14.333 -18 -43v-477c0 -28.667 6 -43 18 -43h4c12 0 18 14.333 18 43v477
c0 28.667 -6 43 -18 43h-4zM194 751h-144v61h144v-61z" />
    <glyph glyph-name="omacron" unicode="&#x14d;" 
d="M101 -3c-26 0 -47.333 9 -64 27s-25 42.333 -25 73v301c0 30.667 8.33301 55 25 73s38 27 64 27h18c26 0 47.5 -9 64.5 -27s25.5 -42.333 25.5 -73v-301c0 -30.667 -8.5 -55 -25.5 -73s-38.5 -27 -64.5 -27h-18zM110 429c-10.667 0 -16 -11 -16 -33v-297
c0 -22 5.33301 -33 16 -33h2c10 0 15 11 15 33v297c0 22 -5 33 -15 33h-2zM182 549h-144v61h144v-61z" />
    <glyph glyph-name="Obreve" unicode="&#x14e;" horiz-adv-x="244" 
d="M113 -6c-12 0 -24 2 -36 6s-22.833 10.167 -32.5 18.5s-17.334 19.166 -23.001 32.499s-8.5 29 -8.5 47v503c0 18 2.83301 33.667 8.5 47s13.334 24.166 23.001 32.499s20.5 14.5 32.5 18.5s24 6 36 6h18c12.667 0 25 -2 37 -6s22.667 -10.167 32 -18.5
s16.833 -19.166 22.5 -32.499s8.5 -29 8.5 -47v-503c0 -18 -2.83301 -33.667 -8.5 -47s-13.167 -24.166 -22.5 -32.499s-20 -14.5 -32 -18.5s-24.333 -6 -37 -6h-18zM120 631c-12 0 -18 -14.333 -18 -43v-477c0 -28.667 6 -43 18 -43h4c12 0 18 14.333 18 43v477
c0 28.667 -6 43 -18 43h-4zM101 819c0 -6 1.99902 -11.333 5.99902 -16s9.33301 -7 16 -7c6 0 11.167 2.33301 15.5 7s6.5 10 6.5 16h53c0 -20 -7.33301 -37.333 -22 -52s-32.667 -22 -54 -22c-19.333 0 -36.166 7.33301 -50.499 22s-21.5 32 -21.5 52h51z" />
    <glyph glyph-name="obreve" unicode="&#x14f;" 
d="M101 -3c-26 0 -47.333 9 -64 27s-25 42.333 -25 73v301c0 30.667 8.33301 55 25 73s38 27 64 27h18c26 0 47.5 -9 64.5 -27s25.5 -42.333 25.5 -73v-301c0 -30.667 -8.5 -55 -25.5 -73s-38.5 -27 -64.5 -27h-18zM110 429c-10.667 0 -16 -11 -16 -33v-297
c0 -22 5.33301 -33 16 -33h2c10 0 15 11 15 33v297c0 22 -5 33 -15 33h-2zM89 616c0 -5.33301 2.00098 -10.5 6.00098 -15.5s9.33301 -7.5 16 -7.5c6 0 11.167 2.5 15.5 7.5s6.5 10.167 6.5 15.5h53c0 -10 -2 -19.333 -6 -28s-9.5 -16.5 -16.5 -23.5s-15 -12.5 -24 -16.5
s-18.833 -6 -29.5 -6c-9.33301 0 -18.333 2 -27 6s-16.334 9.5 -23.001 16.5s-12 14.833 -16 23.5s-6 18 -6 28h51z" />
    <glyph glyph-name="Ohungarumlaut" unicode="&#x150;" horiz-adv-x="244" 
d="M113 -6c-12 0 -24 2 -36 6s-22.833 10.167 -32.5 18.5s-17.334 19.166 -23.001 32.499s-8.5 29 -8.5 47v503c0 18 2.83301 33.667 8.5 47s13.334 24.166 23.001 32.499s20.5 14.5 32.5 18.5s24 6 36 6h18c12.667 0 25 -2 37 -6s22.667 -10.167 32 -18.5
s16.833 -19.166 22.5 -32.499s8.5 -29 8.5 -47v-503c0 -18 -2.83301 -33.667 -8.5 -47s-13.167 -24.166 -22.5 -32.499s-20 -14.5 -32 -18.5s-24.333 -6 -37 -6h-18zM120 631c-12 0 -18 -14.333 -18 -43v-477c0 -28.667 6 -43 18 -43h4c12 0 18 14.333 18 43v477
c0 28.667 -6 43 -18 43h-4zM140 736l36 86h78l-60 -86h-54zM46 736l36 86h78l-60 -86h-54z" />
    <glyph glyph-name="ohungarumlaut" unicode="&#x151;" 
d="M101 -3c-26 0 -47.333 9 -64 27s-25 42.333 -25 73v301c0 30.667 8.33301 55 25 73s38 27 64 27h18c26 0 47.5 -9 64.5 -27s25.5 -42.333 25.5 -73v-301c0 -30.667 -8.5 -55 -25.5 -73s-38.5 -27 -64.5 -27h-18zM110 429c-10.667 0 -16 -11 -16 -33v-297
c0 -22 5.33301 -33 16 -33h2c10 0 15 11 15 33v297c0 22 -5 33 -15 33h-2zM128 533l36 86h78l-60 -86h-54zM34 533l36 86h78l-60 -86h-54z" />
    <glyph glyph-name="OE" unicode="&#x152;" horiz-adv-x="346" 
d="M113 -6c-12 0 -24 2.00098 -36 6.00098s-22.833 10.167 -32.5 18.5s-17.334 19.166 -23.001 32.499s-8.5 29 -8.5 47v503c0 18 2.83301 33.667 8.5 47s13.334 24.166 23.001 32.499s20.5 14.5 32.5 18.5s24 6 36 6h212v-79h-96c0.666992 -4 1.16699 -8 1.5 -12
s0.5 -8.33301 0.5 -13v-219h76v-66h-76v-218c0 -4.66699 -0.166992 -9.16699 -0.5 -13.5s-0.833008 -8.16602 -1.5 -11.499h103v-79h-219zM120 631.001c-12 0 -18 -14.333 -18 -43v-477c0 -28.667 6 -43 18 -43h4c12 0 18 14.333 18 43v477c0 28.667 -6 43 -18 43h-4z" />
    <glyph glyph-name="oe" unicode="&#x153;" horiz-adv-x="334" 
d="M101 -3c-26 0 -47.333 9 -64 27s-25 42.333 -25 73v301c0 30.667 8.33301 55 25 73s38 27 64 27h18c18.667 0 34.667 -4.66699 48 -14c14.667 9.33301 31 14 49 14h18c26 0 47.667 -8.83301 65 -26.5s26 -42.167 26 -73.5v-171h-116v-130c0 -20.667 5 -31 15 -31h4
c9.33301 0 14 11 14 33v107h83v-108c0 -32 -8.66699 -56.833 -26 -74.5s-39 -26.5 -65 -26.5h-19c-18.667 0 -34.667 4.33301 -48 13c-12.667 -8.66699 -28.667 -13 -48 -13h-18zM110 429c-10.667 0 -16 -11 -16 -33v-297c0 -22 5.33301 -33 16 -33h2
c9.33301 0 14.333 9 15 27v5v298c0 22 -5 33 -15 33h-2zM242 284v112c0 22 -4.66699 33 -14 33h-3c-10.667 0 -16 -11 -16 -33v-112h33z" />
    <glyph glyph-name="Racute" unicode="&#x154;" horiz-adv-x="252" 
d="M232 417c0 -21.333 -3.33301 -37.1689 -10 -47.502s-15 -17.166 -25 -20.499c10 -2.66699 18.333 -9.16699 25 -19.5s10 -26.166 10 -47.499v-151c0 -48 1.83301 -81.5 5.5 -100.5s6.16699 -29.167 7.5 -30.5h-89c-5.33301 8 -8.83301 22.333 -10.5 43s-2.5 50 -2.5 88
v143c0 28 -5.66699 42 -17 42h-23v-316h-89v699h119c28 0 51.5 -9 70.5 -27s28.5 -43.333 28.5 -76v-179zM126 381.997c11.333 0 17 13.333 17 40v160c0 28.667 -6.33301 43 -19 43h-21v-243h23zM85 736.997l36 86h78l-60 -86h-54z" />
    <glyph glyph-name="racute" unicode="&#x155;" horiz-adv-x="221" 
d="M113 429c-5.33301 0 -9.83008 -3.00098 -13.4971 -9.00098s-5.5 -14.667 -5.5 -26v-394h-82v495h82v-23c17.333 17.333 34.666 26 51.999 26h2c27.333 0 45.666 -11.333 54.999 -34c3.33301 -8 5.66602 -17.667 6.99902 -29s2 -23.666 2 -36.999v-107h-83v105
c0 22 -4.66699 33 -14 33h-2zM77.0029 534.999l36 86h78l-60 -86h-54z" />
    <glyph glyph-name="uni0156" unicode="&#x156;" horiz-adv-x="252" 
d="M232 417c0 -21.333 -3.33301 -37.1689 -10 -47.502s-15 -17.166 -25 -20.499c10 -2.66699 18.333 -9.16699 25 -19.5s10 -26.166 10 -47.499v-151c0 -48 1.83301 -81.5 5.5 -100.5s6.16699 -29.167 7.5 -30.5h-89c-5.33301 8 -8.83301 22.333 -10.5 43s-2.5 50 -2.5 88
v143c0 28 -5.66699 42 -17 42h-23v-316h-89v699h119c28 0 51.5 -9 70.5 -27s28.5 -43.333 28.5 -76v-179zM126 381.997c11.333 0 17 13.333 17 40v160c0 28.667 -6.33301 43 -19 43h-21v-243h23zM171 -134.003l-27 -63h-37l15 63h-42v104h91v-104z" />
    <glyph glyph-name="uni0157" unicode="&#x157;" horiz-adv-x="221" 
d="M113 429c-11.333 0 -17.6641 -10.001 -18.9971 -30.001v-399h-82v495h82v-23c17.333 17.333 34.666 26 51.999 26h2c27.333 0 45.666 -11.333 54.999 -34c3.33301 -8 5.66602 -17.667 6.99902 -29s2 -23.666 2 -36.999v-107h-83v105c0 22 -4.66699 33 -14 33h-2z
M165.002 -134.001l-27 -63h-37l15 63h-41v104h90v-104z" />
    <glyph glyph-name="Rcaron" unicode="&#x158;" horiz-adv-x="252" 
d="M232 596c0 32.667 -9.5 58.0029 -28.5 76.0029s-42.5 27 -70.5 27h-119v-699h89v316h23c11.333 0 17 -14 17 -42v-143c0 -38 0.833008 -67.333 2.5 -88s5.16699 -35 10.5 -43h89c-1.33301 1.33301 -3.83301 11.5 -7.5 30.5s-5.5 52.5 -5.5 100.5v151
c0 21.333 -3.33301 37.166 -10 47.499s-15 16.833 -25 19.5c10 3.33301 18.333 10.166 25 20.499s10 26.166 10 47.499v179zM72 738.003l-60 86h78l22 -44l23 44h77l-60 -86h-80zM103 382.003v243h21c12.667 0 19 -14.333 19 -43v-160c0 -26.667 -5.66699 -40 -17 -40h-23z
" />
    <glyph glyph-name="rcaron" unicode="&#x159;" horiz-adv-x="221" 
d="M115 429c9.33301 0 13.998 -10.999 13.998 -32.999v-105h83v107c0 13.333 -0.666992 25.666 -2 36.999s-3.66602 21 -6.99902 29c-9.33301 22.667 -27.666 34 -54.999 34h-2c-17.333 0 -34.666 -8.66699 -51.999 -26v23h-82v-495h82v399c1.33301 20 7.66602 30 18.999 30
h2zM63.998 536.001l-60 86h78l22 -43l22 43h78l-60 -86h-80z" />
    <glyph glyph-name="Sacute" unicode="&#x15a;" horiz-adv-x="244" 
d="M142 418l-0.000976562 169.998c0 15.333 -1.5 26.333 -4.5 33s-7.5 10 -13.5 10h-4c-6 0 -10.5 -3.16699 -13.5 -9.5s-4.5 -17.5 -4.5 -33.5v-79c0 -22.667 3.16699 -42.667 9.5 -60s14.333 -33.5 24 -48.5s20 -29.333 31 -43s21.333 -28.167 31 -43.5
s17.667 -31.666 24 -48.999s9.5 -37.333 9.5 -60v-107c0 -18 -2.83301 -33.667 -8.5 -47s-13.167 -24.166 -22.5 -32.499s-20 -14.5 -32 -18.5s-24.333 -6 -37 -6h-16c-12 0 -24.167 2 -36.5 6s-23.333 10.167 -33 18.5s-17.5 19.166 -23.5 32.499s-9 29 -9 47v184h81v-171
c0 -15.333 2 -26.333 6 -33s9.66699 -10 17 -10h3c14.667 0 22 14.333 22 43v80c0 22 -3.16699 41.667 -9.5 59s-14.333 33.5 -24 48.5s-20 29.333 -31 43s-21.333 28 -31 43s-17.667 31.333 -24 49s-9.5 37.834 -9.5 60.501v107c0 18 2.83301 33.667 8.5 47
s13.334 24.166 23.001 32.499s20.5 14.5 32.5 18.5s24.333 6 37 6h10c12 0 24 -2 36 -6s22.667 -10.167 32 -18.5s16.833 -19.166 22.5 -32.499s8.5 -29 8.5 -47v-183h-81zM93.999 737.998l36 86h77l-60 -86h-53z" />
    <glyph glyph-name="sacute" unicode="&#x15b;" 
d="M127 300l-0.00195312 96c0 9.33301 -1.33301 17.166 -4 23.499s-6.66699 9.5 -12 9.5h-2c-5.33301 0 -9.16602 -3.16699 -11.499 -9.5s-3.5 -14.166 -3.5 -23.499v-43c0 -21.333 6 -39 18 -53s25.167 -28 39.5 -42s27.5 -29.333 39.5 -46s18 -38 18 -64v-51
c0 -30.667 -8.5 -55 -25.5 -73s-38.5 -27 -64.5 -27h-17c-26.667 0 -48.334 9 -65.001 27s-25 42.333 -25 73v98h74v-96c0 -22 6.33301 -33 19 -33h3c12.667 0 19 11 19 33v43c0 20.667 -6 38.167 -18 52.5s-25.167 28.5 -39.5 42.5s-27.5 29.333 -39.5 46s-18 38 -18 64v51
c0 30 8.33301 54.167 25 72.5s38.334 27.5 65.001 27.5h9c26.667 0 48.334 -9 65.001 -27s25 -42.333 25 -73v-98h-74zM78.998 535l36 86h77l-60 -86h-53z" />
    <glyph glyph-name="Scircumflex" unicode="&#x15c;" horiz-adv-x="244" 
d="M142 418l-0.000976562 169.998c0 15.333 -1.5 26.333 -4.5 33s-7.5 10 -13.5 10h-4c-6 0 -10.5 -3.16699 -13.5 -9.5s-4.5 -17.5 -4.5 -33.5v-79c0 -22.667 3.16699 -42.667 9.5 -60s14.333 -33.5 24 -48.5s20 -29.333 31 -43s21.333 -28.167 31 -43.5
s17.667 -31.666 24 -48.999s9.5 -37.333 9.5 -60v-107c0 -18 -2.83301 -33.667 -8.5 -47s-13.167 -24.166 -22.5 -32.499s-20 -14.5 -32 -18.5s-24.333 -6 -37 -6h-16c-12 0 -24.167 2 -36.5 6s-23.333 10.167 -33 18.5s-17.5 19.166 -23.5 32.499s-9 29 -9 47v184h81v-171
c0 -15.333 2 -26.333 6 -33s9.66699 -10 17 -10h3c14.667 0 22 14.333 22 43v80c0 22 -3.16699 41.667 -9.5 59s-14.333 33.5 -24 48.5s-20 29.333 -31 43s-21.333 28 -31 43s-17.667 31.333 -24 49s-9.5 37.834 -9.5 60.501v107c0 18 2.83301 33.667 8.5 47
s13.334 24.166 23.001 32.499s20.5 14.5 32.5 18.5s24.333 6 37 6h10c12 0 24 -2 36 -6s22.667 -10.167 32 -18.5s16.833 -19.166 22.5 -32.499s8.5 -29 8.5 -47v-183h-81zM161.999 823.998l60 -86h-78l-22 43l-22 -43h-78l60 86h80z" />
    <glyph glyph-name="scircumflex" unicode="&#x15d;" 
d="M127 300l-0.00195312 96c0 9.33301 -1.33301 17.166 -4 23.499s-6.66699 9.5 -12 9.5h-2c-5.33301 0 -9.16602 -3.16699 -11.499 -9.5s-3.5 -14.166 -3.5 -23.499v-43c0 -21.333 6 -39 18 -53s25.167 -28 39.5 -42s27.5 -29.333 39.5 -46s18 -38 18 -64v-51
c0 -30.667 -8.5 -55 -25.5 -73s-38.5 -27 -64.5 -27h-17c-26.667 0 -48.334 9 -65.001 27s-25 42.333 -25 73v98h74v-96c0 -22 6.33301 -33 19 -33h3c12.667 0 19 11 19 33v43c0 20.667 -6 38.167 -18 52.5s-25.167 28.5 -39.5 42.5s-27.5 29.333 -39.5 46s-18 38 -18 64v51
c0 30 8.33301 54.167 25 72.5s38.334 27.5 65.001 27.5h9c26.667 0 48.334 -9 65.001 -27s25 -42.333 25 -73v-98h-74zM146.998 621l60 -86h-78l-22 43l-22 -43h-78l60 86h80z" />
    <glyph glyph-name="Scedilla" unicode="&#x15e;" horiz-adv-x="244" 
d="M68 -68c6 -4 13.001 -6.99805 21.001 -8.99805s15.5 -2.5 22.5 -1.5s12.5 3.33301 16.5 7s5.66699 8.5 5 14.5c-1.33301 7.33301 -6 11.666 -14 12.999s-15.667 -0.333984 -23 -5.00098l-17 6l19 38c-22 3.33301 -41.667 13.166 -59 29.499s-26 40.833 -26 73.5v184h81
v-171c0 -15.333 2 -26.333 6 -33s9.66699 -10 17 -10h3c14.667 0 22 14.333 22 43v80c0 22 -3.16699 41.667 -9.5 59s-14.333 33.5 -24 48.5s-20 29.333 -31 43s-21.333 28 -31 43s-17.667 31.333 -24 49s-9.5 37.834 -9.5 60.501v107c0 18 2.83301 33.667 8.5 47
s13.334 24.166 23.001 32.499s20.5 14.5 32.5 18.5s24.333 6 37 6h10c12 0 24 -2 36 -6s22.667 -10.167 32 -18.5s16.833 -19.166 22.5 -32.499s8.5 -29 8.5 -47v-183h-81v170c0 15.333 -1.5 26.333 -4.5 33s-7.5 10 -13.5 10h-4c-6 0 -10.5 -3.16699 -13.5 -9.5
s-4.5 -17.5 -4.5 -33.5v-79c0 -22.667 3.16699 -42.667 9.5 -60s14.333 -33.5 24 -48.5s20 -29.333 31 -43s21.333 -28.167 31 -43.5s17.667 -31.666 24 -48.999s9.5 -37.333 9.5 -60v-107c0 -32.667 -8.33301 -57.167 -25 -73.5s-36.334 -26.166 -59.001 -29.499l-8 -21
c12.667 5.33301 24.667 5.16602 36 -0.500977s17 -15.167 17 -28.5c0 -18.667 -5.5 -33.167 -16.5 -43.5s-23.833 -17.333 -38.5 -21s-29.334 -4.33398 -44.001 -2.00098s-26 6.83301 -34 13.5z" />
    <glyph glyph-name="scedilla" unicode="&#x15f;" 
d="M55 -67c6 -4 12.999 -6.83203 20.999 -8.49902s15.5 -2 22.5 -1s12.5 3.16699 16.5 6.5s5.66699 8 5 14c-1.33301 7.33301 -6 11.833 -14 13.5s-15.333 -0.166016 -22 -5.49902l-18 7l21 39c-22.667 3.33301 -40.834 13.666 -54.501 30.999s-20.5 40 -20.5 68v98h74v-96
c0 -22 6.33301 -33 19 -33h3c12.667 0 19 11 19 33v43c0 20.667 -6 38.167 -18 52.5s-25.167 28.5 -39.5 42.5s-27.5 29.333 -39.5 46s-18 38 -18 64v51c0 30 8.33301 54.167 25 72.5s38.334 27.5 65.001 27.5h9c26.667 0 48.334 -9 65.001 -27s25 -42.333 25 -73v-98h-74
v96c0 9.33301 -1.33301 17.166 -4 23.499s-6.66699 9.5 -12 9.5h-2c-5.33301 0 -9.16602 -3.16699 -11.499 -9.5s-3.5 -14.166 -3.5 -23.499v-43c0 -21.333 6 -39 18 -53s25.167 -28 39.5 -42s27.5 -29.333 39.5 -46s18 -38 18 -64v-51c0 -28 -6.83301 -50.5 -20.5 -67.5
s-31.5 -27.167 -53.5 -30.5l-8 -24c12.667 5.33301 24.5 5.33301 35.5 0s16.5 -15 16.5 -29c0 -18.667 -5.5 -33.167 -16.5 -43.5s-23.833 -17.333 -38.5 -21s-29.334 -4.33398 -44.001 -2.00098s-25.667 6.83301 -33 13.5z" />
    <glyph glyph-name="Scaron" unicode="&#x160;" horiz-adv-x="244" 
d="M223 418l0.000976562 183.002c0 18 -2.83301 33.667 -8.5 47s-13.167 24.166 -22.5 32.499s-20 14.5 -32 18.5s-24 6 -36 6h-10c-12.667 0 -25 -2 -37 -6s-22.833 -10.167 -32.5 -18.5s-17.334 -19.166 -23.001 -32.499s-8.5 -29 -8.5 -47v-107
c0 -22.667 3.16699 -42.834 9.5 -60.501s14.333 -34 24 -49s20 -29.333 31 -43s21.333 -28 31 -43s17.667 -31.167 24 -48.5s9.5 -37 9.5 -59v-80c0 -28.667 -7.33301 -43 -22 -43h-3c-7.33301 0 -13 3.33301 -17 10s-6 17.667 -6 33v171h-81v-184c0 -18 3 -33.667 9 -47
s13.833 -24.166 23.5 -32.499s20.667 -14.5 33 -18.5s24.5 -6 36.5 -6h16c12.667 0 25 2 37 6s22.667 10.167 32 18.5s16.833 19.166 22.5 32.499s8.5 29 8.5 47v107c0 22.667 -3.16699 42.667 -9.5 60s-14.333 33.666 -24 48.999s-20 29.833 -31 43.5s-21.333 28 -31 43
s-17.667 31.167 -24 48.5s-9.5 37.333 -9.5 60v79c0 16 1.5 27.167 4.5 33.5s7.5 9.5 13.5 9.5h4c6 0 10.5 -3.33301 13.5 -10s4.5 -17.667 4.5 -33v-170h81zM81.001 739.002l-60 86h78l22 -43l22 43h78l-60 -86h-80z" />
    <glyph glyph-name="scaron" unicode="&#x161;" 
d="M201 300l0.00195312 98c0 30.667 -8.33301 55 -25 73s-38.334 27 -65.001 27h-9c-26.667 0 -48.334 -9.16699 -65.001 -27.5s-25 -42.5 -25 -72.5v-51c0 -26 6 -47.333 18 -64s25.167 -32 39.5 -46s27.5 -28.167 39.5 -42.5s18 -31.833 18 -52.5v-43
c0 -22 -6.33301 -33 -19 -33h-3c-12.667 0 -19 11 -19 33v96h-74v-98c0 -30.667 8.33301 -55 25 -73s38.334 -27 65.001 -27h17c26 0 47.5 9 64.5 27s25.5 42.333 25.5 73v51c0 26 -6 47.333 -18 64s-25.167 32 -39.5 46s-27.5 28 -39.5 42s-18 31.667 -18 53v43
c0 9.33301 1.16699 17.166 3.5 23.499s6.16602 9.5 11.499 9.5h2c5.33301 0 9.33301 -3.16699 12 -9.5s4 -14.166 4 -23.499v-96h74zM66.002 536l-60 86h78l22 -43l22 43h78l-60 -86h-80z" />
    <glyph glyph-name="Tcedilla" unicode="&#x162;" horiz-adv-x="231" 
d="M229 625h-69v-625h-89v625h-69v74h227v-74zM51 -104l8 40c6 -4 13 -6.83301 21 -8.5s15.5 -2 22.5 -1s12.5 3.16699 16.5 6.5s5.66699 8 5 14c-1.33301 7.33301 -5.83301 11.833 -13.5 13.5s-15.167 -0.166016 -22.5 -5.49902l-18 7l21 38h48l-8 -22
c12.667 5.33301 24.667 5.33301 36 0s17 -15 17 -29c0 -18.667 -5.5 -33.167 -16.5 -43.5s-23.833 -17.333 -38.5 -21s-29.5 -4.33398 -44.5 -2.00098s-26.167 6.83301 -33.5 13.5z" />
    <glyph glyph-name="tcedilla" unicode="&#x163;" horiz-adv-x="159" 
d="M114 657l-0.000976562 -162.002h37v-69h-37v-329c0 -12.667 3.33301 -22 10 -28s15.667 -7.33301 27 -4v-66c-1.33301 0 -2.66602 -0.166992 -3.99902 -0.5s-2.66602 -0.5 -3.99902 -0.5l-7 -19c12.667 6 24.667 6.16699 36 0.5s17 -15.5 17 -29.5
c0 -18.667 -5.5 -33.167 -16.5 -43.5s-23.833 -17.333 -38.5 -21s-29.5 -4.16699 -44.5 -1.5s-26.167 7.33398 -33.5 14.001l8 40c6 -4 13 -7 21 -9s15.5 -2.5 22.5 -1.5s12.667 3.33301 17 7s6.16602 8.5 5.49902 14.5c-1.33301 6.66699 -6 10.834 -14 12.501
s-15.667 0.166992 -23 -4.5l-17 6l19 37c-23.333 6 -39.833 17.833 -49.5 35.5s-14.5 38.167 -14.5 61.5v329h-23v69h23v154z" />
    <glyph glyph-name="Tcaron" unicode="&#x164;" horiz-adv-x="231" 
d="M229 699h-227v-74h69v-625h89v625h69v74zM75 738l-60 86h78l22 -44l23 44h77l-60 -86h-80z" />
    <glyph glyph-name="tcaron" unicode="&#x165;" horiz-adv-x="271" 
d="M114 657l-0.00195312 -161.999h37v-69h-37v-329c0 -12.667 3.33301 -22 10 -28s15.667 -7.33301 27 -4v-66c-22 -3.33301 -40.667 -2.83301 -56 1.5s-27.666 11 -36.999 20s-16.166 20.167 -20.499 33.5s-6.5 27.666 -6.5 42.999v329h-23v69h23v154zM246.998 553.001
l-27 -63h-37l15 63h-41v104h90v-104z" />
    <glyph glyph-name="_0144" unicode="&#x166;" horiz-adv-x="231" 
d="M196 316h-36v-316h-89v316h-36v60h36v249h-69v74h227v-74h-69v-249h36v-60z" />
    <glyph glyph-name="tbar" unicode="&#x167;" horiz-adv-x="159" 
d="M114 657l-0.00195312 -161.999h37v-69h-37v-61h37v-69h-37v-199c0 -12.667 3.33301 -22 10 -28s15.667 -7.33301 27 -4v-66c-22 -3.33301 -40.667 -2.83301 -56 1.5s-27.666 11 -36.999 20s-16.166 20.167 -20.499 33.5s-6.5 27.666 -6.5 42.999v199h-23v69h23v61h-23v69
h23v154z" />
    <glyph glyph-name="Utilde" unicode="&#x168;" horiz-adv-x="245" 
d="M114 -6c-12 0 -23.999 2 -35.999 6s-22.833 10.167 -32.5 18.5s-17.334 19.166 -23.001 32.499s-8.5 29 -8.5 47v601h89v-588c0 -28.667 6 -43 18 -43h4c12 0 18 14.333 18 43v588h89v-601c0 -18 -2.83301 -33.667 -8.5 -47s-13.167 -24.166 -22.5 -32.499
s-20 -14.5 -32 -18.5s-24.333 -6 -37 -6h-18zM23.001 776c7.33301 14.667 15.501 24.999 24.501 30.999s17.5 9 25.5 9c12 0 23.167 -3 33.5 -9s21.5 -9 33.5 -9c4.66699 0 8.83398 1 12.501 3s8.16699 5.66699 13.5 11l39 -25c-8 -15.333 -16.5 -25.666 -25.5 -30.999
s-18.167 -8 -27.5 -8c-12.667 0 -23.834 2.83301 -33.501 8.5s-19.5 8.5 -29.5 8.5c-4.66699 0 -9.33398 -0.833008 -14.001 -2.5s-9.66699 -5.5 -15 -11.5z" />
    <glyph glyph-name="utilde" unicode="&#x169;" horiz-adv-x="221" 
d="M107 66c-10 0 -15.001 11 -15.001 33v396h-82v-398c0 -30.667 4 -55 12 -73s25 -27 51 -27h3c17.333 0 34.333 8.33301 51 25v-22h83v495h-83v-394c0 -11.333 -1.66699 -20 -5 -26s-7.66602 -9 -12.999 -9h-2zM18.999 572c7.33301 14.667 15.501 24.999 24.501 30.999
s17.833 9 26.5 9c11.333 0 22.166 -3 32.499 -9s21.5 -9 33.5 -9c4.66699 0 8.83398 1 12.501 3s8.16699 5.66699 13.5 11l40 -25c-8.66699 -15.333 -17.5 -25.666 -26.5 -30.999s-18.167 -8 -27.5 -8c-12.667 0 -23.834 2.83301 -33.501 8.5s-19.167 8.5 -28.5 8.5
c-5.33301 0 -10.333 -0.833008 -15 -2.5s-9.66699 -5.5 -15 -11.5z" />
    <glyph glyph-name="Umacron" unicode="&#x16a;" horiz-adv-x="245" 
d="M114 -6c-12 0 -23.999 2 -35.999 6s-22.833 10.167 -32.5 18.5s-17.334 19.166 -23.001 32.499s-8.5 29 -8.5 47v601h89v-588c0 -28.667 6 -43 18 -43h4c12 0 18 14.333 18 43v588h89v-601c0 -18 -2.83301 -33.667 -8.5 -47s-13.167 -24.166 -22.5 -32.499
s-20 -14.5 -32 -18.5s-24.333 -6 -37 -6h-18zM186.001 751h-145v61h145v-61z" />
    <glyph glyph-name="umacron" unicode="&#x16b;" horiz-adv-x="221" 
d="M109 66c10 0 16 9.33301 18 28v401h83v-495h-83v22c-16.667 -16.667 -33.667 -25 -51 -25h-3c-26 0 -43 9 -51 27s-12 42.333 -12 73v398h82v-396c0 -22 5 -33 15 -33h2zM182 547h-145v61h145v-61z" />
    <glyph glyph-name="Ubreve" unicode="&#x16c;" horiz-adv-x="245" 
d="M114 -6c-12 0 -23.999 2 -35.999 6s-22.833 10.167 -32.5 18.5s-17.334 19.166 -23.001 32.499s-8.5 29 -8.5 47v601h89v-588c0 -28.667 6 -43 18 -43h4c12 0 18 14.333 18 43v588h89v-601c0 -18 -2.83301 -33.667 -8.5 -47s-13.167 -24.166 -22.5 -32.499
s-20 -14.5 -32 -18.5s-24.333 -6 -37 -6h-18zM92.001 819c0 -6 2.16699 -11.333 6.5 -16s9.5 -7 15.5 -7s11.333 2.33301 16 7s7 10 7 16h53c0 -20 -7.5 -37.333 -22.5 -52s-32.833 -22 -53.5 -22c-9.33301 0 -18.5 2 -27.5 6s-16.833 9.33301 -23.5 16s-12 14.5 -16 23.5
s-6 18.5 -6 28.5h51z" />
    <glyph glyph-name="ubreve" unicode="&#x16d;" horiz-adv-x="221" 
d="M107 66c-10 0 -15 11 -15 33v396h-82v-398c0 -30.667 4 -55 12 -73s25 -27 51 -27h3c17.333 0 34.333 8.33301 51 25v-22h83v495h-83v-401c-2 -18.667 -8 -28 -18 -28h-2zM88 615c0 -6 2.16699 -11.333 6.5 -16s9.83301 -7 16.5 -7c6 0 11.167 2.33301 15.5 7
s6.5 10 6.5 16h53c0 -20 -7.5 -37.333 -22.5 -52s-32.833 -22 -53.5 -22c-9.33301 0 -18.5 2 -27.5 6s-16.833 9.33301 -23.5 16s-12 14.5 -16 23.5s-6 18.5 -6 28.5h51z" />
    <glyph glyph-name="Uring" unicode="&#x16e;" horiz-adv-x="245" 
d="M114 -6c-12 0 -23.999 2 -35.999 6s-22.833 10.167 -32.5 18.5s-17.334 19.166 -23.001 32.499s-8.5 29 -8.5 47v601h89v-588c0 -28.667 6 -43 18 -43h4c12 0 18 14.333 18 43v588h89v-601c0 -18 -2.83301 -33.667 -8.5 -47s-13.167 -24.166 -22.5 -32.499
s-20 -14.5 -32 -18.5s-24.333 -6 -37 -6h-18zM114.001 726c-8.66699 0 -17.001 1.83203 -25.001 5.49902s-15.167 8.5 -21.5 14.5s-11.333 13 -15 21s-5.5 16.333 -5.5 25c0 9.33301 1.83301 18.166 5.5 26.499s8.5 15.833 14.5 22.5s13 11.834 21 15.501s16.333 5.5 25 5.5
c18.667 0 34.834 -6.83301 48.501 -20.5s20.5 -30.167 20.5 -49.5c0 -17.333 -6.5 -32.666 -19.5 -45.999s-29.167 -20 -48.5 -20zM114 815.999c-5.33301 0 -10.5 -2.33301 -15.5 -7s-7.5 -10 -7.5 -16c0 -5.33301 2.5 -10.333 7.5 -15s10.167 -7 15.5 -7
c6 0 11.167 2.33301 15.5 7s6.5 9.66699 6.5 15c0 6 -2.16699 11.333 -6.5 16s-9.5 7 -15.5 7z" />
    <glyph glyph-name="uring" unicode="&#x16f;" horiz-adv-x="221" 
d="M107 66c-10 0 -15 11 -15 33v396h-82v-398c0 -30.667 4 -55 12 -73s25 -27 51 -27h3c17.333 0 34.333 8.33301 51 25v-22h83v495h-83v-401c-2 -18.667 -8 -28 -18 -28h-2zM110 522c-8.66699 0 -17.001 1.83203 -25.001 5.49902s-15.167 8.5 -21.5 14.5s-11.333 13 -15 21
s-5.5 16.333 -5.5 25c0 9.33301 1.83301 18.166 5.5 26.499s8.5 15.833 14.5 22.5s13 11.834 21 15.501s16.333 5.5 25 5.5c18.667 0 35 -6.83301 49 -20.5s21 -30.167 21 -49.5c0 -17.333 -6.66699 -32.666 -20 -45.999s-29.666 -20 -48.999 -20zM109.999 611.999
c-5.33301 0 -10.333 -2.33301 -15 -7s-7 -10 -7 -16c0 -5.33301 2.33301 -10.333 7 -15s9.66699 -7 15 -7c6 0 11.167 2.33301 15.5 7s6.5 9.66699 6.5 15c0 6 -2.16699 11.333 -6.5 16s-9.5 7 -15.5 7z" />
    <glyph glyph-name="Uhungarumlaut" unicode="&#x170;" horiz-adv-x="245" 
d="M114 -6c-12 0 -23.999 2 -35.999 6s-22.833 10.167 -32.5 18.5s-17.334 19.166 -23.001 32.499s-8.5 29 -8.5 47v601h89v-588c0 -28.667 6 -43 18 -43h4c12 0 18 14.333 18 43v588h89v-601c0 -18 -2.83301 -33.667 -8.5 -47s-13.167 -24.166 -22.5 -32.499
s-20 -14.5 -32 -18.5s-24.333 -6 -37 -6h-18zM30.001 736l36 86h77l-60 -86h-53zM124.001 736l36 86h77l-60 -86h-53z" />
    <glyph glyph-name="uhungarumlaut" unicode="&#x171;" horiz-adv-x="221" 
d="M109 66c5.33301 0 9.66699 3 13 9s5 14.667 5 26v394h83v-495h-83v22c-16.667 -16.667 -33.667 -25 -51 -25h-3c-26 0 -43 9 -51 27s-12 42.333 -12 73v398h82v-396c0 -22 5 -33 15 -33h2zM34.001 532l36 86h78l-60 -86h-54zM128.001 532l36 86h78l-60 -86h-54z" />
    <glyph glyph-name="Uogonek" unicode="&#x172;" horiz-adv-x="245" 
d="M180 -74c-6 -12.667 -15.001 -21.665 -27.001 -26.998s-24 -7.16602 -36 -5.49902s-22.5 6.66699 -31.5 15s-13.5 19.5 -13.5 33.5c0 20 9.33301 37.667 28 53c-22.667 2.66699 -42.667 12.167 -60 28.5s-26 41.166 -26 74.499v601h89v-588c0 -28.667 6 -43 18 -43h4
c12 0 18 14.333 18 43v588h89v-601c0 -30 -7.16699 -53 -21.5 -69s-31.166 -26.333 -50.499 -31c-11.333 -6 -20.833 -13.5 -28.5 -22.5s-11.5 -16.833 -11.5 -23.5c0.666992 -8.66699 4.5 -13.834 11.5 -15.501s13.5 1.16602 19.5 8.49902z" />
    <glyph glyph-name="uogonek" unicode="&#x173;" horiz-adv-x="221" 
d="M109 66c5.33301 0 9.66699 3.00098 13 9.00098s5 14.667 5 26v394h83v-495h2c-13.333 -3.33301 -24 -9.33301 -32 -18s-11.667 -16.667 -11 -24c0.666992 -8.66699 4.5 -13.834 11.5 -15.501s13.5 1.16602 19.5 8.49902l29 -19c-6 -12.667 -15.167 -21.667 -27.5 -27
s-24.5 -7.16602 -36.5 -5.49902s-22.5 6.66699 -31.5 15s-13.5 19.5 -13.5 33.5c0 20 9.33301 37.333 28 52h-21v22c-16.667 -16.667 -33.667 -25 -51 -25h-3c-26 0 -43 9 -51 27s-12 42.333 -12 73v398h82v-396c0 -22 5 -33 15 -33h2z" />
    <glyph glyph-name="Wcircumflex" unicode="&#x174;" horiz-adv-x="367" 
d="M54 0l-51 699h84l26 -389h3l34 389h70l38 -389h2l26 389h78l-52 -699h-86l-40 344h-1l-34 -344h-97zM223 823l60 -86h-78l-22 43l-22 -43h-78l60 86h80z" />
    <glyph glyph-name="wcircumflex" unicode="&#x175;" horiz-adv-x="345" 
d="M53 0l-51 495h77l25 -275h2l34 275h71l35 -275h2l26 275h69l-51 -495h-89l-34 312h-2l-26 -312h-88zM216 619l60 -86h-78l-23 44l-22 -44h-78l60 86h81z" />
    <glyph glyph-name="Ycircumflex" unicode="&#x176;" horiz-adv-x="246" 
d="M168 254l-1 -254h-88v254l-77 445h89l30 -243h4l30 243h89zM164 823l60 -86h-78l-23 44l-22 -44h-78l60 86h81z" />
    <glyph glyph-name="ycircumflex" unicode="&#x177;" horiz-adv-x="204" 
d="M135 495h67l-62 -660h-81l19 165l-76 495h75l28 -268h3zM147 619l60 -86h-78l-22 43l-22 -43h-78l60 86h80z" />
    <glyph glyph-name="Ydieresis" unicode="&#x178;" horiz-adv-x="246" 
d="M244 699h-89l-30 -243h-4l-30 243h-89l77 -445v-254h88l1 254zM106 746h-58v71h58v-71zM199 746h-59v71h59v-71z" />
    <glyph glyph-name="Zacute" unicode="&#x179;" horiz-adv-x="233" 
d="M226 0h-219v66l120 567h-101v66h190v-66l-120 -567h130v-66zM89 738l36 86h77l-60 -86h-53z" />
    <glyph glyph-name="zacute" unicode="&#x17a;" horiz-adv-x="201" 
d="M197 0h-195v67l115 362h-105v66h186v-66l-115 -362h114v-67zM77 535l36 86h77l-60 -86h-53z" />
    <glyph glyph-name="Zdotaccent" unicode="&#x17b;" horiz-adv-x="233" 
d="M226 0h-219v66l120 567h-101v66h190v-66l-120 -567h130v-66zM144 747h-58v72h58v-72z" />
    <glyph glyph-name="zdotaccent" unicode="&#x17c;" horiz-adv-x="201" 
d="M197 0h-195v67l115 362h-105v66h186v-66l-115 -362h114v-67zM132 544h-58v72h58v-72z" />
    <glyph glyph-name="Zcaron" unicode="&#x17d;" horiz-adv-x="233" 
d="M226 0h-219v66l120 567h-101v66h190v-66l-120 -567h130v-66zM76 739l-60 86h78l22 -43l22 43h78l-60 -86h-80z" />
    <glyph glyph-name="zcaron" unicode="&#x17e;" horiz-adv-x="201" 
d="M197 0h-195v67l115 362h-105v66h186v-66l-115 -362h114v-67zM64 536l-60 86h78l22 -43l22 43h78l-60 -86h-80z" />
    <glyph glyph-name="longs" unicode="&#x17f;" horiz-adv-x="181" 
d="M12 495l23 -0.000976562v111c0 15.333 2.83301 29.833 8.5 43.5s14.5 25.167 26.5 34.5s27 15.833 45 19.5s39.333 2.83398 64 -2.49902v-66c-5.33301 0.666992 -11.5 0.666992 -18.5 0s-13.667 -2.16699 -20 -4.5s-11.833 -6 -16.5 -11s-7 -11.833 -7 -20.5v-599h-82
v426h-23v69z" />
    <glyph glyph-name="florin" unicode="&#x192;" horiz-adv-x="234" 
d="M16 495l60.001 -0.00195312v111c0 15.333 2.83301 29.833 8.5 43.5s14.5 25.167 26.5 34.5s27 15.833 45 19.5s39.333 2.83398 64 -2.49902v-66c-5.33301 0.666992 -11.5 0.666992 -18.5 0s-13.667 -2.16699 -20 -4.5s-11.833 -6 -16.5 -11s-7 -11.833 -7 -20.5v-104h60
v-69h-60v-498c0 -15.333 -2.83301 -29.833 -8.5 -43.5s-14.5 -25.167 -26.5 -34.5s-27 -15.666 -45 -18.999s-39.333 -2.33301 -64 3v65c4.66699 -0.666992 10.667 -0.666992 18 0s14.166 2.16699 20.499 4.5s11.833 6 16.5 11s7 11.833 7 20.5v491h-60v69z" />
    <glyph glyph-name="circumflex" unicode="&#x2c6;" horiz-adv-x="228" 
d="M154 669l60 -86h-78l-22 43l-22 -43h-78l60 86h80z" />
    <glyph glyph-name="caron" unicode="&#x2c7;" horiz-adv-x="248" 
d="M84 584l-60 86h78l22 -43l22 43h78l-60 -86h-80z" />
    <glyph glyph-name="breve" unicode="&#x2d8;" horiz-adv-x="196" 
d="M75 665c0 -6 2.16797 -11.333 6.50098 -16s9.5 -7 15.5 -7s11.333 2.33301 16 7s7 10 7 16h52c0 -20 -7.33301 -37.333 -22 -52s-32.667 -22 -54 -22c-18.667 0 -35.334 7.33301 -50.001 22s-22 32 -22 52h51z" />
    <glyph glyph-name="dotaccent" unicode="&#x2d9;" horiz-adv-x="106" 
d="M82 593h-58v71h58v-71z" />
    <glyph glyph-name="ring" unicode="&#x2da;" horiz-adv-x="184" 
d="M91 556c-8.66699 0 -17.001 1.83203 -25.001 5.49902s-15.167 8.5 -21.5 14.5s-11.333 13 -15 21s-5.5 16.333 -5.5 25c0 9.33301 1.83301 18.166 5.5 26.499s8.5 15.833 14.5 22.5s13 11.834 21 15.501s16.333 5.5 25 5.5c18.667 0 35 -6.83301 49 -20.5
s21 -30.167 21 -49.5c0 -17.333 -6.66699 -32.666 -20 -45.999s-29.666 -20 -48.999 -20zM90.999 645.999c-5.33301 0 -10.333 -2.33301 -15 -7s-7 -10 -7 -16c0 -5.33301 2.33301 -10.333 7 -15s9.66699 -7 15 -7c6 0 11.167 2.33301 15.5 7s6.5 9.66699 6.5 15
c0 6 -2.16699 11.333 -6.5 16s-9.5 7 -15.5 7z" />
    <glyph glyph-name="ogonek" unicode="&#x2db;" horiz-adv-x="157" 
d="M133 -68c-6.66699 -12.667 -16 -21.666 -28 -26.999s-24 -7.16602 -36 -5.49902s-22.5 6.66699 -31.5 15s-13.5 19.5 -13.5 33.5c0 20 9 37.333 27 52h64c-12.667 -3.33301 -23 -9.33301 -31 -18s-11.667 -16.667 -11 -24c0.666992 -8.66699 4.5 -13.834 11.5 -15.501
s13.167 1.16602 18.5 8.49902z" />
    <glyph glyph-name="tilde" unicode="&#x2dc;" horiz-adv-x="230" 
d="M24 622c7.33301 14.667 15.502 24.999 24.502 30.999s17.5 9 25.5 9c12 0 23.167 -3 33.5 -9s21.5 -9 33.5 -9c7.33301 0 15.666 4.66699 24.999 14l40 -25c-8 -15.333 -16.667 -25.666 -26 -30.999s-18.333 -8 -27 -8c-12.667 0 -23.834 2.83301 -33.501 8.5
s-19.5 8.5 -29.5 8.5c-4.66699 0 -9.5 -0.833008 -14.5 -2.5s-10.167 -5.16699 -15.5 -10.5z" />
    <glyph glyph-name="hungarumlaut" unicode="&#x2dd;" horiz-adv-x="256" 
d="M118 582l36 86h78l-60 -86h-54zM24 582l36 86h78l-60 -86h-54z" />
    <glyph glyph-name="endash" unicode="&#x2013;" horiz-adv-x="326" 
d="M312 320h-298v60h298v-60z" />
    <glyph glyph-name="emdash" unicode="&#x2014;" horiz-adv-x="465" 
d="M452 320h-438v60h438v-60z" />
    <glyph glyph-name="quoteleft" unicode="&#x2018;" horiz-adv-x="141" 
d="M24 622l27 63h37l-15 -63h41v-104h-90v104z" />
    <glyph glyph-name="quoteright" unicode="&#x2019;" horiz-adv-x="141" 
d="M117 576l-27 -63h-36l15 63h-42v103h90v-103z" />
    <glyph glyph-name="quotesinglbase" unicode="&#x201a;" horiz-adv-x="141" 
d="M117 0l-27 -63h-36l15 63h-42v104h90v-104z" />
    <glyph glyph-name="quotedblleft" unicode="&#x201c;" horiz-adv-x="274" 
d="M24 622l27 63h37l-15 -63h41v-104h-90v104zM156 622l27 63h37l-15 -63h42v-104h-91v104z" />
    <glyph glyph-name="quotedblright" unicode="&#x201d;" horiz-adv-x="274" 
d="M117 595l-27 -63h-36l15 63h-42v104h90v-104zM250 595l-27 -63h-37l15 63h-42v104h91v-104z" />
    <glyph glyph-name="quotedblbase" unicode="&#x201e;" horiz-adv-x="274" 
d="M117 0l-27 -63h-36l15 63h-42v104h90v-104zM250 0l-27 -63h-37l15 63h-42v104h91v-104z" />
    <glyph glyph-name="dagger" unicode="&#x2020;" horiz-adv-x="211" 
d="M146 699v-264h51v-69h-51v-531h-82v531h-50v69h50v264h82z" />
    <glyph glyph-name="daggerdbl" unicode="&#x2021;" horiz-adv-x="211" 
d="M146 699v-264h51v-69h-51v-198h51v-69h-51v-264h-82v264h-50v69h50v198h-50v69h50v264h82z" />
    <glyph glyph-name="bullet" unicode="&#x2022;" horiz-adv-x="138" 
d="M69 192c-16.667 0 -30.167 6 -40.5 18s-15.5 24.667 -15.5 38c0 18 6 31.833 18 41.5s24.667 14.5 38 14.5c18 0 31.833 -6 41.5 -18s14.5 -24.667 14.5 -38c0 -18 -6 -31.833 -18 -41.5s-24.667 -14.5 -38 -14.5z" />
    <glyph glyph-name="ellipsis" unicode="&#x2026;" horiz-adv-x="403" 
d="M114 0h-90v104h90v-104zM247 0h-91v104h91v-104zM379 0h-90v104h90v-104z" />
    <glyph glyph-name="perthousand" unicode="&#x2030;" horiz-adv-x="639" 
d="M307 699l-229 -699h63l230 699h-64zM87 302c-21.333 0 -39 7.5 -53 22.5s-21 35.167 -21 60.5v237c0 25.333 7 45.5 21 60.5s31.667 22.5 53 22.5h16c21.333 0 39.166 -7.5 53.499 -22.5s21.5 -35.167 21.5 -60.5v-237c0 -25.333 -7.16699 -45.5 -21.5 -60.5
s-32.166 -22.5 -53.499 -22.5h-16zM94 650c-9.33301 0 -14 -10.333 -14 -31v-232c0 -20 4.66699 -30 14 -30h4c9.33301 0 14 10 14 30v232c0 20.667 -4.66699 31 -14 31h-4zM348 -6c-21.333 0 -39 7.5 -53 22.5s-21 35.167 -21 60.5v239c0 25.333 7 45.5 21 60.5
s31.667 22.5 53 22.5h16c21.333 0 39.166 -7.5 53.499 -22.5s21.5 -35.167 21.5 -60.5v-239c0 -25.333 -7.16699 -45.5 -21.5 -60.5s-32.166 -22.5 -53.499 -22.5h-16zM355 344c-10 0 -15 -10.333 -15 -31v-234c0 -20 5 -30 15 -30h4c9.33301 0 14 10 14 30v234
c0 20.667 -4.66699 31 -14 31h-4zM535 -6c-21.333 0 -39 7.5 -53 22.5s-21 35.167 -21 60.5v239c0 25.333 7 45.5 21 60.5s31.667 22.5 53 22.5h15c22 0 40.167 -7.5 54.5 -22.5s21.5 -35.167 21.5 -60.5v-239c0 -25.333 -7.16699 -45.5 -21.5 -60.5
s-32.5 -22.5 -54.5 -22.5h-15zM542 344c-10 0 -15 -10.333 -15 -31v-234c0 -20 5 -30 15 -30h4c8.66699 0 13 10 13 30v234c0 20.667 -4.33301 31 -13 31h-4z" />
    <glyph glyph-name="guilsinglleft" unicode="&#x2039;" horiz-adv-x="154" 
d="M62 39l-48 203l46 201h77l-46 -202l49 -202h-78z" />
    <glyph glyph-name="guilsinglright" unicode="&#x203a;" horiz-adv-x="154" 
d="M14 39l49 202l-46 202h77l46 -201l-48 -203h-78z" />
    <glyph glyph-name="fraction" unicode="&#x2044;" horiz-adv-x="235" 
d="M158 699h74l-155 -699h-75z" />
    <glyph glyph-name="franc" unicode="&#x20a3;" horiz-adv-x="234" 
d="M135 625v-243h67v-66h-67v-104h32v-60h-32v-152h-89v152h-32v60h32v487h174v-74h-85z" />
    <glyph glyph-name="uni20A6" unicode="&#x20a6;" horiz-adv-x="362" 
d="M348 443v-60h-37v-63h37v-60h-37v-260h-98l-48 260h-30v-260h-75v260h-46v60h46v63h-46v60h46v256h100l43 -256h27v256h81v-256h37zM135 320h19l-11 63h-8v-63zM224 320h6v63h-17z" />
    <glyph glyph-name="peseta" unicode="&#x20a7;" horiz-adv-x="308" 
d="M168 699c28 0 51.5 -9 70.5 -27s28.5 -43.333 28.5 -76v-70h27v-60h-27v-98c0 -32 -9.16699 -54.333 -27.5 -67s-41.5 -19 -69.5 -19h-32v-282h-88v466h-36v60h36v173h118zM179 466h-41v-110h24c11.333 0 17 13.333 17 40v70zM138 526h41v56c0 28.667 -6.33301 43 -19 43
h-22v-99z" />
    <glyph glyph-name="uni20A9" unicode="&#x20a9;" horiz-adv-x="447" 
d="M73 312l-6 79h-53v60h48l-18 248h85l16 -248h24l22 248h71l23 -248h26l17 248h78l-19 -248h46v-60h-50l-6 -79h56v-60h-61l-18 -252h-87l-30 252h-20l-25 -252h-96l-19 252h-63v60h59zM299 312h3l5 79h-16zM155 312h2l7 79h-15zM223 312h7l-3 32z" />
    <glyph glyph-name="Euro" unicode="&#x20ac;" horiz-adv-x="275" 
d="M185 297h-52v-186c0 -28.667 6 -43 18 -43h4c12 0 18 14.333 18 43v172h89v-185c0 -18 -2.83301 -33.667 -8.5 -47s-13.167 -24.166 -22.5 -32.499s-20 -14.5 -32 -18.5s-24.333 -6 -37 -6h-18c-12 0 -24 2 -36 6s-22.833 10.167 -32.5 18.5
s-17.334 19.166 -23.001 32.499s-8.5 29 -8.5 47v199h-30v37h30v33h-30v37h30v197c0 18 2.83301 33.667 8.5 47s13.334 24.166 23.001 32.499s20.5 14.5 32.5 18.5s24 6 36 6h18c12.667 0 25 -2 37 -6s22.667 -10.167 32 -18.5s16.833 -19.166 22.5 -32.499s8.5 -29 8.5 -47
v-183h-89v170c0 15.333 -1.5 26.333 -4.5 33s-7.5 10 -13.5 10h-4c-6 0 -10.5 -3.16699 -13.5 -9.5s-4.5 -17.5 -4.5 -33.5v-184h52v-37h-52v-33h52v-37z" />
    <glyph glyph-name="uni20B9" unicode="&#x20b9;" horiz-adv-x="328" 
d="M14 553h168.002v28c0 19.333 -3.33301 32.333 -10 39s-16.667 10 -30 10h-128v69h300v-69h-54c1.33301 -5.33301 2.33301 -10.666 3 -15.999s1 -10.666 1 -15.999v-45h50v-69h-50v-60c0 -15.333 -2.66699 -29.333 -8 -42s-12.333 -23.334 -21 -32.001
s-18.834 -15.334 -30.501 -20.001s-23.834 -7 -36.501 -7h-44l152 -323h-99l-155 334v50h113c31.333 0 47 16.333 47 49v51h-168v69z" />
    <glyph glyph-name="trademark" unicode="&#x2122;" horiz-adv-x="299" 
d="M120 657h-26v-265h-48v265h-25v42h99v-42zM278 699v-307h-36v182h-1l-19 -182h-30l-18 182h-1v-182h-37v307h60l13 -183h1l14 183h54z" />
    <glyph glyph-name="minus" unicode="&#x2212;" horiz-adv-x="250" 
d="M236 380v-60h-222v60h222z" />
    <glyph glyph-name="fi" unicode="&#xfb01;" horiz-adv-x="249" 
d="M36 0v425.999h-23v69h23v111c0 15.333 2.83301 29.833 8.5 43.5s14.5 25.167 26.5 34.5s27.167 15.833 45.5 19.5s39.833 2.83398 64.5 -2.49902v-66c-5.33301 0.666992 -11.5 0.666992 -18.5 0s-13.667 -2.16699 -20 -4.5s-11.833 -6 -16.5 -11s-7 -11.833 -7 -20.5
v-104h119v-495h-82v426h-37v-426h-83z" />
    <glyph glyph-name="fl" unicode="&#xfb02;" horiz-adv-x="288" 
d="M35 0v425.999h-23v69h23v111c0 15.333 2.83301 29.833 8.5 43.5s14.5 25.167 26.5 34.5s27 15.833 45 19.5s39.333 2.83398 64 -2.49902v-66c-5.33301 0.666992 -11.5 0.666992 -18.5 0s-13.667 -2.16699 -20 -4.5s-11.833 -6 -16.5 -11s-7 -11.833 -7 -20.5v-104h62v-69
h-62v-426h-82zM197 -0.000976562h82v699h-82v-699z" />
    <glyph glyph-name="_0007" horiz-adv-x="0" 
 />
    <glyph glyph-name="_0024" horiz-adv-x="0" 
 />
    <glyph glyph-name="quoteaccent" horiz-adv-x="0" 
d="M1 642l19 46h34l-11 -46h22v-75h-64v75z" />
    <glyph glyph-name="accent margin" horiz-adv-x="0" 
d="M81 699h12v-143h-12v143z" />
    <glyph glyph-name="ucircumflex.001" horiz-adv-x="221" 
d="M109 66c10 0 16 9.33301 18 28v401h83v-495h-83v22c-16.667 -16.667 -33.667 -25 -51 -25h-3c-26 0 -43 9 -51 27s-12 42.333 -12 73v398h82v-396c0 -22 5 -33 15 -33h2zM150 619l60 -86h-77l-23 44l-22 -44h-78l60 86h80z" />
    <glyph glyph-name="uacute.001" horiz-adv-x="221" 
d="M109 66c5.33301 0 9.66699 3 13 9s5 14.667 5 26v394h83v-495h-83v22c-16.667 -16.667 -33.667 -25 -51 -25h-3c-26 0 -43 9 -51 27s-12 42.333 -12 73v398h82v-396c0 -22 5 -33 15 -33h2zM82.001 533l36 86h78l-60 -86h-54z" />
    <glyph glyph-name="ugrave.001" horiz-adv-x="221" 
d="M107 66c-10 0 -15 11 -15 33v396h-82v-398c0 -30.667 4 -55 12 -73s25 -27 51 -27h3c17.333 0 34.333 8.33301 51 25v-22h83v495h-83v-401c-2 -18.667 -8 -28 -18 -28h-2zM84 533l-60 86h78l36 -86h-54z" />
    <glyph glyph-name="udieresis.001" horiz-adv-x="221" 
d="M107 66c-10 0 -15.001 11 -15.001 33v396h-82v-398c0 -30.667 4 -55 12 -73s25 -27 51 -27h3c17.333 0 34.333 8.33301 51 25v-22h83v495h-83v-394c0 -11.333 -1.66699 -20 -5 -26s-7.66602 -9 -12.999 -9h-2zM185.999 542h-59v71h59v-71zM92.999 542h-58v71h58v-71z" />
    <glyph glyph-name="iacute.001" horiz-adv-x="107" 
d="M96 495v-495h-82v495h82zM27 533l36 86h78l-60 -86h-54z" />
    <glyph glyph-name="_0158" horiz-adv-x="0" 
 />
    </font>
</defs>
</svg>
